<svg width="742" height="497" viewBox="0 0 742 497" fill="none" xmlns="http://www.w3.org/2000/svg">
<path d="M508.6 496.27C573.433 496.27 625.99 490.676 625.99 483.774C625.99 476.873 573.433 471.279 508.6 471.279C443.768 471.279 391.21 476.873 391.21 483.774C391.21 490.676 443.768 496.27 508.6 496.27Z" fill="#E43E5C" fill-opacity="0.78"/>
<path d="M470.07 338.973C470.07 338.973 452.16 355.506 444.75 380.632C444.75 380.632 481.19 397.165 493.54 414.362H522.57C522.57 414.362 555.92 390.554 575.68 384.607C575.68 384.607 563.33 354.852 545.42 342.283C527.51 329.715 470.07 338.973 470.07 338.973Z" fill="#7972D9"/>
<path opacity="0.3" d="M470.07 338.973C470.07 338.973 452.16 355.506 444.75 380.632C444.75 380.632 481.19 397.165 493.54 414.362H522.57C522.57 414.362 555.92 390.554 575.68 384.607C575.68 384.607 563.33 354.852 545.42 342.283C527.51 329.715 470.07 338.973 470.07 338.973Z" fill="#191939"/>
<path opacity="0.3" d="M560.221 357.457C555.951 351.676 550.951 346.165 545.421 342.283C527.511 329.715 470.071 338.973 470.071 338.973C470.071 338.973 466.351 342.418 461.601 348.531C486.231 371.613 528.161 368.458 560.221 357.457Z" fill="#191939"/>
<path d="M503.27 417.414C503.27 417.414 479.34 392.059 442.46 378.339C405.59 364.618 360.31 369.704 363.54 397.061C366.77 424.409 444.4 430.138 503.27 417.414Z" fill="#7972D9"/>
<path opacity="0.2" d="M503.27 417.414C503.27 417.414 479.34 392.059 442.46 378.339C405.59 364.618 360.31 369.704 363.54 397.061C366.77 424.409 444.4 430.138 503.27 417.414Z" fill="#191939"/>
<path d="M515.82 414.695C515.82 414.695 538.42 386.081 575.42 375.578C612.42 365.064 658.81 379.428 653.44 406.402C648.06 433.376 572.06 432.421 515.82 414.695Z" fill="#7972D9"/>
<path opacity="0.2" d="M515.82 414.695C515.82 414.695 538.42 386.081 575.42 375.578C612.42 365.064 658.81 379.428 653.44 406.402C648.06 433.376 572.06 432.421 515.82 414.695Z" fill="#191939"/>
<path d="M467.44 402.718C467.44 402.718 483.08 409.827 499.85 409.775C516.62 409.723 524.4 400.331 532.63 417.704C540.86 435.078 456.61 423.599 456.61 423.599L467.44 402.728V402.718Z" fill="#FFB1B0"/>
<path d="M476.3 400.87C476.3 400.87 392.8 361.754 369.37 381.151C345.94 400.549 384.88 420.901 402.7 424.409C420.52 427.906 435.04 432.681 459.14 435.545C459.14 435.545 473.99 421.866 476.3 400.881V400.87Z" fill="#7972D9"/>
<path d="M621.431 428.114C574.561 442.633 502.561 445.799 502.561 445.799C502.561 445.799 460.581 453.313 453.741 450.158C452.311 451.258 449.781 453.054 448.631 452.919C446.981 452.721 447.171 451.009 446.621 450.376C446.211 449.909 449.191 447.864 450.771 446.837C450.731 446.785 450.701 446.733 450.661 446.681L445.231 448.985C445.231 448.985 442.681 447.522 443.111 446.733C443.431 446.141 446.931 444.325 448.681 443.453C448.651 443.401 448.621 443.35 448.591 443.298L441.521 445.519C441.521 445.519 440.121 444.325 439.621 442.872C439.201 441.679 444.571 439.707 446.421 439.063C446.421 439.063 446.421 439.053 446.411 439.042C444.421 439.624 438.321 441.295 437.801 440.34C437.181 439.188 436.711 437.143 437.741 435.981C438.291 435.379 441.871 434.808 444.361 434.497C439.391 434.756 435.041 433.044 435.041 433.044C433.711 428.571 436.981 424.118 438.081 423.807C438.921 423.568 442.721 424.305 444.481 424.668C444.571 424.658 444.681 424.637 444.771 424.627C445.071 424.585 445.381 424.533 445.701 424.481C445.911 424.45 446.131 424.419 446.351 424.378C446.611 424.336 446.881 424.295 447.161 424.253C447.431 424.212 447.711 424.17 448.001 424.129C448.241 424.097 448.481 424.056 448.731 424.025C449.941 423.848 451.261 423.661 452.671 423.464C452.821 423.444 452.971 423.423 453.131 423.402C453.621 423.329 454.131 423.267 454.641 423.194C454.761 423.174 454.881 423.163 455.011 423.143C456.771 422.904 458.631 422.676 460.591 422.437C460.611 422.437 460.631 422.437 460.651 422.437C461.291 422.354 461.951 422.281 462.611 422.208C462.691 422.208 462.781 422.188 462.861 422.177C465.571 421.866 468.421 421.555 471.341 421.274C471.491 421.264 471.641 421.243 471.791 421.233C472.461 421.171 473.131 421.108 473.811 421.046C473.841 421.046 473.861 421.046 473.891 421.046C516.021 427.014 569.571 398.213 578.431 400.891C597.711 406.713 578.091 405.603 634.581 397.995" fill="#FFCDCC"/>
<path d="M527.211 444.086C523.701 435.545 522.121 426.183 523.041 416.625C549.851 409.879 572.911 399.23 578.451 400.901C597.731 406.724 578.111 405.613 634.601 398.006L621.421 428.114C591.891 437.268 552.391 441.907 527.201 444.086H527.211Z" fill="#FFB1B0"/>
<path d="M526.971 412.961C526.971 412.961 526.131 429.92 537.871 448.155C537.871 448.155 607.491 442.218 630.551 432.888C653.621 423.558 662.001 394.726 644.811 385.396C627.621 376.066 594.901 377.768 526.971 412.961Z" fill="#7972D9"/>
<path d="M528.901 123.867C528.901 123.867 531.781 105.269 512.901 101.283C494.021 97.2981 478.021 100.951 468.421 125.86C458.821 150.768 476.421 164.717 450.501 182.651C424.581 200.585 417.221 235.457 448.581 254.055C479.941 272.654 548.751 270.661 562.831 241.435C576.911 212.209 546.191 204.903 547.471 177.337C548.351 158.407 552.591 114.236 528.911 123.867H528.901Z" fill="#191939"/>
<path d="M526.51 123.369C526.51 123.369 526.51 123.141 526.49 122.694C526.48 122.248 526.44 121.594 526.35 120.754C526.14 119.072 525.73 116.561 524.4 113.758C523.11 110.967 520.68 107.946 516.96 106.068C515.15 105.051 512.98 104.449 510.74 103.951C509.55 103.764 508.32 103.463 507.09 103.287C505.86 103.141 504.63 102.892 503.33 102.83C502.69 102.778 502.04 102.726 501.38 102.685C500.72 102.664 500.06 102.674 499.39 102.664C498.05 102.602 496.71 102.788 495.34 102.871C492.64 103.266 489.86 103.847 487.25 105.051C486.57 105.29 485.97 105.715 485.32 106.037L484.36 106.556C484.05 106.743 483.75 106.971 483.45 107.178C482.85 107.614 482.22 107.998 481.64 108.476C481.08 108.974 480.51 109.472 479.94 109.981C477.78 112.129 475.67 114.485 473.99 117.298C472.2 120.017 470.77 123.078 469.42 126.213L469.16 126.794L468.95 127.365L468.48 128.61C468.16 129.451 467.97 130.198 467.7 130.997C467.24 132.627 466.83 134.287 466.55 135.989C465.95 139.373 465.78 142.87 465.8 146.451C465.82 150.031 466.06 153.705 465.91 157.566C465.81 159.486 465.62 161.448 465.19 163.399C464.77 165.35 464.14 167.281 463.29 169.097C461.59 172.75 459.05 175.781 456.31 178.313C454.94 179.59 453.49 180.721 452.03 181.8C451.3 182.34 450.55 182.828 449.81 183.336C449.1 183.824 448.4 184.301 447.7 184.789C444.98 186.709 442.47 188.826 440.18 191.151C435.63 195.801 431.94 201.073 429.63 206.636C427.3 212.189 426.31 217.969 426.66 223.242C426.83 225.878 427.34 228.369 427.98 230.693C428.69 232.997 429.54 235.146 430.56 237.045C432.56 240.885 435.01 243.833 437.19 246.054C439.4 248.254 441.27 249.863 442.6 250.869C443.94 251.876 444.66 252.416 444.66 252.416L444.53 252.644C444.53 252.644 443.79 252.136 442.4 251.201C441.02 250.236 439.05 248.742 436.74 246.583C434.46 244.414 431.85 241.508 429.65 237.626C428.53 235.706 427.57 233.516 426.74 231.14C425.99 228.742 425.42 226.137 425.17 223.377C424.68 217.855 425.58 211.763 427.89 205.899C430.18 200.015 433.89 194.389 438.63 189.532C440.99 187.104 443.61 184.851 446.43 182.828C447.84 181.831 449.29 180.856 450.69 179.839C452.08 178.79 453.45 177.69 454.73 176.486C457.29 174.079 459.59 171.276 461.08 167.997C462.6 164.727 463.24 161.085 463.37 157.442C463.53 153.788 463.33 150.114 463.34 146.451C463.34 142.787 463.55 139.113 464.21 135.543C464.84 131.973 465.91 128.496 467.32 125.268C468.74 122.041 470.25 118.875 472.15 116.031C473.95 113.115 476.17 110.572 478.56 108.351C479.18 107.822 479.81 107.303 480.42 106.784C481.06 106.296 481.75 105.881 482.4 105.435C482.73 105.217 483.05 104.989 483.4 104.791L484.45 104.262C485.16 103.93 485.82 103.504 486.55 103.255C489.39 102.031 492.34 101.481 495.19 101.138C496.63 101.076 498.04 100.92 499.42 101.014C500.11 101.034 500.8 101.045 501.48 101.086C502.16 101.159 502.83 101.221 503.49 101.283C506.14 101.553 508.65 102.072 511.01 102.612C513.37 103.224 515.59 103.94 517.48 105.082C521.34 107.21 523.79 110.52 525.03 113.457C526.32 116.415 526.58 119.01 526.73 120.712C526.79 121.574 526.8 122.248 526.79 122.684C526.79 123.13 526.78 123.359 526.78 123.359H526.53L526.51 123.369Z" fill="#191939"/>
<path d="M527.71 119.228C527.71 119.228 527.71 119.083 527.69 118.792C527.69 118.501 527.66 118.076 527.6 117.526C527.5 116.426 527.28 114.817 526.7 112.856C526.12 110.904 525.11 108.611 523.34 106.473C521.59 104.335 519.07 102.425 515.97 101.159C515.18 100.889 514.38 100.598 513.55 100.329C512.71 100.131 511.85 99.9342 510.98 99.7267C509.16 99.4257 507.26 99.0832 505.35 98.9171C501.51 98.5227 497.41 98.4501 493.29 99.0728C489.18 99.6955 485.05 101.169 481.43 103.629C477.79 106.068 474.7 109.451 472.19 113.25C469.59 117.007 467.68 121.273 466.03 125.517C464.47 129.752 463.65 134.215 463.39 138.553C463.16 142.912 463.39 147.167 463.48 151.277C463.59 155.366 463.38 159.372 462.39 162.901C461.88 164.655 461.19 166.274 460.42 167.727C459.59 169.149 458.72 170.446 457.78 171.546C455.92 173.767 454.08 175.459 452.47 176.715C450.88 177.991 449.56 178.894 448.65 179.475C447.74 180.067 447.26 180.389 447.26 180.389L447.19 180.274C447.19 180.274 447.66 179.942 448.55 179.32C449.44 178.707 450.71 177.753 452.26 176.445C453.82 175.147 455.6 173.425 457.36 171.193C458.25 170.093 459.06 168.796 459.83 167.395C460.55 165.962 461.2 164.395 461.66 162.693C462.57 159.268 462.71 155.376 462.54 151.318C462.38 147.25 462.06 142.953 462.29 138.501C462.53 134.059 463.34 129.472 464.92 125.081C466.57 120.743 468.49 116.384 471.14 112.492C473.74 108.59 476.98 105.092 480.8 102.57C484.6 100.028 488.91 98.5331 493.15 97.9104C497.41 97.2773 501.59 97.4538 505.49 97.9208C509.38 98.4397 513.09 99.0313 516.28 100.412C519.47 101.771 522.04 103.837 523.78 106.099C525.54 108.362 526.51 110.749 527.05 112.741C527.59 114.755 527.73 116.395 527.8 117.505C527.84 118.066 527.84 118.491 527.84 118.771C527.84 119.062 527.84 119.207 527.84 119.207H527.71V119.228Z" fill="#191939"/>
<path d="M565.79 240.698C565.79 240.698 565.97 240.2 566.29 239.276C566.44 238.809 566.68 238.249 566.87 237.564C567.05 236.879 567.29 236.111 567.54 235.25C567.93 233.485 568.44 231.347 568.45 228.867C568.5 226.407 568.16 223.657 567.23 220.844C566.25 218.042 564.68 215.229 562.69 212.396C560.7 209.563 558.3 206.719 555.92 203.574C554.73 201.997 553.52 200.378 552.38 198.634C551.79 197.783 551.26 196.859 550.71 195.946C550.21 195.002 549.68 194.057 549.24 193.061C547.35 189.127 546.19 184.623 545.94 180.108C545.94 178.998 545.9 177.794 545.95 176.767L546.07 173.611C546.15 171.525 546.23 169.439 546.31 167.384C546.43 163.274 546.6 159.237 546.55 155.345C546.5 151.453 546.41 147.707 546.07 144.188C545.71 140.68 545.19 137.401 544.36 134.505C543.51 131.62 542.33 129.15 540.82 127.365C539.32 125.559 537.43 124.625 535.79 124.272C534.13 123.971 532.75 123.94 531.82 124.044C530.88 124.147 530.38 124.21 530.38 124.21L530.32 123.95C530.32 123.95 530.82 123.846 531.76 123.66C532.7 123.483 534.12 123.348 535.9 123.566C537.67 123.826 539.82 124.697 541.59 126.566C543.37 128.392 544.81 130.987 545.82 133.976C547.85 139.985 548.6 147.406 548.81 155.293C548.92 159.237 548.88 163.326 548.78 167.467C548.72 169.533 548.66 171.629 548.59 173.715C548.52 175.812 548.44 177.919 548.51 179.994C548.72 184.156 549.73 188.276 551.47 191.981C553.15 195.718 555.44 199.039 557.72 202.184C560.02 205.318 562.34 208.286 564.3 211.286C566.27 214.275 567.81 217.367 568.72 220.408C569.59 223.46 569.77 226.417 569.55 228.991C569.37 231.576 568.71 233.734 568.2 235.509C567.88 236.37 567.6 237.149 567.36 237.823C567.11 238.498 566.84 239.027 566.65 239.484C566.25 240.377 566.04 240.854 566.04 240.854L565.81 240.74L565.79 240.698Z" fill="#191939"/>
<path d="M570.251 240.501C570.251 240.501 570.411 240.003 570.701 239.069C570.841 238.602 571.051 238.031 571.221 237.346C571.391 236.661 571.591 235.872 571.801 234.99C572.121 233.205 572.561 231.026 572.521 228.514C572.521 226.002 572.131 223.19 571.161 220.304C570.161 217.419 568.541 214.524 566.501 211.67C564.461 208.815 562.041 205.992 559.651 202.9C557.271 199.817 554.831 196.506 552.961 192.718C551.031 188.972 549.791 184.727 549.321 180.409C549.271 179.33 549.171 178.22 549.161 177.182L549.111 174.037C549.081 171.951 549.051 169.875 549.021 167.81C548.931 163.69 548.811 159.642 548.541 155.75C548.261 151.858 547.941 148.091 547.421 144.562C546.901 141.033 546.181 137.743 545.191 134.837C544.201 131.931 542.951 129.388 541.321 127.583C539.731 125.756 537.781 124.77 536.081 124.5C534.381 124.23 532.991 124.376 532.071 124.562C531.151 124.77 530.661 124.874 530.661 124.874L530.621 124.749C530.621 124.749 531.111 124.614 532.031 124.376C532.951 124.158 534.361 123.929 536.131 124.158C537.891 124.376 539.981 125.341 541.711 127.199C542.601 128.091 543.341 129.243 544.071 130.457C544.731 131.724 545.381 133.083 545.901 134.567C548.041 140.494 549.061 147.842 549.651 155.667C549.941 159.59 550.101 163.658 550.211 167.779C550.251 169.844 550.301 171.92 550.351 174.016C550.391 176.102 550.431 178.199 550.591 180.285C551.021 184.436 552.171 188.515 554.021 192.158C555.811 195.842 558.171 199.112 560.521 202.184C562.881 205.256 565.261 208.151 567.281 211.099C569.291 214.036 570.911 217.056 571.881 220.055C572.841 223.055 573.141 225.982 573.061 228.535C573.021 231.109 572.521 233.298 572.131 235.084C571.881 235.966 571.651 236.754 571.461 237.439C571.261 238.124 571.031 238.685 570.871 239.142C570.541 240.065 570.361 240.553 570.361 240.553L570.241 240.511L570.251 240.501Z" fill="#191939"/>
<path d="M568.851 236.049C565.171 203.284 525.741 238.373 522.881 210.829C521.061 193.268 523.701 185.515 523.701 185.515L494.691 185.142C494.691 185.142 499.181 213.807 489.791 220.138C481.371 225.815 447.711 210.081 444.851 238.384C441.991 266.686 519.621 256.629 519.621 256.629C519.621 256.629 571.851 262.794 568.851 236.059V236.049Z" fill="#FFCDCC"/>
<path d="M495.34 207.394C501.32 206.999 507.24 205.992 512.47 203.948C516.21 202.485 519.35 200.461 522.25 198.157C522.35 189.491 523.7 185.505 523.7 185.505L494.69 185.132C494.69 185.132 496.58 197.191 495.34 207.394Z" fill="#FFB1B0"/>
<path d="M532.93 157.089C532.93 157.089 538.03 150.945 541.49 158.324C544.95 165.703 534.23 179.932 530.1 176.154C525.97 172.376 532.93 157.089 532.93 157.089Z" fill="#FFB1B0"/>
<path d="M539.46 150.104C539.46 150.104 540.42 164.385 530.82 174.681L528.9 149.108L539.46 150.104Z" fill="#191939"/>
<path d="M480.75 157.089C480.75 157.089 475.65 150.945 472.19 158.324C468.73 165.703 479.45 179.932 483.58 176.154C487.71 172.376 480.75 157.089 480.75 157.089Z" fill="#FFB1B0"/>
<path d="M474.23 150.104C474.23 150.104 473.27 164.385 482.87 174.681L484.79 149.108L474.23 150.104Z" fill="#191939"/>
<path d="M508.41 120.214C508.41 120.214 475.61 118.429 479.61 159.403C483.02 194.389 501.9 200.253 511.72 198.925C521.53 197.596 530.84 190.279 534.33 162.61C537.74 135.595 531.45 119.768 508.41 120.204V120.214Z" fill="#FFCDCC"/>
<path d="M528.9 123.867L527.62 126.192C527.62 126.192 520.58 135.823 502.66 133.498C484.74 131.174 478.98 142.798 478.98 153.425C478.98 164.053 470.02 138.812 475.46 127.188C480.9 115.564 516.1 106.597 528.9 123.867Z" fill="#191939"/>
<path d="M526.73 124.262C526.91 124.604 526.97 124.884 527.05 125.165C527.09 125.434 527.14 125.704 527.13 125.943C527.13 126.431 527.02 126.867 526.83 127.271L526.78 127.365L526.74 127.427C525.83 128.735 524.92 129.658 523.86 130.572C522.81 131.464 521.69 132.232 520.51 132.886C519.92 133.208 519.33 133.53 518.7 133.779C518.09 134.038 517.48 134.329 516.84 134.516C515.59 134.962 514.3 135.252 513.01 135.522L511.07 135.803C510.42 135.896 509.77 135.896 509.12 135.948C507.82 136.072 506.53 135.948 505.24 135.958L501.44 135.626C500.19 135.543 498.91 135.367 497.71 135.47C497.1 135.502 496.49 135.47 495.88 135.564L494.05 135.823C493.44 135.896 492.86 136.124 492.26 136.259C491.96 136.342 491.66 136.404 491.37 136.508L490.52 136.861C489.95 137.1 489.37 137.318 488.85 137.66C488.33 137.992 487.75 138.231 487.28 138.657C486.27 139.383 485.37 140.265 484.55 141.231C484.18 141.739 483.76 142.227 483.43 142.767C483.12 143.327 482.76 143.856 482.49 144.437C482.24 145.029 481.94 145.6 481.72 146.202C481.52 146.814 481.29 147.416 481.12 148.049C480.97 148.682 480.81 149.305 480.68 149.948L480.38 151.879L480.22 153.83L480.19 155.792L480.14 153.83L480.22 151.869L480.44 149.917C480.55 149.274 480.69 148.63 480.82 147.987C480.97 147.343 481.18 146.721 481.36 146.088C481.56 145.465 481.84 144.863 482.08 144.251C482.34 143.649 482.68 143.088 482.98 142.497C483.3 141.915 483.71 141.407 484.08 140.857C484.89 139.819 485.8 138.864 486.83 138.055C487.31 137.598 487.9 137.307 488.44 136.944C488.98 136.56 489.57 136.311 490.17 136.031L491.06 135.616C491.36 135.491 491.67 135.419 491.98 135.315C492.6 135.138 493.21 134.879 493.85 134.775L495.76 134.422C496.4 134.298 497.05 134.308 497.7 134.246C499.02 134.1 500.26 134.194 501.52 134.204C502.84 134.235 504.02 134.267 505.28 134.267C506.51 134.163 507.75 134.163 508.95 133.934C509.55 133.831 510.16 133.779 510.76 133.633L512.54 133.208C513.7 132.855 514.86 132.513 515.96 132.014C517.08 131.568 518.15 131.018 519.17 130.395C520.2 129.804 521.17 129.098 522.08 128.33C522.98 127.603 523.88 126.68 524.47 125.87L524.38 126.026C524.57 125.632 524.84 125.279 525.21 124.978C525.39 124.822 525.62 124.697 525.86 124.573C526.12 124.459 526.38 124.345 526.75 124.293L526.73 124.262Z" fill="#191939"/>
<path d="M486.65 160.4C486.65 160.4 486.89 160.566 487.3 160.867C487.7 161.157 488.29 161.541 488.97 161.956C489.31 162.154 489.69 162.351 490.08 162.538C490.46 162.756 490.89 162.859 491.3 163.036C491.73 163.14 492.15 163.285 492.59 163.306C493.02 163.409 493.47 163.337 493.91 163.357C494.13 163.357 494.35 163.285 494.57 163.254C494.79 163.202 495.02 163.223 495.24 163.119C495.67 162.932 496.13 162.901 496.55 162.673C496.96 162.465 497.4 162.309 497.79 162.102C498.17 161.873 498.55 161.666 498.91 161.479C499.28 161.303 499.59 161.085 499.88 160.908C500.16 160.721 500.43 160.576 500.65 160.452C501.09 160.202 501.37 160.078 501.37 160.078C501.37 160.078 501.26 160.358 501.03 160.825C500.91 161.053 500.77 161.344 500.58 161.655C500.4 161.977 500.2 162.34 499.89 162.673C499.6 163.015 499.28 163.399 498.93 163.783C498.55 164.146 498.09 164.468 497.62 164.821C497.39 165.008 497.13 165.143 496.84 165.267C496.56 165.402 496.28 165.527 495.99 165.651C495.4 165.879 494.74 165.973 494.1 166.077C493.44 166.056 492.77 166.108 492.14 165.9C491.5 165.786 490.93 165.506 490.38 165.246C489.87 164.925 489.37 164.624 488.99 164.24C488.58 163.887 488.26 163.503 487.98 163.129C487.69 162.776 487.48 162.403 487.3 162.081C487.12 161.759 486.99 161.458 486.9 161.209C486.7 160.711 486.65 160.41 486.65 160.41V160.4Z" fill="#191939"/>
<path d="M530.18 160.4C530.18 160.4 530.13 160.711 529.93 161.199C529.84 161.448 529.7 161.749 529.53 162.071C529.35 162.392 529.14 162.766 528.85 163.119C528.57 163.482 528.25 163.876 527.84 164.229C527.46 164.613 526.96 164.914 526.45 165.236C525.91 165.495 525.34 165.786 524.69 165.89C524.06 166.087 523.39 166.046 522.73 166.066C522.09 165.973 521.42 165.879 520.84 165.641C520.55 165.516 520.26 165.392 519.99 165.257C519.71 165.132 519.44 164.997 519.21 164.81C518.74 164.458 518.28 164.146 517.9 163.773C517.54 163.389 517.22 163.015 516.94 162.662C516.63 162.34 516.43 161.967 516.25 161.645C516.06 161.334 515.92 161.043 515.8 160.815C515.56 160.348 515.46 160.068 515.46 160.068C515.46 160.068 515.74 160.192 516.18 160.441C516.4 160.566 516.67 160.711 516.95 160.898C517.24 161.085 517.55 161.292 517.92 161.469C518.28 161.655 518.66 161.863 519.04 162.091C519.43 162.299 519.87 162.444 520.28 162.662C520.69 162.89 521.16 162.932 521.59 163.108C521.81 163.212 522.04 163.181 522.26 163.243C522.48 163.274 522.7 163.337 522.92 163.347C523.36 163.326 523.81 163.399 524.24 163.295C524.68 163.274 525.1 163.119 525.53 163.025C525.94 162.859 526.37 162.745 526.75 162.527C527.14 162.351 527.52 162.154 527.86 161.946C528.54 161.541 529.12 161.147 529.53 160.856C529.94 160.555 530.18 160.389 530.18 160.389V160.4Z" fill="#191939"/>
<path d="M513.861 150.768C513.861 150.768 513.931 150.364 514.201 149.73C514.461 149.087 514.921 148.205 515.661 147.271C516.041 146.814 516.471 146.316 517.001 145.88C517.501 145.392 518.141 145.019 518.791 144.603C519.131 144.417 519.501 144.271 519.871 144.116C520.061 144.043 520.241 143.95 520.431 143.887L521.031 143.742C521.441 143.659 521.851 143.534 522.271 143.493L523.551 143.451C523.981 143.431 524.401 143.514 524.821 143.597C525.241 143.669 525.651 143.773 526.061 143.867C526.821 144.178 527.581 144.489 528.241 144.884C528.871 145.33 529.451 145.776 529.981 146.212C530.451 146.71 530.871 147.209 531.231 147.665C531.411 147.904 531.591 148.111 531.741 148.329C531.871 148.568 531.991 148.786 532.111 149.004C532.341 149.43 532.511 149.814 532.651 150.114C532.931 150.737 533.051 151.111 533.051 151.111C533.051 151.111 532.671 150.955 532.091 150.654C531.801 150.498 531.451 150.322 531.071 150.104C530.891 149.99 530.691 149.876 530.481 149.751C530.261 149.647 530.041 149.544 529.801 149.43C529.331 149.212 528.851 148.952 528.351 148.693C527.821 148.506 527.291 148.298 526.761 148.06C526.211 147.883 525.651 147.779 525.111 147.593C524.831 147.561 524.551 147.541 524.271 147.499C523.991 147.447 523.711 147.395 523.431 147.426H522.591C522.311 147.437 522.031 147.489 521.751 147.52C521.181 147.541 520.641 147.769 520.081 147.852C519.551 148.06 518.991 148.184 518.491 148.423C517.971 148.61 517.491 148.859 517.021 149.066C516.111 149.513 515.311 149.938 514.741 150.26C514.161 150.582 513.831 150.768 513.831 150.768H513.861Z" fill="#191939"/>
<path d="M504.261 150.768C504.261 150.768 503.931 150.582 503.351 150.26C502.791 149.938 501.991 149.523 501.071 149.066C500.611 148.848 500.121 148.61 499.601 148.423C499.101 148.184 498.541 148.06 498.011 147.852C497.451 147.759 496.911 147.53 496.341 147.52C496.061 147.489 495.781 147.437 495.501 147.416H494.661C494.381 147.395 494.101 147.447 493.821 147.499C493.541 147.551 493.261 147.572 492.981 147.593C492.441 147.79 491.871 147.883 491.331 148.06C490.801 148.298 490.271 148.495 489.741 148.693C489.241 148.952 488.761 149.212 488.291 149.43C488.051 149.544 487.821 149.647 487.611 149.751C487.401 149.876 487.211 149.99 487.021 150.104C486.651 150.322 486.291 150.498 486.001 150.654C485.421 150.955 485.041 151.111 485.041 151.111C485.041 151.111 485.161 150.737 485.441 150.114C485.581 149.803 485.761 149.419 485.981 149.004C486.101 148.796 486.221 148.568 486.351 148.329C486.501 148.111 486.681 147.893 486.861 147.665C487.231 147.209 487.641 146.71 488.111 146.212C488.641 145.776 489.221 145.33 489.851 144.884C490.511 144.489 491.271 144.178 492.031 143.867C492.441 143.773 492.851 143.669 493.271 143.597C493.691 143.514 494.111 143.431 494.541 143.451L495.821 143.493C496.241 143.534 496.651 143.659 497.061 143.742L497.661 143.887C497.851 143.96 498.041 144.043 498.221 144.116C498.591 144.271 498.961 144.427 499.301 144.603C499.951 145.019 500.591 145.403 501.091 145.88C501.621 146.326 502.051 146.814 502.431 147.271C503.171 148.205 503.631 149.077 503.891 149.73C504.161 150.364 504.231 150.768 504.231 150.768H504.261Z" fill="#191939"/>
<path d="M513.221 160.068C513.361 160.638 513.491 161.178 513.611 161.718L513.98 163.316L514.37 164.852C514.51 165.35 514.651 165.848 514.811 166.326C514.871 166.575 514.971 166.803 515.061 167.032C515.141 167.26 515.221 167.499 515.331 167.716C515.431 167.934 515.51 168.163 515.62 168.37C515.74 168.578 515.851 168.775 515.951 168.983C516.051 169.19 516.2 169.356 516.32 169.553C516.43 169.761 516.571 169.927 516.721 170.083C516.871 170.238 516.981 170.446 517.161 170.571C517.321 170.706 517.481 170.861 517.641 171.017L518.98 172.335L517.641 172.999C516.791 173.414 515.93 173.809 515.04 174.141C514.6 174.328 514.141 174.463 513.691 174.618C513.231 174.753 512.761 174.898 512.271 174.992C512.581 174.587 512.921 174.224 513.251 173.871C513.601 173.528 513.931 173.176 514.301 172.854C515.001 172.19 515.741 171.588 516.501 171.006V172.989C516.231 172.823 515.961 172.657 515.691 172.47C515.411 172.304 515.2 172.065 514.96 171.847C514.72 171.629 514.5 171.391 514.32 171.131C514.14 170.872 513.931 170.622 513.781 170.342C513.461 169.803 513.201 169.232 513.001 168.651C512.791 168.069 512.64 167.488 512.54 166.897C512.43 166.305 512.38 165.724 512.35 165.132C512.34 164.551 512.351 163.959 512.411 163.389C512.521 162.237 512.76 161.105 513.23 160.036L513.221 160.068Z" fill="#FF8888"/>
<path d="M500.09 181.001C500.09 181.001 500.4 181.043 500.95 181.126C501.22 181.167 501.54 181.219 501.91 181.281C502.27 181.354 502.69 181.395 503.13 181.489C503.57 181.562 504.05 181.634 504.56 181.717C505.06 181.779 505.58 181.894 506.13 181.956C507.21 182.122 508.35 182.257 509.47 182.33C510.03 182.402 510.59 182.35 511.14 182.392C511.68 182.361 512.22 182.361 512.74 182.319C513.24 182.226 513.76 182.226 514.22 182.112C514.67 181.987 515.15 181.935 515.55 181.8C515.94 181.645 516.33 181.52 516.68 181.416C517.02 181.292 517.29 181.126 517.54 181.022C518.03 180.793 518.34 180.669 518.34 180.669C518.34 180.669 518.19 180.949 517.87 181.427C517.7 181.655 517.52 181.987 517.23 182.267C516.94 182.547 516.61 182.859 516.21 183.181C515.82 183.502 515.33 183.741 514.83 184.021C514.32 184.301 513.74 184.447 513.14 184.654C512.54 184.81 511.9 184.903 511.26 184.986C510.62 185.007 509.96 185.059 509.31 184.986C508.67 184.924 508.02 184.872 507.4 184.727C506.78 184.613 506.18 184.447 505.61 184.26C505.04 184.094 504.51 183.845 504.01 183.637C503.51 183.409 503.06 183.16 502.64 182.931C501.81 182.454 501.17 181.977 500.74 181.613C500.31 181.25 500.09 181.011 500.09 181.011V181.001Z" fill="#FF8888"/>
<path d="M420.941 339.834C418.191 335.164 415.551 329.258 412.151 324.204C407.441 327.442 401.631 332.061 394.611 339.637C384.681 350.358 377.631 355.952 373.751 358.63C371.631 357.478 367.431 355.392 365.361 355.796C362.521 356.346 352.151 357.063 363.291 359.47L364.961 361.764L356.231 363.944C356.231 363.944 361.701 356.513 357.951 358.983C354.201 361.463 345.991 367.244 356.331 366.279C356.331 366.279 342.271 369.88 343.311 370.991C344.351 372.091 358.561 369.33 358.561 369.33C358.561 369.33 322.031 383.393 360.591 373.689C360.591 373.689 321.021 390.72 369.021 374.883C375.691 372.682 380.531 371.063 383.991 369.89C391.631 367.752 409.351 360.529 426.091 348.874C424.411 345.854 422.691 342.844 420.931 339.845L420.941 339.834Z" fill="#FFCDCC"/>
<path d="M385.05 369.569C393.17 367.109 410.07 360.031 426.1 348.864C424.42 345.843 422.7 342.834 420.94 339.834C418.19 335.164 415.55 329.258 412.15 324.204C407.44 327.442 401.63 332.061 394.61 339.637C386.68 348.21 380.59 353.492 376.48 356.637C379.12 361.079 382.1 365.314 385.05 369.569Z" fill="#FFB1B0"/>
<path d="M381.92 347.234C381.92 347.234 386.82 365.895 393.36 369.289C393.36 369.289 432.99 352.33 448.11 335.361C463.23 318.403 468.13 272.602 468.13 272.602L441.16 236.983C441.16 236.983 425.63 305.253 422.77 310.764C420.16 315.787 381.91 347.234 381.91 347.234H381.92Z" fill="white"/>
<path opacity="0.5" d="M449.18 316.265C444.71 307.744 441.71 298.735 440.04 289.187C437.37 273.951 436.37 256.204 443.24 241.944L467.57 274.086C467.57 274.086 464.23 305.253 454.57 325.688C452.7 322.595 450.87 319.482 449.18 316.275V316.265Z" fill="#CACAD8"/>
<path d="M377.84 343.415C377.84 343.415 382.33 365.044 394.18 372.246L406.85 365.033C406.85 365.033 394.59 343.404 392.96 334.925L377.84 343.404V343.415Z" fill="#CACAD8"/>
<path d="M382.84 345.532C382.84 347.11 384.07 348.397 385.6 348.397C387.13 348.397 388.36 347.12 388.36 345.532C388.36 343.944 387.13 342.668 385.6 342.668C384.07 342.668 382.84 343.944 382.84 345.532Z" fill="white"/>
<path d="M594.61 341.318C597.36 336.648 600 330.743 603.4 325.688C608.11 328.926 613.92 333.545 620.94 341.121C630.87 351.842 637.92 357.436 641.8 360.114C643.92 358.962 648.12 356.876 650.19 357.281C653.03 357.831 663.4 358.547 652.26 360.955L650.59 363.248L659.32 365.438C659.32 365.438 653.85 358.007 657.6 360.477C661.35 362.958 669.56 368.738 659.22 367.773C659.22 367.773 673.28 371.375 672.24 372.485C671.2 373.585 656.99 370.825 656.99 370.825C656.99 370.825 693.52 384.887 654.96 375.183C654.96 375.183 694.53 392.215 646.53 376.377C639.86 374.177 635.02 372.558 631.56 371.385C623.92 369.247 606.2 362.023 589.46 350.368C591.14 347.348 592.86 344.338 594.62 341.339L594.61 341.318Z" fill="#FFCDCC"/>
<path d="M630.49 371.053C622.37 368.593 605.47 361.515 589.44 350.348C591.12 347.327 592.84 344.318 594.6 341.318C597.35 336.648 599.99 330.743 603.39 325.688C608.1 328.926 613.91 333.545 620.93 341.121C628.86 349.694 634.95 354.976 639.06 358.121C636.42 362.563 633.44 366.798 630.49 371.053Z" fill="#FFB1B0"/>
<path d="M633.621 348.718C633.621 348.718 628.721 367.379 622.181 370.773C622.181 370.773 582.551 353.814 567.431 336.845C552.311 319.887 547.411 274.086 547.411 274.086L576.501 243.127C576.501 243.127 589.901 306.737 592.761 312.248C595.371 317.271 633.621 348.718 633.621 348.718Z" fill="white"/>
<path opacity="0.5" d="M565.801 316.265C570.271 307.744 573.271 298.735 574.941 289.187C577.611 273.951 578.611 256.204 571.741 241.944L547.411 274.086C547.411 274.086 550.751 305.253 560.411 325.688C562.281 322.595 564.111 319.482 565.801 316.275V316.265Z" fill="#CACAD8"/>
<path d="M637.711 344.899C637.711 344.899 633.221 366.528 621.371 373.731L608.701 366.517C608.701 366.517 620.961 344.889 622.591 336.409L637.711 344.889V344.899Z" fill="#CACAD8"/>
<path d="M629.95 349.881C631.475 349.881 632.71 348.598 632.71 347.016C632.71 345.434 631.475 344.152 629.95 344.152C628.426 344.152 627.19 345.434 627.19 347.016C627.19 348.598 628.426 349.881 629.95 349.881Z" fill="white"/>
<path d="M577.531 250.444C575.081 232.001 565.891 219.277 553.631 219.91C541.371 220.543 530.951 218.634 530.951 218.634C530.951 218.634 510.731 235.488 509.191 235.488C508.851 235.488 508.341 235.945 507.761 236.62C507.181 235.935 506.671 235.488 506.331 235.488C504.801 235.488 484.571 218.634 484.571 218.634C484.571 218.634 474.151 220.543 461.891 219.91C449.631 219.277 440.441 231.991 437.991 250.444C437.991 250.444 441.671 267.299 454.841 275.57C454.841 275.57 456.371 296.877 465.871 309.28C465.871 309.28 464.341 337.904 468.931 340.447C471.871 342.076 487.121 352.133 507.751 353.285C528.381 354.437 545.061 345.885 547.991 344.266C552.591 341.723 551.771 308.968 551.771 308.968C561.271 296.566 560.661 275.57 560.661 275.57C573.841 267.299 577.511 250.444 577.511 250.444H577.531Z" fill="white"/>
<path d="M506.331 235.499C506.331 235.499 491.931 226.272 489.481 208.463L483.041 214.825L479.061 244.082L491.321 228.493C491.321 228.493 498.371 235.177 506.341 235.488L506.331 235.499Z" fill="#CACAD8"/>
<path d="M507.561 236.132C507.561 236.132 521.961 226.905 524.411 209.096L530.851 215.458L534.831 244.715L522.571 229.126C522.571 229.126 515.521 235.81 507.551 236.121L507.561 236.132Z" fill="#CACAD8"/>
<path d="M506.331 235.499C506.331 235.499 516.141 249.489 517.061 280.022C517.981 310.556 518.291 353.492 518.291 353.492L507.771 353.295C507.771 353.295 510.631 299.109 507.871 277.49C505.111 255.861 493.471 230.102 493.471 230.102L506.341 235.509L506.331 235.499Z" fill="#CACAD8"/>
<path d="M507.681 237.772C506.861 236.246 506.341 235.488 506.341 235.488L493.471 230.081C493.471 230.081 494.701 232.811 496.461 237.232C500.221 237.865 503.971 238.145 507.691 237.772H507.681Z" fill="#B8B8C4"/>
<path d="M504.801 246.946C506.325 246.946 507.561 245.664 507.561 244.082C507.561 242.5 506.325 241.217 504.801 241.217C503.276 241.217 502.041 242.5 502.041 244.082C502.041 245.664 503.276 246.946 504.801 246.946Z" fill="white"/>
<path d="M510.62 267.299C512.145 267.299 513.38 266.016 513.38 264.434C513.38 262.852 512.145 261.57 510.62 261.57C509.096 261.57 507.86 262.852 507.86 264.434C507.86 266.016 509.096 267.299 510.62 267.299Z" fill="white"/>
<path d="M510.32 285.43C510.32 287.008 511.55 288.295 513.08 288.295C514.61 288.295 515.84 287.018 515.84 285.43C515.84 283.842 514.61 282.566 513.08 282.566C511.55 282.566 510.32 283.842 510.32 285.43Z" fill="white"/>
<path d="M514.001 310.868C515.525 310.868 516.761 309.585 516.761 308.003C516.761 306.421 515.525 305.139 514.001 305.139C512.476 305.139 511.241 306.421 511.241 308.003C511.241 309.585 512.476 310.868 514.001 310.868Z" fill="white"/>
<path d="M510.32 334.406C510.32 335.984 511.55 337.271 513.08 337.271C514.61 337.271 515.84 335.994 515.84 334.406C515.84 332.818 514.61 331.542 513.08 331.542C511.55 331.542 510.32 332.818 510.32 334.406Z" fill="white"/>
<path d="M718.137 276.398L674.412 290.506C671.975 291.292 670.614 293.98 671.372 296.509L687.985 351.968C688.742 354.497 691.331 355.91 693.768 355.124L737.494 341.015C739.93 340.229 741.291 337.542 740.534 335.013L723.921 279.553C723.163 277.024 720.574 275.612 718.137 276.398Z" fill="#9372D9"/>
<path opacity="0.3" d="M736.46 337.55L692.74 351.654C690.3 352.443 687.71 351.031 686.95 348.499L687.98 351.934C688.74 354.467 691.33 355.878 693.77 355.089L737.49 340.985C739.93 340.196 741.29 337.508 740.53 334.976L739.5 331.54C740.26 334.073 738.9 336.761 736.46 337.55Z" fill="#191939"/>
<path d="M719.636 281.435L675.919 295.541L679.627 307.919L723.343 293.814L719.636 281.435Z" fill="white"/>
<path d="M690.868 308.059L680.65 311.355L682.577 317.787L692.795 314.491L690.868 308.059Z" fill="white"/>
<path d="M702.57 304.281L692.353 307.578L694.279 314.01L704.497 310.713L702.57 304.281Z" fill="white"/>
<path d="M714.439 300.444L704.222 303.741L706.148 310.173L716.366 306.876L714.439 300.444Z" fill="white"/>
<path d="M724.375 297.245L716.812 299.685L718.739 306.117L726.302 303.677L724.375 297.245Z" fill="#FF2C52"/>
<path d="M727.186 306.635L719.623 309.075L721.549 315.507L729.112 313.067L727.186 306.635Z" fill="white"/>
<path d="M729.864 315.587L722.301 318.028L724.227 324.46L731.79 322.019L729.864 315.587Z" fill="white"/>
<path d="M732.674 324.978L725.111 327.418L727.038 333.85L734.6 331.41L732.674 324.978Z" fill="white"/>
<path d="M693.71 317.529L683.493 320.826L685.419 327.258L695.637 323.961L693.71 317.529Z" fill="white"/>
<path d="M705.402 313.752L695.185 317.049L697.111 323.481L707.329 320.184L705.402 313.752Z" fill="white"/>
<path d="M717.282 309.925L707.064 313.222L708.991 319.654L719.208 316.357L717.282 309.925Z" fill="white"/>
<path d="M696.363 326.388L686.145 329.685L688.072 336.117L698.289 332.82L696.363 326.388Z" fill="white"/>
<path d="M708.068 322.621L697.85 325.918L699.777 332.35L709.994 329.053L708.068 322.621Z" fill="white"/>
<path d="M719.928 318.786L709.71 322.083L711.637 328.515L721.854 325.218L719.928 318.786Z" fill="white"/>
<path d="M699.196 335.862L688.978 339.159L690.905 345.591L701.122 342.294L699.196 335.862Z" fill="white"/>
<path d="M710.898 332.085L700.68 335.382L702.607 341.814L712.825 338.517L710.898 332.085Z" fill="white"/>
<path d="M722.767 328.258L712.549 331.554L714.476 337.986L724.694 334.69L722.767 328.258Z" fill="white"/>
<path d="M687.64 162.904L655.454 226.693L699.012 250.367L731.199 186.578L687.64 162.904Z" fill="white"/>
<path d="M687.64 162.904L655.454 226.693L699.012 250.367L731.199 186.578L687.64 162.904Z" fill="#CACAD8"/>
<path d="M671.232 148.356L650 216.908L696.811 232.525L718.043 163.973L671.232 148.356Z" fill="white"/>
<path d="M675.712 163.718L705.062 172.996" stroke="#CACAD8" stroke-width="0.96" stroke-miterlimit="10"/>
<path d="M664.232 201.465L693.582 210.733" stroke="#CACAD8" stroke-width="0.96" stroke-miterlimit="10"/>
<path d="M668.052 187.557L697.402 196.836" stroke="#CACAD8" stroke-width="0.96" stroke-miterlimit="10"/>
<path d="M671.242 176.307L700.602 185.575" stroke="#CACAD8" stroke-width="0.96" stroke-miterlimit="10"/>
<path d="M575.94 27.1453C576.36 30.0928 576.79 33.0403 576.81 36.5482C577.23 39.4957 577.92 40.8968 581.04 42.4225C586.74 45.0586 595.66 43.1801 598.68 50.7461C599.51 53.1331 598.84 55.24 598.65 57.2742C598.2 60.8548 598.76 64.7882 599.73 68.1509C601.26 75.447 607.84 77.4397 613.54 80.0758" stroke="white" stroke-width="0.96" stroke-miterlimit="10"/>
<path d="M577.47 34.4414L569 26.3773L570.02 15.511L586.51 16.5281L585.2 28.3389L577.47 34.4414Z" fill="#7972D9"/>
<path d="M643.5 80.4183C635.62 84.9952 625.61 82.0684 621.2 73.8902C616.79 65.7119 619.61 55.323 627.49 50.746C635.37 46.1691 645.38 49.0958 649.79 57.2741C654.2 65.4524 651.38 75.8413 643.5 80.4183ZM630.02 55.4371C624.63 58.5714 622.7 65.6704 625.72 71.2748C628.74 76.8688 635.58 78.8719 640.98 75.7375C646.37 72.6032 648.3 65.5043 645.28 59.8999C642.26 54.3059 635.42 52.3028 630.02 55.4371Z" fill="#F52046"/>
<path d="M643.07 74.1392C642.44 74.7412 641.74 75.2809 640.97 75.7375C635.58 78.8718 628.73 76.8688 625.71 71.2747C622.69 65.6807 624.62 58.5714 630.01 55.4371C630.79 54.9804 631.6 54.6483 632.42 54.4096L629.85 49.6459C629.05 49.9572 628.25 50.3101 627.48 50.7564C619.6 55.3333 616.78 65.7222 621.19 73.9005C625.6 82.0788 635.61 85.0056 643.49 80.4286C644.26 79.9823 644.97 79.4634 645.64 78.9134L643.07 74.1496V74.1392Z" fill="#D34226"/>
<path d="M585.39 67.3517L607.72 108.731C608.88 110.89 611.51 111.658 613.59 110.454L641.18 94.4189C643.26 93.215 644 90.4855 642.84 88.3267L620.51 46.9475L585.4 67.3517H585.39Z" fill="#F52046"/>
<path d="M475.92 0.980897L426 36.6555L447.63 69.2579L497.55 33.5833L475.92 0.980897Z" fill="white"/>
<path d="M466.261 41.3161L426.001 36.6665L475.931 0.985107L466.261 41.3161Z" fill="#CACAD8"/>
<path d="M31.9608 9.28368L1 96.9011L61.3026 119.854L92.2634 32.2362L31.9608 9.28368Z" fill="#FF2C52" stroke="white" stroke-width="0.12" stroke-miterlimit="10"/>
<path d="M36.0348 15.1578L10.6519 86.9901L60.0919 105.808L85.4748 33.9758L36.0348 15.1578Z" fill="white"/>
<path d="M52.7113 12.8604L49.251 22.6531L70.7507 30.8364L74.2111 21.0437L52.7113 12.8604Z" fill="#7972D9"/>
<path d="M324.942 276.043L283.958 320.12C282.877 321.283 282.909 323.136 284.029 324.258L303.235 343.494C304.356 344.616 306.141 344.583 307.222 343.42L348.206 299.343C349.288 298.179 349.256 296.327 348.135 295.204L328.93 275.969C327.809 274.846 326.024 274.879 324.942 276.043Z" fill="white" stroke="#191939" stroke-width="1.69" stroke-miterlimit="10"/>
<path d="M347.792 299.789L348.212 299.333C349.292 298.17 349.262 296.313 348.142 295.192L328.932 275.95C327.812 274.829 326.022 274.86 324.942 276.023L324.522 276.479L347.792 299.779V299.789Z" fill="#191939"/>
<path d="M286.642 317.236L283.962 320.111C282.882 321.273 282.912 323.131 284.032 324.252L303.242 343.493C304.362 344.614 306.152 344.583 307.232 343.421L309.912 340.546L286.642 317.246V317.236Z" fill="#191939"/>
<path d="M294.252 330.053C293.362 331.008 293.382 332.544 294.312 333.468C295.232 334.391 296.712 334.371 297.602 333.405C298.492 332.44 298.472 330.915 297.542 329.991C296.622 329.067 295.142 329.088 294.252 330.053Z" fill="#191939" stroke="white" stroke-width="0.3" stroke-miterlimit="10"/>
<path d="M337.162 285.996C336.812 286.38 336.822 286.982 337.182 287.356C337.552 287.719 338.132 287.709 338.492 287.335C338.842 286.951 338.832 286.349 338.472 285.976C338.102 285.612 337.522 285.623 337.162 285.996Z" fill="white" stroke="#191939" stroke-width="0.12" stroke-miterlimit="10"/>
</svg>
