<svg xmlns="http://www.w3.org/2000/svg" width="57" height="57" viewBox="0 0 57 57" fill="none">
<circle cx="28.5" cy="28.5" r="28.5" fill="#E43E5C"/>
<circle cx="28.5002" cy="28.5" r="22.6667" stroke="white"/>
<path d="M35.4563 17.5729C34.036 17.6034 32.648 18.0026 31.4285 18.7312C30.209 19.4598 29.1999 20.4929 28.5 21.7292C27.8001 20.4929 26.791 19.4598 25.5715 18.7312C24.352 18.0026 22.964 17.6034 21.5438 17.5729C16.9208 17.5729 13.1875 21.7292 13.1875 26.8625C13.1875 36.1375 28.5 45.4271 28.5 45.4271C28.5 45.4271 43.8125 36.1375 43.8125 26.8625C43.8125 21.7292 40.0792 17.5729 35.4563 17.5729Z" stroke="white" stroke-miterlimit="10"/>
<path d="M33.3711 30.8C33.3711 32.0919 32.8579 33.3308 31.9444 34.2442C31.031 35.1577 29.7921 35.6709 28.5002 35.6709C27.2084 35.6709 25.9695 35.1577 25.056 34.2442C24.1426 33.3308 23.6294 32.0919 23.6294 30.8C23.6294 26.6292 28.5002 21.7584 28.5002 21.7584C28.5002 21.7584 33.3711 26.6292 33.3711 30.8Z" stroke="white" stroke-miterlimit="10"/>
</svg>