<svg xmlns="http://www.w3.org/2000/svg" width="57" height="57" viewBox="0 0 57 57" fill="none">
<circle cx="28.5" cy="28.5" r="28.5" fill="#72DDFF"/>
<path d="M30.4843 3.97269L35.0751 7.13231C35.7055 7.5662 36.4362 7.83214 37.198 7.90499L42.7458 8.43549C44.1899 8.57359 45.3992 9.58827 45.7859 10.9865L47.2717 16.3578C47.4758 17.0954 47.8645 17.7688 48.4013 18.3143L52.3101 22.2867C53.3276 23.3208 53.6017 24.8753 52.9993 26.195L50.6848 31.2648C50.367 31.961 50.232 32.7267 50.2925 33.4896L50.7334 39.0452C50.8482 40.4914 50.0589 41.8584 48.7491 42.4821L43.7174 44.8781C43.0264 45.2071 42.4308 45.7069 41.9868 46.3302L38.7535 50.8695C37.9118 52.0511 36.4285 52.591 35.0242 52.2268L29.6296 50.8279C28.8888 50.6358 28.1112 50.6358 27.3704 50.8279L21.9758 52.2268C20.5715 52.591 19.0882 52.0511 18.2465 50.8695L15.0132 46.3302C14.5692 45.7069 13.9736 45.2071 13.2826 44.8781L8.25088 42.4821C6.94107 41.8584 6.15179 40.4914 6.26656 39.0452L6.70748 33.4896C6.76802 32.7267 6.633 31.961 6.31518 31.2648L4.00074 26.1951C3.39826 24.8753 3.67238 23.3208 4.68988 22.2867L8.5987 18.3143C9.13546 17.7688 9.52424 17.0954 9.72827 16.3578L11.2141 10.9865C11.6008 9.58827 12.8101 8.57359 14.2542 8.43549L19.802 7.90499C20.5638 7.83214 21.2944 7.5662 21.9249 7.13231L26.5157 3.97269C27.7107 3.1502 29.2893 3.1502 30.4843 3.97269Z" stroke="white"/>
<path d="M32.1646 51.8801C29.5452 46.1864 28.9974 41.3658 29 38.3226C29 35.0144 29.6179 33.0812 29.6438 33L30.7523 33.1458C30.7264 33.222 29.0727 42.2835 34 53L32.1646 51.8801Z" fill="white"/>
<path d="M28.8446 33.0973C28.8446 33.0973 29.6597 36.3658 28.7185 38.3756C27.7773 40.3853 25.3906 41.644 23.0038 41.5178C20.6171 41.3917 19.4882 40.3237 19.236 39.0034C18.9839 37.6831 19.8019 35.735 19.8019 35.735C19.8019 35.735 18.0427 37.1169 15.782 36.8675C13.5213 36.6181 12.5801 36.0519 11.3867 35.1717C10.1934 34.2915 9 33.4113 9 33.4113C9 33.4113 12.2019 31.9648 14.3365 31.9032C16.471 31.8416 23.6929 31.8416 24.9478 31.8416C26.2028 31.8416 27.3346 30.9614 28.8417 33.0973H28.8446Z" fill="#72DDFF" stroke="white" stroke-width="0.7" stroke-miterlimit="10"/>
<path d="M28.8448 33.0973C28.8448 33.0973 28.962 33.5726 29.0588 34.2739C28.5985 34.6054 28.2935 34.9516 28.2935 34.9516C28.2935 34.9516 27.7745 34.3472 26.4815 34.7785C25.1884 35.2098 24.8424 35.1247 23.4614 35.3829C22.139 35.6323 19.7083 36.5125 19.5089 36.5858C19.6584 36.0871 19.8021 35.7379 19.8021 35.7379C19.8021 35.7379 19.5499 35.9345 19.116 36.1663L18.8022 35.8142C18.8022 35.8142 22.2534 32.7922 22.5114 32.7922L24.4085 31.8416H24.4349C24.6548 31.8416 24.8307 31.8416 24.9509 31.8416C26.2059 31.8416 27.3377 30.9614 28.8448 33.0973V33.0973Z" fill="white" stroke="white" stroke-width="0.7" stroke-miterlimit="10"/>
<path d="M34.7469 33.602C34.7469 33.602 37.3213 34.6083 38.9545 34.9839C40.5877 35.3594 40.9015 35.3594 40.9015 35.3594C40.9015 35.3594 38.2625 38.1232 35.6881 39.0034C33.1137 39.8836 30.4133 37.9971 29.4075 36.6152C28.4018 35.2333 27.2729 33.4729 27.2729 33.4729C27.2729 33.4729 28.2142 32.2171 30.2872 32.1526C32.3602 32.088 34.7469 33.599 34.7469 33.599V33.602Z" fill="#72DDFF" stroke="white" stroke-width="0.7" stroke-miterlimit="10"/>
<path d="M37.7788 34.3472C37.7788 34.3472 37.0018 34.9516 35.1898 35.0367C33.3777 35.1218 30.7036 33.3115 30.7036 33.3115C30.7036 33.3115 33.5624 33.0211 34.1547 33.3115C34.7441 33.602 37.7788 34.3472 37.7788 34.3472V34.3472Z" fill="white" stroke="white" stroke-width="0.7" stroke-miterlimit="10"/>
<path d="M30.2872 32.1555C31.0349 32.1321 31.8265 32.3169 32.5302 32.5575L32.6915 33.3966C32.6915 33.3966 30.7065 33.4817 29.8444 33.8279C28.9824 34.1741 28.2904 34.9487 28.2904 34.9487C28.2904 34.9487 28.2581 34.9105 28.1907 34.8606C27.6658 34.0802 27.2759 33.4729 27.2759 33.4729C27.2759 33.4729 28.2171 32.2171 30.2901 32.1526L30.2872 32.1555Z" fill="white" stroke="white" stroke-width="0.7" stroke-miterlimit="10"/>
<path d="M30.853 25.3076C30.853 25.3076 32.6739 22.3531 35.1867 21.4113C37.6995 20.4695 40.7137 20.5311 41.2151 20.7189C41.7165 20.9067 41.2151 23.735 40.4616 25.1815C39.708 26.6279 36.0663 27.8837 33.8672 28.3237C31.6681 28.7638 29.2843 29.3301 29.3459 28.3237C29.4075 27.3174 30.853 25.3076 30.853 25.3076Z" fill="#72DDFF"/>
<path opacity="0.3" d="M30.853 25.3076C30.853 25.3076 32.6739 22.3531 35.1867 21.4113C37.6995 20.4695 40.7137 20.5311 41.2151 20.7189C41.7165 20.9067 41.2151 23.735 40.4616 25.1815C39.708 26.6279 36.0663 27.8837 33.8672 28.3237C31.6681 28.7638 29.2843 29.3301 29.3459 28.3237C29.4075 27.3174 30.853 25.3076 30.853 25.3076Z" fill="white"/>
<path d="M30.853 25.3076C30.853 25.3076 32.6739 22.3531 35.1867 21.4113C37.6995 20.4695 40.7137 20.5311 41.2151 20.7189C41.7165 20.9067 41.2151 23.735 40.4616 25.1815C39.708 26.6279 36.0663 27.8837 33.8672 28.3237C31.6681 28.7638 29.2843 29.3301 29.3459 28.3237C29.4075 27.3174 30.853 25.3076 30.853 25.3076Z" stroke="white" stroke-width="0.7" stroke-miterlimit="10"/>
<path d="M30.9789 22.227C30.9789 22.227 31.4187 20.6573 30.2253 19.0231C29.032 17.3888 27.777 15.6285 27.2727 16.0685C26.7713 16.5086 23.7571 19.4632 23.3788 21.159C23.0006 22.8548 22.8774 24.4891 22.8774 24.4891C22.8774 24.4891 23.3173 26.2494 24.9504 26.9389C26.5836 27.6313 28.5306 26.7511 29.5979 25.4309C30.6652 24.1106 30.9789 22.227 30.9789 22.227Z" fill="#72DDFF"/>
<path opacity="0.3" d="M30.9789 22.227C30.9789 22.227 31.4187 20.6573 30.2253 19.0231C29.032 17.3888 27.777 15.6285 27.2727 16.0685C26.7713 16.5086 23.7571 19.4632 23.3788 21.159C23.0006 22.8548 22.8774 24.4891 22.8774 24.4891C22.8774 24.4891 23.3173 26.2494 24.9504 26.9389C26.5836 27.6313 28.5306 26.7511 29.5979 25.4309C30.6652 24.1106 30.9789 22.227 30.9789 22.227Z" fill="white"/>
<path d="M30.9789 22.227C30.9789 22.227 31.4187 20.6573 30.2253 19.0231C29.032 17.3888 27.777 15.6285 27.2727 16.0685C26.7713 16.5086 23.7571 19.4632 23.3788 21.159C23.0006 22.8548 22.8774 24.4891 22.8774 24.4891C22.8774 24.4891 23.3173 26.2494 24.9504 26.9389C26.5836 27.6313 28.5306 26.7511 29.5979 25.4309C30.6652 24.1106 30.9789 22.227 30.9789 22.227Z" stroke="white" stroke-width="0.7" stroke-miterlimit="10"/>
<path d="M19.8019 31.8416C19.8019 31.8416 15.908 29.9551 15.1545 28.3854C14.4009 26.8157 11.3867 23.1688 10.7592 22.1008C10.1318 21.0328 9.87961 20.5311 10.5071 20.3404C11.1346 20.1497 14.7147 21.1561 16.3479 21.7869C17.9811 22.4147 18.4209 23.2949 18.4209 23.2949C18.4209 23.2949 18.3593 21.6607 18.3593 20.4666C18.3593 19.2725 19.6788 20.7805 21.8133 22.5409C23.9479 24.3013 25.329 26.6895 25.3935 26.9389C25.455 27.1913 22.4408 27.1913 22.2532 28.447C22.0655 29.7027 22.8806 31.023 23.1328 31.7154C23.385 32.4079 23.385 32.7834 22.0655 32.7834C20.7461 32.7834 19.8048 31.8416 19.8048 31.8416H19.8019Z" fill="#72DDFF"/>
<path opacity="0.3" d="M19.8019 31.8416C19.8019 31.8416 15.908 29.9551 15.1545 28.3854C14.4009 26.8157 11.3867 23.1688 10.7592 22.1008C10.1318 21.0328 9.87961 20.5311 10.5071 20.3404C11.1346 20.1497 14.7147 21.1561 16.3479 21.7869C17.9811 22.4147 18.4209 23.2949 18.4209 23.2949C18.4209 23.2949 18.3593 21.6607 18.3593 20.4666C18.3593 19.2725 19.6788 20.7805 21.8133 22.5409C23.9479 24.3013 25.329 26.6895 25.3935 26.9389C25.455 27.1913 22.4408 27.1913 22.2532 28.447C22.0655 29.7027 22.8806 31.023 23.1328 31.7154C23.385 32.4079 23.385 32.7834 22.0655 32.7834C20.7461 32.7834 19.8048 31.8416 19.8048 31.8416H19.8019Z" fill="white"/>
<path d="M19.8019 31.8416C19.8019 31.8416 15.908 29.9551 15.1545 28.3854C14.4009 26.8157 11.3867 23.1688 10.7592 22.1008C10.1318 21.0328 9.87961 20.5311 10.5071 20.3404C11.1346 20.1497 14.7147 21.1561 16.3479 21.7869C17.9811 22.4147 18.4209 23.2949 18.4209 23.2949C18.4209 23.2949 18.3593 21.6607 18.3593 20.4666C18.3593 19.2725 19.6788 20.7805 21.8133 22.5409C23.9479 24.3013 25.329 26.6895 25.3935 26.9389C25.455 27.1913 22.4408 27.1913 22.2532 28.447C22.0655 29.7027 22.8806 31.023 23.1328 31.7154C23.385 32.4079 23.385 32.7834 22.0655 32.7834C20.7461 32.7834 19.8048 31.8416 19.8048 31.8416H19.8019Z" stroke="white" stroke-width="0.7" stroke-miterlimit="10"/>
<path d="M18.418 23.2949C18.418 23.2949 18.9194 24.489 19.1715 25.9326C19.4237 27.379 19.799 28.6348 20.1772 29.0103" stroke="white" stroke-width="0.7" stroke-miterlimit="10"/>
<path d="M48.6864 28.0714C48.6864 28.0714 49.4399 27.379 46.9916 27.0651C44.5433 26.7512 42.3442 27.1267 40.7755 27.6313C39.2068 28.1331 38.8931 28.3238 36.8201 29.1394C34.747 29.9551 31.985 31.2137 31.6067 32.0294C31.2314 32.845 31.6067 33.0973 31.6067 33.0973C31.6067 33.0973 33.6153 33.5374 35.3745 33.2235C37.1338 32.9096 47.6191 31.0876 48.6864 28.0714Z" fill="#72DDFF"/>
<path opacity="0.3" d="M48.6864 28.0714C48.6864 28.0714 49.4399 27.379 46.9916 27.0651C44.5433 26.7512 42.3442 27.1267 40.7755 27.6313C39.2068 28.1331 38.8931 28.3238 36.8201 29.1394C34.747 29.9551 31.985 31.2137 31.6067 32.0294C31.2314 32.845 31.6067 33.0973 31.6067 33.0973C31.6067 33.0973 33.6153 33.5374 35.3745 33.2235C37.1338 32.9096 47.6191 31.0876 48.6864 28.0714Z" fill="white"/>
<path d="M48.6864 28.0714C48.6864 28.0714 49.4399 27.379 46.9916 27.0651C44.5433 26.7512 42.3442 27.1267 40.7755 27.6313C39.2068 28.1331 38.8931 28.3238 36.8201 29.1394C34.747 29.9551 31.985 31.2137 31.6067 32.0294C31.2314 32.845 31.6067 33.0973 31.6067 33.0973C31.6067 33.0973 33.6153 33.5374 35.3745 33.2235C37.1338 32.9096 47.6191 31.0876 48.6864 28.0714Z" stroke="white" stroke-width="0.7" stroke-miterlimit="10"/>
<path d="M29.2843 33.1618C29.2843 33.1618 32.6122 33.1618 33.6795 32.7863C34.7468 32.4078 37.761 30.712 39.3326 28.8284C40.9013 26.9447 42.4084 24.2426 41.6549 24.2426C40.9013 24.2426 35.3743 25.1227 33.052 26.5663C30.7298 28.0127 29.7241 28.3266 29.7241 28.3266C29.7241 28.3266 26.0824 31.2812 26.5222 32.2846C26.962 33.2909 29.2843 33.1648 29.2843 33.1648V33.1618Z" fill="#72DDFF"/>
<path opacity="0.3" d="M29.2843 33.1618C29.2843 33.1618 32.6122 33.1618 33.6795 32.7863C34.7468 32.4078 37.761 30.712 39.3326 28.8284C40.9013 26.9447 42.4084 24.2426 41.6549 24.2426C40.9013 24.2426 35.3743 25.1227 33.052 26.5663C30.7298 28.0127 29.7241 28.3266 29.7241 28.3266C29.7241 28.3266 26.0824 31.2812 26.5222 32.2846C26.962 33.2909 29.2843 33.1648 29.2843 33.1648V33.1618Z" fill="white"/>
<path d="M29.2843 33.1618C29.2843 33.1618 32.6122 33.1618 33.6795 32.7863C34.7468 32.4078 37.761 30.712 39.3326 28.8284C40.9013 26.9447 42.4084 24.2426 41.6549 24.2426C40.9013 24.2426 35.3743 25.1227 33.052 26.5663C30.7298 28.0127 29.7241 28.3266 29.7241 28.3266C29.7241 28.3266 26.0824 31.2812 26.5222 32.2846C26.962 33.2909 29.2843 33.1648 29.2843 33.1648V33.1618Z" stroke="white" stroke-width="0.7" stroke-miterlimit="10"/>
<path d="M33.6797 32.7834C32.7883 33.0974 30.3254 33.1502 29.5337 33.159C29.6539 32.8627 29.8445 32.5898 29.8445 32.449C29.8445 32.1028 30.7065 30.1194 30.9646 30.0314C31.2226 29.9463 31.3956 30.2896 33.0346 30.982C34.6737 31.6715 36.4857 30.8969 36.4857 30.8969L36.5503 31.2167C35.3833 32.003 34.2515 32.5839 33.6797 32.7864V32.7834Z" fill="white" stroke="white" stroke-width="0.7" stroke-miterlimit="10"/>
<path d="M33.806 31.9677C33.806 31.9677 37.6999 30.2074 40.3359 29.644C42.9718 29.0778 45.5492 29.5179 47.1794 28.8284C48.8126 28.136 49.0003 27.6343 49.0003 28.0744C49.0003 28.5144 45.7339 31.8445 43.6638 33.0386C41.5908 34.2328 39.2686 34.4851 36.5681 34.2944C33.8676 34.1066 31.6069 33.4787 31.6069 33.1003C31.6069 32.7218 33.806 31.9707 33.806 31.9707V31.9677Z" fill="#72DDFF" stroke="white" stroke-width="0.7" stroke-miterlimit="10"/>
<path d="M25.8301 26.6895C25.8301 26.6895 27.7154 24.8675 28.9059 23.2979C30.0992 21.7282 30.9789 20.094 31.794 20.5957C32.6091 21.0974 34.1163 23.3595 34.1808 25.6216C34.2423 27.8837 32.7352 28.9516 30.9789 29.5795C29.2196 30.2074 26.7097 29.3272 25.8301 26.6895V26.6895Z" fill="#72DDFF"/>
<path opacity="0.3" d="M25.8301 26.6895C25.8301 26.6895 27.7154 24.8675 28.9059 23.2979C30.0992 21.7282 30.9789 20.094 31.794 20.5957C32.6091 21.0974 34.1163 23.3595 34.1808 25.6216C34.2423 27.8837 32.7352 28.9516 30.9789 29.5795C29.2196 30.2074 26.7097 29.3272 25.8301 26.6895V26.6895Z" fill="white"/>
<path d="M25.8301 26.6895C25.8301 26.6895 27.7154 24.8675 28.9059 23.2979C30.0992 21.7282 30.9789 20.094 31.794 20.5957C32.6091 21.0974 34.1163 23.3595 34.1808 25.6216C34.2423 27.8837 32.7352 28.9516 30.9789 29.5795C29.2196 30.2074 26.7097 29.3272 25.8301 26.6895V26.6895Z" stroke="white" stroke-width="0.7" stroke-miterlimit="10"/>
<path d="M24.7605 33.8514C24.7605 33.8514 22.6875 34.9193 20.1776 35.8611C17.6647 36.803 14.9643 35.735 13.897 34.4792C12.8297 33.2235 10.8827 30.3952 10.6951 29.9551C10.5074 29.515 10.8212 28.7609 11.4486 28.5086C12.0761 28.2563 14.023 29.0103 14.5244 29.3888C15.0258 29.7643 17.7908 30.5184 19.2334 30.9585C20.679 31.3986 22.1216 32.0881 22.3737 32.1526C22.6259 32.2142 24.8866 32.845 24.7605 33.8484V33.8514Z" fill="#72DDFF" stroke="white" stroke-width="0.7" stroke-miterlimit="10"/>
<path d="M11.4484 28.5115C12.0759 28.2592 14.0228 29.0132 14.5242 29.3917C15.0256 29.7673 17.7906 30.5213 19.2332 30.9614C19.5 31.0436 19.7698 31.1345 20.0278 31.2255C18.9605 31.067 15.5827 30.5418 13.6446 30.0167C11.3223 29.3888 10.6919 29.7027 10.6919 29.7027L10.6421 29.6558C10.648 29.2304 10.9441 28.711 11.4455 28.5086L11.4484 28.5115Z" fill="#72DDFF"/>
<path opacity="0.3" d="M11.4484 28.5115C12.0759 28.2592 14.0228 29.0132 14.5242 29.3917C15.0256 29.7673 17.7906 30.5213 19.2332 30.9614C19.5 31.0436 19.7698 31.1345 20.0278 31.2255C18.9605 31.067 15.5827 30.5418 13.6446 30.0167C11.3223 29.3888 10.6919 29.7027 10.6919 29.7027L10.6421 29.6558C10.648 29.2304 10.9441 28.711 11.4455 28.5086L11.4484 28.5115Z" fill="white"/>
<path d="M11.4484 28.5115C12.0759 28.2592 14.0228 29.0132 14.5242 29.3917C15.0256 29.7673 17.7906 30.5213 19.2332 30.9614C19.5 31.0436 19.7698 31.1345 20.0278 31.2255C18.9605 31.067 15.5827 30.5418 13.6446 30.0167C11.3223 29.3888 10.6919 29.7027 10.6919 29.7027L10.6421 29.6558C10.648 29.2304 10.9441 28.711 11.4455 28.5086L11.4484 28.5115Z" stroke="white" stroke-width="0.7" stroke-miterlimit="10"/>
<path d="M25.8921 25.6832C25.8921 25.6832 27.2731 26.0587 29.0324 26.5634C30.7917 27.0651 32.8002 28.2592 33.0523 30.0196C33.3045 31.78 32.4248 32.4079 30.604 33.0357C28.7831 33.6636 26.3964 34.4176 24.7632 33.8514C23.13 33.2851 20.6817 31.4631 20.5556 29.3888C20.4295 27.3145 21.1215 26.5605 22.5641 25.9326C24.0097 25.3047 25.8921 25.6803 25.8921 25.6803V25.6832Z" fill="#72DDFF" stroke="white" stroke-width="0.7" stroke-miterlimit="10"/>
</svg>