<svg xmlns="http://www.w3.org/2000/svg" width="57" height="57" viewBox="0 0 57 57" fill="none">
<circle cx="28.5" cy="28.5" r="28.5" fill="#81E3C0"/>
<circle cx="28.5002" cy="28.5" r="22.6667" stroke="white"/>
<mask id="path-3-inside-1_476_25" fill="white">
<path fill-rule="evenodd" clip-rule="evenodd" d="M14.9618 18.343C13.3106 20.0422 12.3813 22.3449 12.3813 24.7461C12.3813 27.1484 13.3106 29.4512 14.9618 31.1492L26.2411 42.7496C26.9067 43.434 27.8103 43.816 28.7524 43.816C29.6935 43.816 30.5981 43.434 31.2638 42.7496C33.3063 40.6484 42.5337 31.1398 42.5337 31.1398C44.1849 29.4418 45.1142 27.1391 45.1142 24.7367C45.1142 22.3344 44.1849 20.0328 42.5337 18.3336C40.8708 16.6238 38.6138 15.6652 36.2618 15.6652C33.9099 15.6652 31.654 16.6238 29.9911 18.3336L28.7431 19.6168L27.5044 18.343C25.8415 16.6332 23.5856 15.6746 21.2337 15.6746C18.8817 15.6746 16.6247 16.6332 14.9618 18.343M16.6423 19.9777C17.8599 18.725 19.511 18.0183 21.2337 18.0183C22.9563 18.0183 24.6063 18.725 25.8239 19.9777L27.9028 22.1152C28.1231 22.3414 28.4267 22.4703 28.7431 22.4703C29.0595 22.4703 29.363 22.3414 29.5833 22.1152L31.6716 19.9672C32.8892 18.7156 34.5392 18.009 36.2618 18.009C37.9845 18.009 39.6345 18.7156 40.8532 19.9672C40.8567 19.9719 40.8603 19.9754 40.8649 19.9801C42.0825 21.2328 42.7704 22.9484 42.7704 24.7367C42.7704 26.525 42.0825 28.2418 40.8532 29.5062C40.8532 29.5062 31.6259 39.0148 29.5833 41.116C29.363 41.3422 29.0642 41.4723 28.7524 41.4723C28.4407 41.4723 28.1419 41.3422 27.9216 41.116L16.6423 29.5156C15.413 28.2512 14.7251 26.5344 14.7251 24.7461C14.7251 22.9578 15.413 21.2422 16.6423 19.9777"/>
</mask>
<path fill-rule="evenodd" clip-rule="evenodd" d="M14.9618 18.343C13.3106 20.0422 12.3813 22.3449 12.3813 24.7461C12.3813 27.1484 13.3106 29.4512 14.9618 31.1492L26.2411 42.7496C26.9067 43.434 27.8103 43.816 28.7524 43.816C29.6935 43.816 30.5981 43.434 31.2638 42.7496C33.3063 40.6484 42.5337 31.1398 42.5337 31.1398C44.1849 29.4418 45.1142 27.1391 45.1142 24.7367C45.1142 22.3344 44.1849 20.0328 42.5337 18.3336C40.8708 16.6238 38.6138 15.6652 36.2618 15.6652C33.9099 15.6652 31.654 16.6238 29.9911 18.3336L28.7431 19.6168L27.5044 18.343C25.8415 16.6332 23.5856 15.6746 21.2337 15.6746C18.8817 15.6746 16.6247 16.6332 14.9618 18.343M16.6423 19.9777C17.8599 18.725 19.511 18.0183 21.2337 18.0183C22.9563 18.0183 24.6063 18.725 25.8239 19.9777L27.9028 22.1152C28.1231 22.3414 28.4267 22.4703 28.7431 22.4703C29.0595 22.4703 29.363 22.3414 29.5833 22.1152L31.6716 19.9672C32.8892 18.7156 34.5392 18.009 36.2618 18.009C37.9845 18.009 39.6345 18.7156 40.8532 19.9672C40.8567 19.9719 40.8603 19.9754 40.8649 19.9801C42.0825 21.2328 42.7704 22.9484 42.7704 24.7367C42.7704 26.525 42.0825 28.2418 40.8532 29.5062C40.8532 29.5062 31.6259 39.0148 29.5833 41.116C29.363 41.3422 29.0642 41.4723 28.7524 41.4723C28.4407 41.4723 28.1419 41.3422 27.9216 41.116L16.6423 29.5156C15.413 28.2512 14.7251 26.5344 14.7251 24.7461C14.7251 22.9578 15.413 21.2422 16.6423 19.9777" fill="white"/>
<path d="M14.9618 31.1492L15.392 30.7309L15.392 30.7309L14.9618 31.1492ZM26.2411 42.7496L25.8109 43.1679L25.811 43.1679L26.2411 42.7496ZM31.2638 42.7496L31.6939 43.1679L31.694 43.1678L31.2638 42.7496ZM42.5337 31.1398L42.1035 30.7215L42.1031 30.722L42.5337 31.1398ZM42.5337 18.3336L42.964 17.9154L42.9638 17.9153L42.5337 18.3336ZM29.9911 18.3336L30.4212 18.7519L30.4212 18.7519L29.9911 18.3336ZM28.7431 19.6168L28.3129 20.0351L28.743 20.4774L29.1732 20.0351L28.7431 19.6168ZM27.5044 18.343L27.9346 17.9247L27.9345 17.9246L27.5044 18.343ZM25.8239 19.9777L25.3937 20.3959L25.3938 20.396L25.8239 19.9777ZM27.9028 22.1152L27.4727 22.5335L27.473 22.5339L27.9028 22.1152ZM29.5833 22.1152L30.0131 22.5339L30.0135 22.5335L29.5833 22.1152ZM31.6716 19.9672L31.2415 19.5488L31.2414 19.5489L31.6716 19.9672ZM40.8532 19.9672L41.3332 19.6072L41.31 19.5763L41.2831 19.5486L40.8532 19.9672ZM40.8649 19.9801L41.2952 19.5618L41.2892 19.5558L40.8649 19.9801ZM40.8532 29.5062L40.423 29.088L40.4226 29.0884L40.8532 29.5062ZM29.5833 41.116L30.0131 41.5347L30.0135 41.5342L29.5833 41.116ZM27.9216 41.116L27.4914 41.5343L27.4918 41.5347L27.9216 41.116ZM16.6423 29.5156L16.2121 29.9339L16.2121 29.9339L16.6423 29.5156ZM14.5315 17.9248C12.7701 19.7375 11.7813 22.1908 11.7813 24.7461H12.9813C12.9813 22.4991 13.8512 20.3469 15.3921 18.7611L14.5315 17.9248ZM11.7813 24.7461C11.7813 27.3025 12.7701 29.7559 14.5317 31.5675L15.392 30.7309C13.8512 29.1464 12.9813 26.9944 12.9813 24.7461H11.7813ZM14.5316 31.5675L25.8109 43.1679L26.6713 42.3313L15.392 30.7309L14.5316 31.5675ZM25.811 43.1679C26.5887 43.9675 27.6469 44.416 28.7524 44.416V43.216C27.9736 43.216 27.2248 42.9004 26.6712 42.3313L25.811 43.1679ZM28.7524 44.416C29.8567 44.416 30.9161 43.9676 31.6939 43.1679L30.8337 42.3313C30.2801 42.9004 29.5302 43.216 28.7524 43.216V44.416ZM31.694 43.1678C32.7155 42.117 35.5332 39.2144 38.0952 36.5747C39.3763 35.2548 40.5936 34.0005 41.4906 33.0762C41.9391 32.6141 42.3075 32.2345 42.5638 31.9704C42.6919 31.8383 42.7921 31.7351 42.8601 31.665C42.8942 31.6299 42.9202 31.6031 42.9377 31.585C42.9465 31.576 42.9531 31.5692 42.9576 31.5646C42.9598 31.5623 42.9615 31.5606 42.9626 31.5594C42.9632 31.5588 42.9636 31.5584 42.9639 31.5581C42.964 31.558 42.9641 31.5579 42.9642 31.5578C42.9642 31.5577 42.9643 31.5577 42.5337 31.1398C42.1031 30.722 42.1031 30.722 42.103 30.7221C42.1029 30.7222 42.1028 30.7223 42.1027 30.7224C42.1024 30.7227 42.102 30.7231 42.1014 30.7237C42.1003 30.7249 42.0986 30.7266 42.0964 30.7289C42.092 30.7335 42.0853 30.7403 42.0766 30.7493C42.0591 30.7674 42.033 30.7942 41.999 30.8293C41.9309 30.8994 41.8308 31.0026 41.7026 31.1347C41.4463 31.3988 41.0779 31.7784 40.6294 32.2405C39.7325 33.1648 38.5152 34.419 37.2341 35.7389C34.6719 38.3788 31.8546 41.281 30.8336 42.3314L31.694 43.1678ZM42.9639 31.5581C44.7254 29.7465 45.7142 27.2931 45.7142 24.7367H44.5142C44.5142 26.985 43.6443 29.137 42.1035 30.7215L42.9639 31.5581ZM45.7142 24.7367C45.7142 22.1802 44.7253 19.728 42.964 17.9154L42.1034 18.7517C43.6444 20.3376 44.5142 22.4886 44.5142 24.7367H45.7142ZM42.9638 17.9153C41.1894 16.0909 38.7779 15.0652 36.2618 15.0652V16.2652C38.4496 16.2652 40.5522 17.1568 42.1036 18.7519L42.9638 17.9153ZM36.2618 15.0652C33.7456 15.0652 31.3353 16.0909 29.561 17.9153L30.4212 18.7519C31.9727 17.1567 34.0741 16.2652 36.2618 16.2652V15.0652ZM29.561 17.9153L28.313 19.1985L29.1732 20.0351L30.4212 18.7519L29.561 17.9153ZM29.1732 19.1985L27.9346 17.9247L27.0742 18.7612L28.3129 20.0351L29.1732 19.1985ZM27.9345 17.9246C26.1602 16.1003 23.7499 15.0746 21.2337 15.0746V16.2746C23.4214 16.2746 25.5228 17.1661 27.0743 18.7613L27.9345 17.9246ZM21.2337 15.0746C18.7176 15.0746 16.3061 16.1002 14.5317 17.9246L15.3919 18.7613C16.9433 17.1661 19.0459 16.2746 21.2337 16.2746V15.0746ZM17.0725 20.3959C18.1795 19.257 19.6764 18.6183 21.2337 18.6183V17.4183C19.3457 17.4183 17.5403 18.193 16.212 19.5595L17.0725 20.3959ZM21.2337 18.6183C22.7908 18.6183 24.2867 19.2569 25.3937 20.3959L26.2542 19.5595C24.926 18.193 23.1218 17.4183 21.2337 17.4183V18.6183ZM25.3938 20.396L27.4727 22.5335L28.333 21.6969L26.254 19.5594L25.3938 20.396ZM27.473 22.5339C27.8057 22.8753 28.2639 23.0703 28.7431 23.0703V21.8703C28.5894 21.8703 28.4406 21.8074 28.3326 21.6966L27.473 22.5339ZM28.7431 23.0703C29.2222 23.0703 29.6805 22.8753 30.0131 22.5339L29.1535 21.6966C29.0455 21.8074 28.8967 21.8703 28.7431 21.8703V23.0703ZM30.0135 22.5335L32.1018 20.3854L31.2414 19.5489L29.1531 21.697L30.0135 22.5335ZM32.1016 20.3856C33.2087 19.2476 34.7046 18.609 36.2618 18.609V17.409C34.3737 17.409 32.5696 18.1836 31.2415 19.5488L32.1016 20.3856ZM36.2618 18.609C37.819 18.609 39.315 19.2476 40.4234 20.3858L41.2831 19.5486C39.9539 18.1837 38.15 17.409 36.2618 17.409V18.609ZM40.3732 20.3272C40.4062 20.3711 40.4397 20.4034 40.4407 20.4043L41.2892 19.5558C41.2808 19.5474 41.3073 19.5726 41.3332 19.6072L40.3732 20.3272ZM40.4347 20.3982C41.5407 21.5362 42.1704 23.1007 42.1704 24.7367H43.3704C43.3704 22.7961 42.6243 20.9294 41.2952 19.5619L40.4347 20.3982ZM42.1704 24.7367C42.1704 26.372 41.5412 27.9378 40.423 29.088L41.2834 29.9245C42.6238 28.5457 43.3704 26.6779 43.3704 24.7367H42.1704ZM40.8532 29.5062C40.4226 29.0884 40.4226 29.0884 40.4225 29.0885C40.4225 29.0886 40.4224 29.0887 40.4222 29.0888C40.4219 29.0891 40.4215 29.0895 40.421 29.0901C40.4198 29.0913 40.4182 29.093 40.4159 29.0953C40.4115 29.0999 40.4049 29.1067 40.3961 29.1157C40.3786 29.1338 40.3526 29.1606 40.3185 29.1957C40.2504 29.2658 40.1503 29.369 40.0222 29.5011C39.7659 29.7652 39.3974 30.1448 38.949 30.6069C38.052 31.5312 36.8347 32.7854 35.5537 34.1053C32.9914 36.7452 30.1742 39.6474 29.1531 40.6978L30.0135 41.5342C31.035 40.4834 33.8527 37.5808 36.4148 34.9411C37.6959 33.6212 38.9131 32.3669 39.8101 31.4426C40.2586 30.9805 40.627 30.6009 40.8833 30.3368C41.0115 30.2047 41.1116 30.1015 41.1797 30.0314C41.2137 29.9963 41.2398 29.9695 41.2573 29.9514C41.266 29.9424 41.2727 29.9356 41.2771 29.931C41.2793 29.9287 41.281 29.927 41.2821 29.9258C41.2827 29.9252 41.2831 29.9248 41.2834 29.9245C41.2835 29.9244 41.2836 29.9243 41.2837 29.9242C41.2838 29.9241 41.2838 29.9241 40.8532 29.5062ZM29.1535 40.6973C29.0417 40.8121 28.8961 40.8723 28.7524 40.8723V42.0723C29.2323 42.0723 29.6843 41.8722 30.0131 41.5347L29.1535 40.6973ZM28.7524 40.8723C28.6088 40.8723 28.4632 40.8121 28.3514 40.6973L27.4918 41.5347C27.8206 41.8722 28.2726 42.0723 28.7524 42.0723V40.8723ZM28.3518 40.6977L17.0725 29.0973L16.2121 29.9339L27.4914 41.5343L28.3518 40.6977ZM17.0725 29.0974C15.9543 27.9472 15.3251 26.3814 15.3251 24.7461H14.1251C14.1251 26.6873 14.8717 28.5551 16.2121 29.9339L17.0725 29.0974ZM15.3251 24.7461C15.3251 23.1109 15.9542 21.5462 17.0725 20.396L16.2121 19.5595C14.8717 20.9382 14.1251 22.8047 14.1251 24.7461H15.3251Z" fill="#81E3C0" mask="url(#path-3-inside-1_476_25)"/>
<path fill-rule="evenodd" clip-rule="evenodd" d="M27.5756 28.5816H25.2354C24.5885 28.5816 24.0635 29.1066 24.0635 29.7535C24.0635 30.4004 24.5885 30.9254 25.2354 30.9254H27.5756V33.2656C27.5756 33.9125 28.1006 34.4375 28.7475 34.4375C29.3943 34.4375 29.9193 33.9125 29.9193 33.2656V30.9254H32.2596C32.9064 30.9254 33.4314 30.4004 33.4314 29.7535C33.4314 29.1066 32.9064 28.5816 32.2596 28.5816H29.9193V26.2414C29.9193 25.5945 29.3943 25.0695 28.7475 25.0695C28.1006 25.0695 27.5756 25.5945 27.5756 26.2414V28.5816V28.5816Z" fill="white"/>
</svg>