<svg xmlns="http://www.w3.org/2000/svg" width="57" height="57" viewBox="0 0 57 57" fill="none">
<circle cx="28.5" cy="28.5" r="28.5" fill="#FFAB4A"/>
<circle cx="28.4997" cy="28.5001" r="22.6667" stroke="white"/>
<path d="M28.5001 51.2525C41.0659 51.2525 51.2526 41.0659 51.2526 28.5C51.2526 15.9341 41.0659 5.7475 28.5001 5.7475C15.9342 5.7475 5.74756 15.9341 5.74756 28.5C5.74756 41.0659 15.9342 51.2525 28.5001 51.2525Z" stroke="white" stroke-miterlimit="10"/>
<path d="M28.5 1.1875V12.5637" stroke="white" stroke-miterlimit="10"/>
<path d="M28.5 44.4363V55.8125" stroke="white" stroke-miterlimit="10"/>
<path d="M55.8123 28.5H44.436" stroke="white" stroke-miterlimit="10"/>
<path d="M12.5637 28.5H1.1875" stroke="white" stroke-miterlimit="10"/>
<path d="M21.6602 35.3162H29.6402C30.5431 35.3162 31.4094 34.9592 32.0501 34.3229C32.6908 33.6867 33.0539 32.8229 33.0602 31.92V31.92C33.0602 31.0129 32.6998 30.143 32.0585 29.5017C31.4171 28.8603 30.5472 28.5 29.6402 28.5H27.2652C26.3581 28.5 25.4882 28.1397 24.8469 27.4983C24.2055 26.8569 23.8452 25.987 23.8452 25.08V25.08C23.8514 24.1749 24.2137 23.3086 24.8537 22.6685C25.4938 22.0285 26.36 21.6662 27.2652 21.66H35.2214" stroke="white" stroke-miterlimit="10"/>
<path d="M28.5 17.1238V21.6838" stroke="white" stroke-miterlimit="10"/>
<path d="M28.5 35.34V39.8763" stroke="white" stroke-miterlimit="10"/>
</svg>