<svg xmlns="http://www.w3.org/2000/svg" width="57" height="57" viewBox="0 0 57 57" fill="none">
<g clip-path="url(#clip0_476_115)">
<circle cx="28.5" cy="28.5" r="28.5" fill="#1C00C6"/>
<path d="M18.0601 19.5217L18.0822 19.5313C20.0328 20.3965 21.9734 22.6197 23.5429 25.1707C25.1089 27.716 26.2389 30.4778 26.6107 32.2742C27.0001 34.1551 27.0719 36.4585 27.0428 38.3115C27.0283 39.2339 26.9891 40.0367 26.9535 40.6086C26.9527 40.6202 26.952 40.6316 26.9513 40.643C26.8216 40.5476 26.6765 40.4393 26.5179 40.3184C25.8071 39.7769 24.8266 38.9859 23.7511 37.9906C21.5938 35.9941 19.0828 33.2014 17.5817 29.9736C15.1053 24.6485 17.2295 20.6604 17.9712 19.52C17.9743 19.5189 17.9781 19.5177 17.9827 19.5166C17.9954 19.5137 18.0103 19.5124 18.0254 19.5136C18.0403 19.5148 18.052 19.5181 18.0601 19.5217Z" stroke="white"/>
<path d="M34.3069 25.1707C35.8764 22.6197 37.817 20.3965 39.7677 19.5313L39.7897 19.5217C39.7978 19.5181 39.8095 19.5148 39.8245 19.5136C39.8395 19.5124 39.8544 19.5137 39.8672 19.5166C39.8717 19.5177 39.8756 19.5189 39.8786 19.52C40.6203 20.6604 42.7445 24.6485 40.2681 29.9736C38.767 33.2014 36.2561 35.9941 34.0987 37.9906C33.0232 38.9859 32.0427 39.7769 31.3319 40.3184C31.1733 40.4393 31.0282 40.5476 30.8985 40.643C30.8978 40.6316 30.8971 40.6202 30.8964 40.6086C30.8607 40.0367 30.8215 39.2339 30.807 38.3115C30.778 36.4585 30.8498 34.1551 31.2391 32.2742C31.611 30.4778 32.7409 27.716 34.3069 25.1707ZM39.8665 19.5014L39.8665 19.5014L39.8665 19.5014Z" stroke="white"/>
<path d="M28.6555 16.5959L28.6555 16.5958C28.7084 16.5268 28.77 16.5025 28.8215 16.5002C28.8728 16.4979 28.9393 16.5163 29.0028 16.5847L29.0028 16.5847C30.1384 17.8064 31.5572 19.988 32.8275 22.5965C34.0951 25.1995 35.1959 28.189 35.7166 31.0119C36.2403 33.8502 36.1624 36.4383 35.1721 38.3036C34.2087 40.118 32.3214 41.3563 28.9386 41.3911C25.8195 41.4232 24.0589 40.2754 23.1367 38.5381C22.1856 36.7461 22.069 34.2234 22.513 31.4189C23.3994 25.8204 26.4586 19.464 28.6555 16.5959Z" fill="#1C00C6" stroke="white"/>
<path d="M45.2389 30.823L45.239 30.823C45.278 30.8175 45.309 30.8223 45.331 30.8294C43.3483 37.5924 39.2847 40.0939 35.7417 40.9425C33.9467 41.3724 32.2688 41.3808 31.0368 41.2802C30.4218 41.23 29.9208 41.1529 29.5757 41.0889C29.55 41.0842 29.5251 41.0794 29.5011 41.0748C29.5255 40.9637 29.5568 40.8334 29.5965 40.6864C29.7415 40.1495 29.9985 39.3901 30.4445 38.5171C31.3348 36.7744 32.9818 34.5714 36.0138 32.7773L35.7662 32.359L36.0138 32.7773C39.2108 30.8856 42.2162 30.8748 44.025 30.8684C44.5303 30.8666 44.9423 30.8651 45.2389 30.823ZM45.3529 30.754L45.3529 30.754C45.3529 30.754 45.3529 30.754 45.3529 30.754Z" fill="#1C00C6" stroke="white"/>
<path d="M12.6097 30.823L12.6096 30.823C12.5706 30.8175 12.5396 30.8223 12.5177 30.8294C14.5004 37.5924 18.564 40.0939 22.107 40.9425C23.9019 41.3724 25.5798 41.3808 26.8119 41.2802C27.4269 41.23 27.9278 41.1529 28.2729 41.0889C28.2986 41.0842 28.3235 41.0794 28.3475 41.0748C28.3231 40.9637 28.2918 40.8334 28.2521 40.6864C28.1071 40.1495 27.8501 39.3901 27.4041 38.5171C26.5138 36.7744 24.8669 34.5714 21.8348 32.7773L22.0824 32.359L21.8348 32.7773C18.6378 30.8856 15.6324 30.8748 13.8237 30.8684C13.3183 30.8666 12.9064 30.8651 12.6097 30.823ZM12.4957 30.754L12.4957 30.754C12.4957 30.754 12.4957 30.754 12.4957 30.754Z" fill="#1C00C6" stroke="white"/>
<circle cx="28.1667" cy="28.1667" r="22.6667" stroke="white"/>
</g>
<defs>
<clipPath id="clip0_476_115">
<rect width="57" height="57" fill="white"/>
</clipPath>
</defs>
</svg>