<svg width="1440" height="829" viewBox="0 0 1440 829" fill="none" xmlns="http://www.w3.org/2000/svg">
<g opacity="0.7" clip-path="url(#clip0_210_389)">
<path d="M1519.38 824.42C1519.32 824.815 1519.24 825.21 1519.17 825.612L1158.96 824.319L582.614 822.25L328.805 821.346L274.102 821.146L-89.9571 819.853C-89.9571 819.853 -91.7388 816.405 -94.6993 809.977C-96.2265 806.669 -98.0618 802.544 -100.131 797.703C-106.481 782.812 -114.988 760.976 -123.193 734.032C-128.879 715.377 -134.419 694.265 -139.014 671.285C-139.275 669.973 -139.543 668.62 -139.797 667.281C-141.231 659.882 -142.557 652.296 -143.763 644.535C-144.205 641.663 -144.633 638.736 -145.049 635.81C-145.598 631.9 -146.107 627.956 -146.576 623.959C-147.634 615.133 -148.505 606.127 -149.154 596.954C-151.15 568.959 -151.11 539.483 -148.029 509.318C-147.446 503.54 -146.743 497.715 -145.926 491.882C-143.086 471.688 -138.813 451.218 -132.825 430.729C-126.053 407.521 -117.064 384.26 -105.436 361.279C-90.071 330.887 -70.084 300.976 -44.5243 272.278C-0.685593 223.07 41.8604 189.952 82.5711 168.284C88.2309 165.264 93.8506 162.479 99.4301 159.894C159.578 132.079 215.434 128.443 265.133 133.392C268.147 133.686 271.141 134.014 274.102 134.376C279.105 134.979 284.048 135.668 288.918 136.411C292.193 136.914 295.442 137.449 298.657 137.998C353.849 147.527 399.871 163.945 433.683 161.528C510.114 156.064 542.867 10.3749 711.276 -72.5469C735.041 -84.2446 761.498 -94.6969 791.164 -103.328C801.231 -106.267 811.673 -108.986 822.511 -111.477C849.028 -117.563 877.153 -122.391 906.075 -125.712C915.908 -126.857 925.835 -127.808 935.815 -128.591C947.188 -129.482 958.642 -130.131 970.136 -130.533C992.782 -131.323 1015.56 -131.156 1038.09 -129.904C1071.06 -128.103 1103.53 -123.991 1134.4 -117.269C1142.71 -115.454 1150.9 -113.452 1158.95 -111.262C1296.93 -73.712 1394.46 21.1486 1342.35 204.736C1341.69 207.066 1341.01 209.41 1340.3 211.76C1332.35 238.189 1321.35 266.412 1306.97 296.53C1301.28 308.442 1295.06 320.662 1288.31 333.183C1163.55 564.104 1489.32 496.744 1522.36 723.332C1526.53 751.95 1526.04 785.236 1519.37 824.42H1519.38Z" fill="#FFF0F3"/>
<path d="M1246.33 289.669C1242.62 289.842 1238.96 289.085 1235.4 287.283C1218 278.496 1205.38 265.867 1195.22 252.719C1193.88 233.81 1197.58 209.962 1197.58 209.962C1195.24 215.982 1186.1 224.272 1179.43 229.749C1165.27 207.657 1154.48 189.939 1134.57 194.428C1097.65 202.753 1051.71 191.406 1038.78 153.647C1047.03 139.049 1061.86 129.586 1061.86 129.586C1051.01 130.643 1040.82 134.924 1033.21 139.037C1016.86 108.003 976.986 99.129 976.986 99.129C975.155 98.6148 973.376 98.0429 971.661 97.4074C971.765 74.9808 977.425 53.8251 977.425 53.8251C961.796 61.9766 954.483 75.1772 951.07 85.2813C923.542 61.0811 922.549 17.6663 925.362 0.404396C973.445 -1.28251 1022.19 2.0913 1067.01 11.8488C1074.18 13.4028 1081.23 15.1302 1088.18 17.0308C1207.16 49.4287 1291.26 131.267 1246.33 289.663V289.669Z" fill="#FFF7FC"/>
<path d="M157.278 443.917H91.9707V801.276H157.278V443.917Z" fill="#FFB6C3"/>
<path d="M633.291 705.492H492.118V404.742H444.41V622.677H409.68V404.742H361.972V622.677H289.492V547.529H194.075V801.282H266.556H289.492H361.972H409.68H444.41H452.08H488.456H492.118H633.291H673.981H698.603V443.917H633.291V705.492Z" fill="#FFB6C3"/>
<path d="M1033.44 705.492V404.742H976.986V622.677H951.001V530.637H903.292V622.677H830.812V547.529H735.396V801.282H807.876H830.812H903.292H951.001H976.986H993.401H1029.78H1033.44H1215.3V705.492H1033.44Z" fill="#FFB6C3"/>
<path d="M317.423 228.432V535.045L159.998 258.536C164.879 255.931 169.725 253.527 174.536 251.297C226.402 227.299 274.567 224.162 317.423 228.432Z" fill="#FFF7F9"/>
<path d="M417.218 247.664L727.286 795.366H579.125L361.978 404.748L365.143 236.005L417.218 247.664Z" fill="url(#paint0_linear_210_389)"/>
<path d="M1398.97 824.633H1278.48V698.034H1377.03L1401.54 737.416C1405.14 762.107 1404.72 790.825 1398.97 824.633Z" fill="#FFEDF0"/>
<path d="M1061.7 328.312V521.601L765.06 24.1944C773.741 21.6583 782.751 19.3128 792.091 17.1637C814.957 11.9123 839.21 7.74707 864.15 4.88164L1061.71 328.317L1061.7 328.312Z" fill="#FFF7F9"/>
<path d="M289.648 741.781C286.393 790.321 237.564 812.059 237.564 812.059H-86.3828C-88.1374 808.248 -90.246 803.514 -92.624 797.949C-120.097 733.445 -182.694 555.873 -130.194 376.099C-110.285 385.159 -85.0515 398.976 -61.2028 418.643C-82.3195 436.94 -98.2264 463.026 -98.2264 463.026C-72.7385 446.292 -51.9834 441.497 -37.4849 440.927C-19.0077 460.779 -3.07776 484.995 6.44173 514.199C43.8809 629.16 118.736 617.268 185.473 636.234C189.105 637.265 192.668 638.358 196.139 639.498C175.522 655.331 153.79 681.172 153.79 681.172C195.308 662.274 225.567 660.188 243.667 661.774C255.518 669.564 265.322 678.377 272.81 688.084C249.077 683.827 211.499 688.754 202.88 689.492C231.269 687.368 271.363 703.694 285.408 710.814C288.894 720.536 290.364 730.889 289.641 741.781H289.648Z" fill="#FFE9ED"/>
<path d="M1088.18 17.0424C1081.23 15.1417 1074.17 13.4202 1067 11.8604V801.281H346.331V232.106C339.441 230.916 332.383 229.847 325.157 228.969V801.281H2.45117C7.68983 813.564 12.1776 822.46 12.1776 822.46H372.328H1088.18V17.0424H1088.18Z" fill="#FFEDF0"/>
<path d="M1393.67 574.843C1393.67 574.843 1351.62 606.115 1343.43 604.22C1335.23 602.325 1374.16 570.459 1374.16 570.459C1359.51 563.416 1313.97 567.83 1313.97 567.83C1313.97 567.83 1298.8 616.75 1291.32 612.897C1283.85 609.038 1306.97 570.262 1306.97 570.262C1290.65 569.28 1270.64 581.395 1270.64 581.395C1243.25 603.036 1272.44 637.103 1272.44 637.103C1272.44 637.103 1266.82 653.943 1249.52 669.281C1249.52 669.281 1224.81 687.56 1223.1 720.212L1227.58 720.617C1227.58 720.617 1234.69 690.2 1247.61 675.815C1248.11 675.295 1248.84 674.55 1249.73 673.649C1251.85 671.696 1253.32 670.223 1254.31 669.137C1260.74 662.956 1269.63 655.093 1273.9 654.33C1273.9 654.33 1273.69 653.545 1273.72 652.176C1273.78 652.863 1273.84 653.574 1273.9 654.33C1275.37 671.546 1308.77 686.584 1329.31 689.68C1349.86 692.771 1343.51 684.325 1336.43 671.8C1329.35 659.276 1306.95 653.672 1301.84 647.9C1296.73 642.135 1307.29 642.118 1319.67 647.773C1332.05 653.429 1333.75 668.507 1353.61 678.016C1373.46 687.526 1403.34 654.567 1403.34 654.567C1387.52 653.764 1364.91 636.572 1365.73 631.314C1366.55 626.052 1404.1 640.39 1410.51 641.078C1416.93 641.765 1431.54 633.781 1433.8 607.923C1436.05 582.065 1393.68 574.849 1393.68 574.849L1393.67 574.843Z" fill="#DE2A4A"/>
<path d="M1170.36 594.26C1170.36 594.26 1216.81 568.246 1195.13 532.948C1195.13 532.948 1177.79 511.272 1159.21 505.698C1159.21 505.698 1169.12 558.344 1159.21 559.58C1149.31 560.817 1152.41 500.123 1152.41 500.123C1152.41 500.123 1103.48 476.587 1084.29 478.447C1084.29 478.447 1114.63 529.852 1104.73 528.615C1094.82 527.379 1060.76 475.351 1060.76 475.351C1060.76 475.351 1010.6 466.061 1002.55 495.79C994.5 525.519 1007.51 540.383 1014.94 542.243C1022.37 544.104 1070.05 543.48 1068.81 549.679C1067.57 555.872 1035.37 565.779 1017.41 560.21C1017.41 560.21 1037.23 609.136 1063.23 606.664C1089.24 604.185 1097.29 588.085 1113.39 586.842C1129.49 585.606 1141.25 589.939 1133.21 594.278C1125.15 598.61 1097.91 595.699 1084.91 606.756C1071.91 617.813 1061.38 624.625 1085.53 629.581C1109.68 634.538 1153.02 631.442 1161.69 612.857L1170.36 594.278V594.26Z" fill="#E43E5C"/>
<path d="M1182.75 639.472C1169.74 615.318 1170.36 594.26 1170.36 594.26C1155.5 547.189 1025.46 505.074 1025.46 505.074C1190.79 571.961 1161.69 612.839 1161.69 612.839C1166.15 615.439 1172.83 627.837 1177.47 637.346C1178.12 638.963 1179.17 641.205 1180.72 644.244C1181.35 645.619 1181.86 646.745 1182.2 647.531C1190.72 668.837 1186.21 705.625 1186.21 705.625L1191.36 707.012C1202.79 669.934 1182.74 639.478 1182.74 639.478L1182.75 639.472Z" fill="#EA5D76"/>
<path d="M1244.25 558.385C1244.25 558.385 1183.03 524.098 1211.6 477.557C1211.6 477.557 1234.45 448.984 1258.93 441.636C1258.93 441.636 1245.88 511.03 1258.93 512.665C1271.99 514.3 1267.92 434.287 1267.92 434.287C1267.92 434.287 1332.4 403.264 1357.7 405.714C1357.7 405.714 1317.7 473.473 1330.76 471.844C1343.82 470.209 1388.72 401.629 1388.72 401.629C1388.72 401.629 1454.83 389.382 1465.44 428.573C1476.05 467.759 1458.91 487.355 1449.11 489.805C1439.32 492.254 1376.47 491.44 1378.1 499.603C1379.74 507.766 1422.18 520.828 1445.85 513.479C1445.85 513.479 1419.73 577.975 1385.44 574.711C1351.16 571.447 1340.55 550.216 1319.33 548.587C1298.11 546.952 1282.6 552.671 1293.21 558.385C1303.82 564.098 1339.73 560.256 1356.87 574.832C1374.02 589.408 1387.89 598.391 1356.06 604.919C1324.22 611.453 1267.09 607.369 1255.67 582.874L1244.23 558.379L1244.25 558.385Z" fill="#EA5D76"/>
<path d="M1435.25 440.821C1435.25 440.821 1263.84 496.339 1244.25 558.385C1244.25 558.385 1245.06 586.143 1227.92 617.981C1227.92 617.981 1201.49 658.132 1216.56 707.006L1223.36 705.18C1223.36 705.18 1217.41 656.687 1228.63 628.605C1229.09 627.571 1229.76 626.086 1230.59 624.272C1232.63 620.263 1234.01 617.311 1234.88 615.179C1240.99 602.643 1249.8 586.305 1255.68 582.874C1255.68 582.874 1217.31 528.991 1435.25 440.815V440.821Z" fill="#DE2A4A"/>
<path d="M1242.18 812.992C1308.41 812.992 1362.1 759.294 1362.1 693.048H1122.27C1122.27 759.289 1175.96 812.992 1242.19 812.992H1242.18Z" fill="#7972D9"/>
<path d="M1271.69 812.074C1266.82 812.686 1261.85 812.992 1256.79 812.992C1190.57 812.992 1136.88 759.289 1136.88 693.048H1166.67C1166.67 754.245 1212.49 804.737 1271.69 812.074H1271.69Z" fill="#9D97F3"/>
<path d="M1348.96 804.298H1135.41C1127.23 804.298 1120.61 810.924 1120.61 819.093H1363.75C1363.75 810.918 1357.13 804.298 1348.96 804.298Z" fill="#7972D9"/>
<path d="M1364.83 693.048H1118.33V696.728H1364.83V693.048Z" fill="#CAC6FF"/>
<path d="M15.5133 674.815C15.5133 674.815 -50.1655 687.897 -58.583 681.22C-67.0206 674.533 -4.63436 659.064 -4.63436 659.064C-17.6835 642.91 -72.6793 623.07 -72.6793 623.07C-72.6793 623.07 -84.3591 635.78 -96.6128 646.999C-94.8004 658.661 -92.8068 670.072 -90.6521 681.21C-90.2695 683.224 -89.8667 685.238 -89.474 687.233C-82.5769 721.786 -74.2399 753.53 -65.6915 781.598C-43.9027 783.29 -16.9686 772.172 -16.9686 772.172C-34.8005 762.574 -51.4845 730.347 -47.6583 724.727C-43.8422 719.087 -8.32961 756.209 -1.29153 760.529C5.73649 764.83 26.9716 763.611 43.7462 734.979C60.5107 706.368 15.5234 674.825 15.5234 674.825L15.5133 674.815Z" fill="#DE2A4A"/>
<path d="M150.433 475.321C136.922 478.703 50.2332 477.578 52.4826 488.834C54.7392 500.098 113.288 518.119 145.927 507.98C145.927 507.98 109.907 596.938 62.6193 592.438C15.3314 587.931 0.702995 558.653 -28.5752 556.396C-57.8463 554.146 -79.2301 562.028 -64.6017 569.91C-49.9662 577.799 -0.421722 572.502 23.2115 592.602C46.859 612.709 65.9863 625.098 22.0868 634.104C-9.49064 640.576 -59.1134 639.494 -90.3563 625.802C-92.4776 596.026 -92.4349 564.691 -89.1604 532.616C-88.5411 526.464 -87.7936 520.276 -86.9252 514.075C-83.9069 492.594 -79.3654 470.835 -73.0015 449.048C-65.8047 424.363 -56.2518 399.635 -43.8941 375.199C-18.9724 365.936 8.34821 357.79 24.3363 359.335C24.3363 359.335 -30.8246 452.8 -12.8078 450.55C5.20186 448.293 67.1253 353.703 67.1253 353.703C67.1253 353.703 158.313 336.815 172.948 390.87C187.591 444.925 163.943 471.946 150.433 475.321Z" fill="#EA5D76"/>
<path d="M131.021 407.844C6.6898 458.183 -57.0915 500.404 -89.1602 532.608C-88.5409 526.457 -87.7934 520.269 -86.925 514.068C-12.3521 455.185 124.116 410.101 131.021 407.844Z" fill="#DE2A4A"/>
<path d="M224.797 718.242C224.86 718.236 224.959 718.224 225.08 718.219C224.982 718.224 224.895 718.236 224.797 718.242Z" fill="#F9F4F5"/>
<path d="M225.363 718.196C225.617 718.172 225.86 718.149 226.114 718.132C225.819 718.155 225.576 718.178 225.363 718.196Z" fill="#F9F4F5"/>
<path d="M1067.68 822.46H237.793C237.77 818.7 240.813 815.632 244.579 815.632H1060.85C1064.62 815.632 1067.68 818.688 1067.68 822.46Z" fill="#FFEDF0"/>
<path d="M817.146 536.552C828.126 479.313 789.74 460.283 787.984 446.459C786.217 432.634 785.039 401.426 762.08 379.641C739.797 358.497 767.769 269.108 689.305 277.884C692.452 275.451 695.831 274.822 695.831 274.822C689.784 274.683 686.266 276.907 684.522 278.525C683.656 278.658 682.784 278.796 681.9 278.952C681.9 278.952 664.861 269.53 641.354 285.428C617.84 301.327 615.49 348.705 620.792 369.185C626.083 389.653 595.661 406.141 592.329 421.456C588.996 436.759 602.54 442.062 587.824 456.199C573.101 470.33 548.496 494.466 555.427 528.915C557.766 540.539 565.91 570.256 587.442 595.744C585.871 599.378 584.479 606.259 589.216 616.103C591.664 621.187 592.606 625.109 592.756 628.085C597.388 624.924 602.852 619.962 603.805 613.723C603.805 613.723 609.616 624.838 608.443 634.942C607.843 640.136 616.373 653.914 633.048 651.158C636.485 650.592 736.978 633.324 755.276 625.19C755.391 625.762 755.53 626.305 755.692 626.819C760.376 641.401 770.946 634.907 773.81 632.799C781.954 626.819 778.183 619.766 792.05 615.895C798.306 614.15 802.326 601.724 803.729 595.929C833.636 559.337 814.715 549.141 817.135 536.552H817.146Z" fill="#282322"/>
<path d="M999.223 557.887C988.642 552.364 984.033 564.236 980.018 566.068C975.998 567.893 964.302 565.345 959.283 573.017C955.858 578.257 949.643 582.619 949.638 582.619C917.258 601.458 871.046 615.115 862.215 615.589C859.778 615.722 853.211 605.306 844.772 589.927C822.68 549.661 787.742 475.327 780.395 467.014C777.368 463.594 771.315 460.462 764.309 457.741C764.304 457.718 764.292 457.701 764.292 457.701C764.292 457.701 764.205 457.678 764.055 457.643C747.692 451.329 726.281 447.296 725.958 447.239C725.958 447.239 725.958 447.239 725.952 447.239C719.131 445.222 714.331 439.157 713.875 432.057C713.043 419.052 713.823 404.09 713.823 404.09L665.202 405.182C666.594 415.095 665.612 426.447 664.376 435.696C663.643 441.167 659.652 445.615 654.303 446.967C654.182 446.99 628.341 452.074 611.828 459.631C606.89 461.895 602.783 464.374 600.455 467.014C593.831 474.501 564.773 535.697 542.923 577.171V577.183C531.29 599.263 521.714 615.756 518.647 615.589C509.816 615.109 463.598 601.458 431.224 582.619C431.224 582.619 425.01 578.257 421.579 573.012C416.554 565.345 404.864 567.899 400.844 566.068C396.818 564.242 392.215 552.37 381.627 557.887C377.821 559.875 384.567 576.143 384.567 576.143C391.083 591.452 405.1 591.094 411.113 590.274C412.251 590.112 413.949 590.863 415.722 591.949C419.396 594.214 423.387 597.922 423.387 597.922C423.387 597.922 468.553 642.926 504.109 656.277C504.242 656.34 504.381 656.381 504.525 656.427C504.854 656.548 505.178 656.664 505.495 656.779C511.572 658.946 517.336 660.136 522.511 659.957C522.782 659.951 523.048 659.928 523.314 659.922C523.845 659.887 524.377 659.841 524.885 659.783C541.82 657.732 562.069 639.431 580.985 616.964C583.278 614.243 585.548 611.452 587.795 608.627C597.955 595.866 607.525 582.295 615.773 569.898C621.814 605.202 632.211 647.859 634.862 658.564C634.972 659.581 635.081 660.598 635.185 661.609C622.248 682.794 603.8 713.51 603.8 713.51C603.8 713.51 790.913 721.899 789.145 713.51C787.378 705.122 762.652 663.163 760.884 657.865C759.458 653.585 766.978 617.322 774.33 583.462C781.787 594.11 789.96 605.069 798.427 615.248C799.981 617.12 801.552 618.968 803.123 620.788C821.086 641.482 839.99 657.848 855.954 659.783C891.1 664.024 957.447 597.922 957.447 597.922L957.175 597.391L957.447 597.922C957.447 597.922 959.849 595.698 962.645 593.636C964.401 592.347 966.318 591.117 967.889 590.562C967.97 590.533 968.01 590.51 968.039 590.51H968.051C968.675 590.297 969.241 590.21 969.72 590.274C975.744 591.094 989.756 591.446 996.266 576.143C996.266 576.143 1003.01 559.875 999.206 557.887H999.223Z" fill="white"/>
<path d="M851.131 757.22C806.265 794.829 741.945 815.279 741.945 815.279C741.945 815.279 690.165 816.273 631.448 815.279C574.418 814.32 518.647 744.019 518.647 744.019C518.647 744.019 566.199 743.395 579.247 732.292C588.338 724.556 599.312 711.685 609.98 697.704C617.65 687.658 625.159 677.045 631.697 667.334C631.697 667.334 645.166 680.529 699.909 679.114C754.646 677.687 767.977 671.621 767.977 671.621C767.977 671.621 774.434 679.553 782.959 689.599C793.246 701.702 806.53 716.878 815.084 724.92C818.844 728.45 851.12 757.22 851.12 757.22H851.131Z" fill="#EB637B"/>
<path d="M658.958 301.188C658.958 301.188 682.94 277.439 711.085 301.824C711.085 301.824 694.318 298.294 658.958 301.188Z" fill="#EB637B"/>
<path d="M691.257 328.323C691.257 328.323 711.871 327.948 716.555 334.857C721.239 341.761 721.869 349.479 724.231 353.367C726.593 357.261 726.189 361.617 726.189 361.617C726.189 361.617 743.932 316.186 702.97 325.232C700.013 325.885 691.257 328.317 691.257 328.317V328.323Z" fill="#B5453C"/>
<path d="M435.678 606.842C435.897 606.773 436.122 606.704 436.348 606.646C436.226 606.686 436.001 606.767 435.678 606.842Z" fill="#8B3838"/>
<path d="M851.131 757.22C806.265 794.829 741.945 815.279 741.945 815.279C741.945 815.279 690.165 816.273 631.448 815.279C574.418 814.32 518.647 744.019 518.647 744.019C518.647 744.019 566.199 743.395 579.247 732.292C588.338 724.556 599.312 711.685 609.98 697.704C612.423 699.252 663.966 731.598 694.497 730.01C725.525 728.398 782.076 690.194 782.965 689.599C793.252 701.702 806.536 716.878 815.09 724.92C818.85 728.45 851.125 757.22 851.125 757.22H851.131Z" fill="#E43E5C"/>
<path d="M857.312 752.257C843.652 764.083 803.152 777.087 764.985 787.376C754.283 790.253 743.759 792.922 734.062 795.296C725.311 798.023 707.551 803.662 688.52 810.288C661.668 819.641 649.92 815.175 636.612 812.824C623.305 810.473 608.282 819.785 588.575 812.576C568.868 805.366 573.847 766.538 573.847 766.538C580.523 762.159 606.474 760.894 624.05 773.517C641.614 786.128 665.168 783.783 665.168 783.783C666.069 783.881 668.212 782.801 671.146 780.963C671.146 780.963 688.236 770.963 719.732 745.879C729.863 737.809 741.489 728.172 754.525 716.803C779.373 695.128 800.807 666.618 825.568 661.361C867.76 652.406 882.766 668.796 882.766 668.796C882.766 668.796 893.179 721.228 857.317 752.257H857.312Z" fill="white"/>
<path d="M764.991 787.376C754.288 790.253 743.765 792.922 734.067 795.296C725.317 798.023 707.556 803.662 688.525 810.288C661.673 819.641 649.925 815.175 636.618 812.824C623.31 810.473 608.287 819.786 588.58 812.576C568.873 805.366 573.852 766.538 573.852 766.538C580.529 762.159 606.479 760.894 624.055 773.517C641.619 786.128 665.173 783.783 665.173 783.783C666.074 783.881 668.217 782.801 671.151 780.963C671.151 780.963 688.242 770.963 719.737 745.879C725.727 757.624 737.798 774.32 760.907 785.175C762.397 785.874 763.76 786.608 764.997 787.376H764.991Z" fill="#E4EDF9"/>
<path d="M792.062 775.828C792.062 775.828 791.172 809.641 778.766 813.668C761.722 819.196 748.327 810.34 734.258 812.917C720.182 815.493 708.775 819.168 680.427 809.26C661.61 802.68 643.959 797.024 634.215 793.962C629.444 792.68 624.5 791.328 619.469 789.907C581.805 779.283 538.955 765.071 525.249 752.252C492.09 721.223 504.796 666.161 504.796 666.161C504.796 666.161 515.586 652.4 554.613 661.355C577.508 666.612 601.16 689.31 624.038 710.864C633.533 719.802 642.532 728.08 650.78 735.544C679.526 761.541 699.216 777.676 699.216 777.676L699.129 777.844C702.121 779.727 704.31 780.813 705.24 780.715C705.24 780.715 720.217 786.66 746.242 777.908C764.396 771.795 785.044 771.166 792.073 775.834L792.062 775.828Z" fill="white"/>
<path d="M665.884 415.673C665.884 415.673 675.483 437.932 691.257 436.609C707.036 435.286 713.517 415.176 713.517 415.176L665.878 415.673H665.884Z" fill="#A69FFF"/>
<path d="M649.827 388.775C649.827 388.775 642.307 373.067 637.681 354.794C634.383 341.743 637.582 292.268 687.312 295.775C687.312 295.775 701.711 296.156 715.804 304.262C727.009 310.709 743.557 325.186 729.394 369.179L725.958 383.945L649.833 388.775H649.827Z" fill="#282322"/>
<path d="M719.351 409.763C706.476 422.004 690.477 438.319 656.181 407.96C649.469 402.022 647.118 389.872 646.76 376.799C646.333 361.322 645.478 354.886 647.228 345.972C649.313 335.308 658.45 330.513 677.389 328.918C712.165 326.001 726.507 333.742 727.327 351.137C729.106 388.78 732.439 397.319 719.345 409.769L719.351 409.763Z" fill="white"/>
<path d="M665.884 313.84C645.922 314.279 635.509 363.743 644.779 361.617C654.049 359.491 672.376 336.365 672.376 336.365C670.828 348.289 657.145 359.329 657.145 359.329C678.336 351.38 687.612 328.317 687.612 328.317C687.612 328.317 685.845 313.401 665.889 313.846L665.884 313.84Z" fill="#282322"/>
<path d="M725.138 326.203C715.423 319.577 687.606 328.312 687.606 328.312C687.606 328.312 697.321 328.41 701.295 335.475C705.269 342.541 718.195 362.685 729.394 369.179C729.394 369.179 734.853 332.829 725.138 326.203Z" fill="#282322"/>
<path d="M698.014 652.834C696.426 652.834 695.132 655.173 695.132 658.062C695.132 660.95 696.42 663.29 698.014 663.29C699.609 663.29 700.897 660.95 700.897 658.062C700.897 655.173 699.609 652.834 698.014 652.834Z" fill="white"/>
<path d="M962.662 593.642C959.861 595.698 957.464 597.928 957.464 597.928C957.464 597.928 891.117 664.03 855.971 659.789C840.007 657.854 821.097 641.487 803.14 620.794C801.569 618.974 799.998 617.131 798.444 615.254L803.29 606.756L828.132 609.465C828.132 609.465 849.803 628.541 857.45 642.082C863.607 652.972 930.214 613.209 957.013 597.039C959.179 595.739 961.074 594.589 962.668 593.636L962.662 593.642Z" fill="white"/>
<path d="M996.283 576.143C989.774 591.452 975.762 591.094 969.738 590.274C969.258 590.21 968.698 590.302 968.068 590.51H968.057C968.057 590.51 967.988 590.539 967.907 590.562C967.907 590.562 964.886 583.052 982.548 578.194C1000.21 573.335 999.223 557.881 999.223 557.881C1003.03 559.869 996.283 576.137 996.283 576.137V576.143Z" fill="white"/>
<path d="M587.801 608.627C585.56 611.452 583.29 614.243 580.991 616.964C562.075 639.437 541.825 657.733 524.891 659.783C524.377 659.847 523.851 659.887 523.32 659.922C523.054 659.934 522.788 659.951 522.517 659.957C517.486 660.095 511.71 658.917 505.501 656.779C505.184 656.664 504.854 656.548 504.531 656.427C504.387 656.381 504.248 656.34 504.115 656.277C468.565 642.92 423.393 597.922 423.393 597.922C423.393 597.922 419.401 594.214 415.728 591.949C418.252 593.168 421.123 594.618 424.247 596.241C455.772 612.573 514.09 646.363 525.411 638.027C541.306 626.305 562.497 597.917 562.497 597.917L587.795 608.622L587.801 608.627Z" fill="white"/>
<path d="M415.728 591.955C413.955 590.869 412.257 590.118 411.119 590.279C405.106 591.1 391.088 591.452 384.573 576.149C384.573 576.149 377.827 559.88 381.633 557.893C381.633 557.893 382.656 574.109 394.433 577.183C405.921 580.193 415.283 591.423 415.734 591.96L415.728 591.955Z" fill="white"/>
<path d="M780.401 467.019C777.374 463.599 771.321 460.462 764.31 457.747C764.31 457.73 764.304 457.713 764.304 457.713C764.304 457.713 740.149 486.789 689.703 487.234C639.252 487.673 612.354 459.411 612.354 459.411L612.325 460.341L611.828 459.642C606.89 461.907 602.783 464.385 600.456 467.025C593.831 474.512 564.773 535.709 542.923 577.183V577.194C542.986 577.662 544.91 591.96 557.784 604.011V604.023C563.283 609.17 570.785 613.908 580.991 616.981C593.028 602.7 604.505 586.721 614.266 572.174C614.641 571.614 615.011 571.059 615.38 570.504L616.38 575.201L626.776 624.237C650.44 631.799 671.256 635.381 689.091 636.565C691.615 636.733 694.081 636.854 696.484 636.929H696.49C741.824 638.362 765.794 624.237 765.794 624.237C765.794 624.237 770.819 604.618 774.972 585.074C775.012 584.889 775.047 584.704 775.087 584.525C783.722 596.802 793.287 609.453 803.14 620.805C813.594 618.518 821.779 614.324 828.132 609.482C836.501 603.116 841.711 595.64 844.778 589.944C822.686 549.678 787.748 475.344 780.401 467.031V467.019Z" fill="#E43E5C"/>
<path d="M557.79 604V604.011C563.288 609.159 570.791 613.896 580.997 616.969C593.034 602.688 604.51 586.709 614.271 572.162C604.816 571.128 557.79 604.006 557.79 604.006V604Z" fill="#EB637B"/>
<path d="M774.972 584.346C783.635 596.675 793.241 609.384 803.14 620.788C813.595 618.5 821.779 614.306 828.132 609.465C828.132 609.465 785.391 584.115 774.972 584.346Z" fill="#EB637B"/>
<path d="M616.379 575.19L626.776 624.226C650.439 631.788 671.255 635.369 689.091 636.554C658.381 631.695 624.962 587.275 616.379 575.184V575.19Z" fill="#EB637B"/>
<path d="M696.49 636.918C741.824 638.35 765.794 624.225 765.794 624.225C765.794 624.225 770.819 604.606 774.971 585.063V584.346C774.971 584.346 733.819 634.399 696.496 636.918H696.49Z" fill="#EB637B"/>
<path d="M792.062 775.828C792.062 775.828 791.172 809.641 778.766 813.668C761.722 819.196 748.327 810.34 734.258 812.917C720.182 815.493 708.775 819.167 680.427 809.26C661.61 802.68 643.959 797.024 634.215 793.962C629.444 792.679 624.5 791.328 619.469 789.906C626.799 783.794 645.085 765.891 650.774 735.544C679.52 761.541 699.21 777.676 699.21 777.676L699.123 777.844C702.115 779.727 704.304 780.813 705.234 780.715C705.234 780.715 720.211 786.66 746.237 777.907C764.39 771.795 785.038 771.166 792.068 775.833L792.062 775.828Z" fill="#ECF4FF"/>
<path d="M-38.8225 822.46H1453.66C1454.86 822.46 1455.83 823.437 1455.83 824.638V826.828C1455.83 828.03 1454.86 829.006 1453.66 829.006H-38.8225C-40.0239 829.006 -41 828.03 -41 826.828V824.638C-41 823.437 -40.0239 822.46 -38.8225 822.46Z" fill="#420000"/>
<path d="M772.112 489.862C775 476.858 758.961 468.077 749.523 477.476C737.486 489.469 717.242 503.022 685.81 505.922C626.961 511.353 672.37 531.573 681.426 538.297C690.483 545.022 698.084 554.588 715.457 547.361C732.831 540.134 746.404 522.757 757.806 516.783C763.281 513.912 769.363 502.219 772.107 489.862H772.112Z" fill="#EB637B"/>
<rect x="-94" y="-40" width="1440" height="241" fill="url(#paint1_linear_210_389)"/>
</g>
<defs>
<linearGradient id="paint0_linear_210_389" x1="544.632" y1="236.005" x2="544.632" y2="795.366" gradientUnits="userSpaceOnUse">
<stop stop-color="#F7EAEC"/>
<stop offset="1" stop-color="#F8E8F1" stop-opacity="0"/>
</linearGradient>
<linearGradient id="paint1_linear_210_389" x1="626" y1="-40" x2="626" y2="177" gradientUnits="userSpaceOnUse">
<stop stop-color="white"/>
<stop offset="1" stop-color="white" stop-opacity="0"/>
</linearGradient>
<clipPath id="clip0_210_389">
<rect width="1522" height="829" fill="white" transform="translate(-41)"/>
</clipPath>
</defs>
</svg>
