<svg xmlns="http://www.w3.org/2000/svg" width="1440" height="889" viewBox="0 0 1440 889" fill="none">
<g clip-path="url(#clip0_602_3)">
<g opacity="0.7" clip-path="url(#clip1_602_3)">
<path d="M1551.38 887.42C1551.32 887.815 1551.24 888.21 1551.17 888.612L1190.96 887.319L614.614 885.25L360.805 884.346L306.102 884.146L-57.9571 882.853C-57.9571 882.853 -59.7388 879.405 -62.6993 872.977C-64.2265 869.669 -66.0618 865.544 -68.1315 860.703C-74.4812 845.812 -82.9877 823.976 -91.1928 797.032C-96.8795 778.377 -102.419 757.265 -107.014 734.285C-107.275 732.973 -107.543 731.62 -107.797 730.281C-109.231 722.882 -110.557 715.296 -111.763 707.535C-112.205 704.663 -112.633 701.736 -113.049 698.81C-113.598 694.9 -114.107 690.956 -114.576 686.959C-115.634 678.133 -116.505 669.127 -117.154 659.954C-119.15 631.959 -119.11 602.483 -116.029 572.318C-115.446 566.54 -114.743 560.715 -113.926 554.882C-111.086 534.688 -106.813 514.218 -100.825 493.729C-94.0529 470.521 -85.0641 447.26 -73.4363 424.279C-58.071 393.887 -38.084 363.976 -12.5243 335.278C31.3144 286.07 73.8604 252.952 114.571 231.284C120.231 228.264 125.851 225.479 131.43 222.894C191.578 195.079 247.434 191.443 297.133 196.392C300.147 196.686 303.141 197.014 306.102 197.376C311.105 197.979 316.048 198.668 320.918 199.411C324.193 199.914 327.442 200.449 330.657 200.998C385.849 210.527 431.871 226.945 465.683 224.528C542.114 219.064 574.867 73.3749 743.276 -9.5469C767.041 -21.2446 793.498 -31.6969 823.164 -40.3279C833.231 -43.2674 843.673 -45.9859 854.511 -48.4767C881.028 -54.5633 909.153 -59.391 938.075 -62.7122C947.908 -63.8572 957.835 -64.808 967.815 -65.5914C979.188 -66.482 990.642 -67.1315 1002.14 -67.5332C1024.78 -68.3233 1047.56 -68.1559 1070.09 -66.9038C1103.06 -65.1026 1135.53 -60.9914 1166.4 -54.2687C1174.71 -52.4541 1182.9 -50.452 1190.95 -48.2625C1328.93 -10.712 1426.46 84.1486 1374.35 267.736C1373.69 270.066 1373.01 272.41 1372.3 274.76C1364.35 301.189 1353.35 329.412 1338.97 359.53C1333.28 371.442 1327.06 383.662 1320.31 396.183C1195.55 627.104 1521.32 559.744 1554.36 786.332C1558.53 814.95 1558.04 848.236 1551.37 887.42H1551.38Z" fill="#FFF0F3"/>
<path d="M1278.33 349.669C1274.62 349.842 1270.96 349.085 1267.4 347.283C1250 338.496 1237.38 325.867 1227.22 312.719C1225.88 293.81 1229.58 269.962 1229.58 269.962C1227.24 275.982 1218.1 284.272 1211.43 289.749C1197.27 267.657 1186.48 249.939 1166.57 254.428C1129.65 262.753 1083.71 251.406 1070.78 213.647C1079.03 199.049 1093.86 189.586 1093.86 189.586C1083.01 190.643 1072.82 194.924 1065.21 199.037C1048.86 168.003 1008.99 159.129 1008.99 159.129C1007.15 158.615 1005.38 158.043 1003.66 157.407C1003.76 134.981 1009.42 113.825 1009.42 113.825C993.796 121.977 986.483 135.177 983.07 145.281C955.542 121.081 954.549 77.6663 957.362 60.4044C1005.45 58.7175 1054.19 62.0913 1099.01 71.8488C1106.18 73.4028 1113.23 75.1302 1120.18 77.0308C1239.16 109.429 1323.26 191.267 1278.33 349.663V349.669Z" fill="#FFF7FC"/>
<path d="M189.278 503.917H123.971V861.276H189.278V503.917Z" fill="#FFB6C3"/>
<path d="M665.291 765.492H524.118V464.742H476.41V682.677H441.68V464.742H393.972V682.677H321.492V607.529H226.075V861.282H298.556H321.492H393.972H441.68H476.41H484.08H520.456H524.118H665.291H705.981H730.603V503.917H665.291V765.492Z" fill="#FFB6C3"/>
<path d="M1065.44 765.492V464.742H1008.99V682.677H983.001V590.637H935.292V682.677H862.812V607.529H767.396V861.282H839.876H862.812H935.292H983.001H1008.99H1025.4H1061.78H1065.44H1247.3V765.492H1065.44Z" fill="#FFB6C3"/>
<path d="M349.423 288.432V595.045L191.998 318.536C196.879 315.931 201.725 313.527 206.536 311.297C258.402 287.299 306.567 284.162 349.423 288.432Z" fill="#FFF7F9"/>
<path d="M449.218 307.664L759.286 855.366H611.125L393.978 464.748L397.143 296.005L449.218 307.664Z" fill="url(#paint0_linear_602_3)"/>
<path d="M1430.97 884.633H1310.48V758.034H1409.03L1433.54 797.416C1437.14 822.107 1436.72 850.825 1430.97 884.633Z" fill="#FFEDF0"/>
<path d="M1093.7 388.312V581.601L797.06 84.1944C805.741 81.6583 814.751 79.3128 824.091 77.1637C846.957 71.9123 871.21 67.7471 896.15 64.8816L1093.71 388.317L1093.7 388.312Z" fill="#FFF7F9"/>
<path d="M321.648 801.781C318.393 850.321 269.564 872.059 269.564 872.059H-54.3828C-56.1374 868.248 -58.246 863.514 -60.624 857.949C-88.0973 793.445 -150.694 615.873 -98.194 436.099C-78.2854 445.159 -53.0515 458.976 -29.2028 478.643C-50.3195 496.94 -66.2264 523.026 -66.2264 523.026C-40.7385 506.292 -19.9834 501.497 -5.48486 500.927C12.9923 520.779 28.9222 544.995 38.4417 574.199C75.8809 689.16 150.736 677.268 217.473 696.234C221.105 697.265 224.668 698.358 228.139 699.498C207.522 715.331 185.79 741.172 185.79 741.172C227.308 722.274 257.567 720.188 275.667 721.774C287.518 729.564 297.322 738.377 304.81 748.084C281.077 743.827 243.499 748.754 234.88 749.492C263.269 747.368 303.363 763.694 317.408 770.814C320.894 780.536 322.364 790.889 321.641 801.781H321.648Z" fill="#FFE9ED"/>
<path d="M1120.18 77.0424C1113.23 75.1417 1106.17 73.4202 1099 71.8604V861.281H378.331V292.106C371.441 290.916 364.383 289.847 357.157 288.969V861.281H34.4512C39.6898 873.564 44.1776 882.46 44.1776 882.46H404.328H1120.18V77.0424H1120.18Z" fill="#FFEDF0"/>
<path d="M1425.67 637.843C1425.67 637.843 1383.62 669.115 1375.43 667.22C1367.23 665.325 1406.16 633.459 1406.16 633.459C1391.51 626.416 1345.97 630.83 1345.97 630.83C1345.97 630.83 1330.8 679.75 1323.32 675.897C1315.85 672.038 1338.97 633.262 1338.97 633.262C1322.65 632.28 1302.64 644.395 1302.64 644.395C1275.25 666.036 1304.44 700.103 1304.44 700.103C1304.44 700.103 1298.82 716.943 1281.52 732.281C1281.52 732.281 1256.81 750.56 1255.1 783.212L1259.58 783.617C1259.58 783.617 1266.69 753.2 1279.61 738.815C1280.11 738.295 1280.84 737.55 1281.73 736.649C1283.85 734.696 1285.32 733.223 1286.31 732.137C1292.74 725.956 1301.63 718.093 1305.9 717.33C1305.9 717.33 1305.69 716.545 1305.72 715.176C1305.78 715.863 1305.84 716.574 1305.9 717.33C1307.37 734.546 1340.77 749.584 1361.31 752.68C1381.86 755.771 1375.51 747.325 1368.43 734.8C1361.35 722.276 1338.95 716.672 1333.84 710.9C1328.73 705.135 1339.29 705.118 1351.67 710.773C1364.05 716.429 1365.75 731.507 1385.61 741.016C1405.46 750.526 1435.34 717.567 1435.34 717.567C1419.52 716.764 1396.91 699.572 1397.73 694.314C1398.55 689.052 1436.1 703.39 1442.51 704.078C1448.93 704.765 1463.54 696.781 1465.8 670.923C1468.05 645.065 1425.68 637.849 1425.68 637.849L1425.67 637.843Z" fill="#DE2A4A"/>
<path d="M1202.36 657.26C1202.36 657.26 1248.81 631.246 1227.13 595.948C1227.13 595.948 1209.79 574.272 1191.21 568.698C1191.21 568.698 1201.12 621.344 1191.21 622.58C1181.31 623.817 1184.41 563.123 1184.41 563.123C1184.41 563.123 1135.48 539.587 1116.29 541.447C1116.29 541.447 1146.63 592.852 1136.73 591.615C1126.82 590.379 1092.76 538.351 1092.76 538.351C1092.76 538.351 1042.6 529.061 1034.55 558.79C1026.5 588.519 1039.51 603.383 1046.94 605.243C1054.37 607.104 1102.05 606.48 1100.81 612.679C1099.57 618.872 1067.37 628.779 1049.41 623.21C1049.41 623.21 1069.23 672.136 1095.23 669.664C1121.24 667.185 1129.29 651.085 1145.39 649.842C1161.49 648.606 1173.25 652.939 1165.21 657.278C1157.15 661.61 1129.91 658.699 1116.91 669.756C1103.91 680.813 1093.38 687.625 1117.53 692.581C1141.68 697.538 1185.02 694.442 1193.69 675.857L1202.36 657.278V657.26Z" fill="#E43E5C"/>
<path d="M1214.75 702.472C1201.74 678.318 1202.36 657.26 1202.36 657.26C1187.5 610.189 1057.46 568.074 1057.46 568.074C1222.79 634.961 1193.69 675.839 1193.69 675.839C1198.15 678.439 1204.83 690.837 1209.47 700.346C1210.12 701.963 1211.17 704.205 1212.72 707.244C1213.35 708.619 1213.86 709.745 1214.2 710.531C1222.72 731.837 1218.21 768.625 1218.21 768.625L1223.36 770.012C1234.79 732.934 1214.74 702.478 1214.74 702.478L1214.75 702.472Z" fill="#EA5D76"/>
<path d="M1276.25 621.385C1276.25 621.385 1215.03 587.098 1243.6 540.557C1243.6 540.557 1266.45 511.984 1290.93 504.636C1290.93 504.636 1277.88 574.03 1290.93 575.665C1303.99 577.3 1299.92 497.287 1299.92 497.287C1299.92 497.287 1364.4 466.264 1389.7 468.714C1389.7 468.714 1349.7 536.473 1362.76 534.844C1375.82 533.209 1420.72 464.629 1420.72 464.629C1420.72 464.629 1486.83 452.382 1497.44 491.573C1508.05 530.759 1490.91 550.355 1481.11 552.805C1471.32 555.254 1408.47 554.44 1410.1 562.603C1411.74 570.766 1454.18 583.828 1477.85 576.479C1477.85 576.479 1451.73 640.975 1417.44 637.711C1383.16 634.447 1372.55 613.216 1351.33 611.587C1330.11 609.952 1314.6 615.671 1325.21 621.385C1335.82 627.098 1371.73 623.256 1388.87 637.832C1406.02 652.408 1419.89 661.391 1388.06 667.919C1356.22 674.453 1299.09 670.369 1287.67 645.874L1276.23 621.379L1276.25 621.385Z" fill="#EA5D76"/>
<path d="M1467.25 503.821C1467.25 503.821 1295.84 559.339 1276.25 621.385C1276.25 621.385 1277.06 649.143 1259.92 680.981C1259.92 680.981 1233.49 721.132 1248.56 770.006L1255.36 768.18C1255.36 768.18 1249.41 719.687 1260.63 691.605C1261.09 690.571 1261.76 689.086 1262.59 687.272C1264.63 683.263 1266.01 680.311 1266.88 678.179C1272.99 665.643 1281.8 649.305 1287.68 645.874C1287.68 645.874 1249.31 591.991 1467.25 503.815V503.821Z" fill="#DE2A4A"/>
<path d="M1274.18 875.992C1340.41 875.992 1394.1 822.294 1394.1 756.048H1154.27C1154.27 822.289 1207.96 875.992 1274.19 875.992H1274.18Z" fill="#7972D9"/>
<path d="M1303.69 875.074C1298.82 875.686 1293.85 875.992 1288.79 875.992C1222.57 875.992 1168.88 822.289 1168.88 756.048H1198.67C1198.67 817.245 1244.49 867.737 1303.69 875.074H1303.69Z" fill="#9D97F3"/>
<path d="M1380.96 867.298H1167.41C1159.23 867.298 1152.61 873.924 1152.61 882.093H1395.75C1395.75 873.918 1389.13 867.298 1380.96 867.298Z" fill="#7972D9"/>
<path d="M1396.83 756.048H1150.33V759.728H1396.83V756.048Z" fill="#CAC6FF"/>
<path d="M47.5133 734.815C47.5133 734.815 -18.1655 747.897 -26.583 741.22C-35.0206 734.533 27.3656 719.064 27.3656 719.064C14.3165 702.91 -40.6793 683.07 -40.6793 683.07C-40.6793 683.07 -52.3591 695.78 -64.6128 706.999C-62.8004 718.661 -60.8068 730.072 -58.6521 741.21C-58.2695 743.224 -57.8667 745.238 -57.474 747.233C-50.5769 781.786 -42.2399 813.53 -33.6915 841.598C-11.9027 843.29 15.0314 832.172 15.0314 832.172C-2.80046 822.574 -19.4845 790.347 -15.6583 784.727C-11.8422 779.087 23.6704 816.209 30.7085 820.529C37.7365 824.83 58.9716 823.611 75.7462 794.979C92.5107 766.368 47.5234 734.825 47.5234 734.825L47.5133 734.815Z" fill="#DE2A4A"/>
<path d="M182.433 535.321C168.922 538.703 82.2332 537.578 84.4826 548.834C86.7392 560.098 145.288 578.119 177.927 567.98C177.927 567.98 141.907 656.938 94.6193 652.438C47.3314 647.931 32.703 618.653 3.4248 616.396C-25.8463 614.146 -47.2301 622.028 -32.6017 629.91C-17.9662 637.799 31.5783 632.502 55.2115 652.602C78.859 672.709 97.9863 685.098 54.0868 694.104C22.5094 700.576 -27.1134 699.494 -58.3563 685.802C-60.4776 656.026 -60.4349 624.691 -57.1604 592.616C-56.5411 586.464 -55.7936 580.276 -54.9252 574.075C-51.9069 552.594 -47.3654 530.835 -41.0015 509.048C-33.8047 484.363 -24.2518 459.635 -11.8941 435.199C13.0276 425.936 40.3482 417.79 56.3363 419.335C56.3363 419.335 1.17537 512.8 19.1922 510.55C37.2019 508.293 99.1253 413.703 99.1253 413.703C99.1253 413.703 190.313 396.815 204.948 450.87C219.591 504.925 195.943 531.946 182.433 535.321Z" fill="#EA5D76"/>
<path d="M163.021 467.844C38.6898 518.183 -25.0915 560.404 -57.1602 592.608C-56.5409 586.457 -55.7934 580.269 -54.925 574.068C19.6479 515.185 156.116 470.101 163.021 467.844Z" fill="#DE2A4A"/>
<path d="M256.797 778.242C256.86 778.236 256.959 778.224 257.08 778.219C256.982 778.224 256.895 778.236 256.797 778.242Z" fill="#F9F4F5"/>
<path d="M257.363 778.196C257.617 778.172 257.86 778.149 258.114 778.132C257.819 778.155 257.576 778.178 257.363 778.196Z" fill="#F9F4F5"/>
<path d="M1099.68 882.46H269.793C269.77 878.7 272.813 875.632 276.579 875.632H1092.85C1096.62 875.632 1099.68 878.688 1099.68 882.46Z" fill="#FFEDF0"/>
<path d="M849.146 596.552C860.126 539.313 821.74 520.283 819.984 506.459C818.217 492.634 817.039 461.426 794.08 439.641C771.797 418.497 799.769 329.108 721.305 337.884C724.452 335.451 727.831 334.822 727.831 334.822C721.784 334.683 718.266 336.907 716.522 338.525C715.656 338.658 714.784 338.796 713.9 338.952C713.9 338.952 696.861 329.53 673.354 345.428C649.84 361.327 647.49 408.705 652.792 429.185C658.083 449.653 627.661 466.141 624.329 481.456C620.996 496.759 634.54 502.062 619.824 516.199C605.101 530.33 580.496 554.466 587.427 588.915C589.766 600.539 597.91 630.256 619.442 655.744C617.871 659.378 616.479 666.259 621.216 676.103C623.664 681.187 624.606 685.109 624.756 688.085C629.388 684.924 634.852 679.962 635.805 673.723C635.805 673.723 641.616 684.838 640.443 694.942C639.843 700.136 648.373 713.914 665.048 711.158C668.485 710.592 768.978 693.324 787.276 685.19C787.391 685.762 787.53 686.305 787.692 686.819C792.376 701.401 802.946 694.907 805.81 692.799C813.954 686.819 810.183 679.766 824.05 675.895C830.306 674.15 834.326 661.724 835.729 655.929C865.636 619.337 846.715 609.141 849.135 596.552H849.146Z" fill="#282322"/>
<path d="M1031.22 617.887C1020.64 612.364 1016.03 624.236 1012.02 626.068C1008 627.893 996.302 625.345 991.283 633.017C987.858 638.257 981.643 642.619 981.638 642.619C949.258 661.458 903.046 675.115 894.215 675.589C891.778 675.722 885.211 665.306 876.772 649.927C854.68 609.661 819.742 535.327 812.395 527.014C809.368 523.594 803.315 520.462 796.309 517.741C796.304 517.718 796.292 517.701 796.292 517.701C796.292 517.701 796.205 517.678 796.055 517.643C779.692 511.329 758.281 507.296 757.958 507.239C757.958 507.239 757.958 507.239 757.952 507.239C751.131 505.222 746.331 499.157 745.875 492.057C745.043 479.052 745.823 464.09 745.823 464.09L697.202 465.182C698.594 475.095 697.612 486.447 696.376 495.696C695.643 501.167 691.652 505.615 686.303 506.967C686.182 506.99 660.341 512.074 643.828 519.631C638.89 521.895 634.783 524.374 632.455 527.014C625.831 534.501 596.773 595.697 574.923 637.171V637.183C563.29 659.263 553.714 675.756 550.647 675.589C541.816 675.109 495.598 661.458 463.224 642.619C463.224 642.619 457.01 638.257 453.579 633.012C448.554 625.345 436.864 627.899 432.844 626.068C428.818 624.242 424.215 612.37 413.627 617.887C409.821 619.875 416.567 636.143 416.567 636.143C423.083 651.452 437.1 651.094 443.113 650.274C444.251 650.112 445.949 650.863 447.722 651.949C451.396 654.214 455.387 657.922 455.387 657.922C455.387 657.922 500.553 702.926 536.109 716.277C536.242 716.34 536.381 716.381 536.525 716.427C536.854 716.548 537.178 716.664 537.495 716.779C543.572 718.946 549.336 720.136 554.511 719.957C554.782 719.951 555.048 719.928 555.314 719.922C555.845 719.887 556.377 719.841 556.885 719.783C573.82 717.732 594.069 699.431 612.985 676.964C615.278 674.243 617.548 671.452 619.795 668.627C629.955 655.866 639.525 642.295 647.773 629.898C653.814 665.202 664.211 707.859 666.862 718.564C666.972 719.581 667.081 720.598 667.185 721.609C654.248 742.794 635.8 773.51 635.8 773.51C635.8 773.51 822.913 781.899 821.145 773.51C819.378 765.122 794.652 723.163 792.884 717.865C791.458 713.585 798.978 677.322 806.33 643.462C813.787 654.11 821.96 665.069 830.427 675.248C831.981 677.12 833.552 678.968 835.123 680.788C853.086 701.482 871.99 717.848 887.954 719.783C923.1 724.024 989.447 657.922 989.447 657.922L989.175 657.391L989.447 657.922C989.447 657.922 991.849 655.698 994.645 653.636C996.401 652.347 998.318 651.117 999.889 650.562C999.97 650.533 1000.01 650.51 1000.04 650.51H1000.05C1000.67 650.297 1001.24 650.21 1001.72 650.274C1007.74 651.094 1021.76 651.446 1028.27 636.143C1028.27 636.143 1035.01 619.875 1031.21 617.887H1031.22Z" fill="white"/>
<path d="M883.131 817.22C838.265 854.829 773.945 875.279 773.945 875.279C773.945 875.279 722.165 876.273 663.448 875.279C606.418 874.32 550.647 804.019 550.647 804.019C550.647 804.019 598.199 803.395 611.247 792.292C620.338 784.556 631.312 771.685 641.98 757.704C649.65 747.658 657.159 737.045 663.697 727.334C663.697 727.334 677.166 740.529 731.909 739.114C786.646 737.687 799.977 731.621 799.977 731.621C799.977 731.621 806.434 739.553 814.959 749.599C825.246 761.702 838.53 776.878 847.084 784.92C850.844 788.45 883.12 817.22 883.12 817.22H883.131Z" fill="#EB637B"/>
<path d="M690.958 361.188C690.958 361.188 714.94 337.439 743.085 361.824C743.085 361.824 726.318 358.294 690.958 361.188Z" fill="#EB637B"/>
<path d="M723.257 388.323C723.257 388.323 743.871 387.948 748.555 394.857C753.239 401.761 753.869 409.479 756.231 413.367C758.593 417.261 758.189 421.617 758.189 421.617C758.189 421.617 775.932 376.186 734.97 385.232C732.013 385.885 723.257 388.317 723.257 388.317V388.323Z" fill="#B5453C"/>
<path d="M467.678 666.842C467.897 666.773 468.122 666.704 468.348 666.646C468.226 666.686 468.001 666.767 467.678 666.842Z" fill="#8B3838"/>
<path d="M883.131 817.22C838.265 854.829 773.945 875.279 773.945 875.279C773.945 875.279 722.165 876.273 663.448 875.279C606.418 874.32 550.647 804.019 550.647 804.019C550.647 804.019 598.199 803.395 611.247 792.292C620.338 784.556 631.312 771.685 641.98 757.704C644.423 759.252 695.966 791.598 726.497 790.01C757.525 788.398 814.076 750.194 814.965 749.599C825.252 761.702 838.536 776.878 847.09 784.92C850.85 788.45 883.125 817.22 883.125 817.22H883.131Z" fill="#E43E5C"/>
<path d="M889.312 812.257C875.652 824.083 835.152 837.087 796.985 847.376C786.283 850.253 775.759 852.922 766.062 855.296C757.311 858.023 739.551 863.662 720.52 870.288C693.668 879.641 681.92 875.175 668.612 872.824C655.305 870.473 640.282 879.785 620.575 872.576C600.868 865.366 605.847 826.538 605.847 826.538C612.523 822.159 638.474 820.894 656.05 833.517C673.614 846.128 697.168 843.783 697.168 843.783C698.069 843.881 700.212 842.801 703.146 840.963C703.146 840.963 720.236 830.963 751.732 805.879C761.863 797.809 773.489 788.172 786.525 776.803C811.373 755.128 832.807 726.618 857.568 721.361C899.76 712.406 914.766 728.796 914.766 728.796C914.766 728.796 925.179 781.228 889.317 812.257H889.312Z" fill="white"/>
<path d="M796.991 847.376C786.288 850.253 775.765 852.922 766.067 855.296C757.317 858.023 739.556 863.662 720.525 870.288C693.673 879.641 681.925 875.175 668.618 872.824C655.31 870.473 640.287 879.786 620.58 872.576C600.873 865.366 605.852 826.538 605.852 826.538C612.529 822.159 638.479 820.894 656.055 833.517C673.619 846.128 697.173 843.783 697.173 843.783C698.074 843.881 700.217 842.801 703.151 840.963C703.151 840.963 720.242 830.963 751.737 805.879C757.727 817.624 769.798 834.32 792.907 845.175C794.397 845.874 795.76 846.608 796.997 847.376H796.991Z" fill="#E4EDF9"/>
<path d="M824.062 835.828C824.062 835.828 823.172 869.641 810.766 873.668C793.722 879.196 780.327 870.34 766.258 872.917C752.182 875.493 740.775 879.168 712.427 869.26C693.61 862.68 675.959 857.024 666.215 853.962C661.444 852.68 656.5 851.328 651.469 849.907C613.805 839.283 570.955 825.071 557.249 812.252C524.09 781.223 536.796 726.161 536.796 726.161C536.796 726.161 547.586 712.4 586.613 721.355C609.508 726.612 633.16 749.31 656.038 770.864C665.533 779.802 674.532 788.08 682.78 795.544C711.526 821.541 731.216 837.676 731.216 837.676L731.129 837.844C734.121 839.727 736.31 840.813 737.24 840.715C737.24 840.715 752.217 846.66 778.242 837.908C796.396 831.795 817.044 831.166 824.073 835.834L824.062 835.828Z" fill="white"/>
<path d="M697.884 475.673C697.884 475.673 707.483 497.932 723.257 496.609C739.036 495.286 745.517 475.176 745.517 475.176L697.878 475.673H697.884Z" fill="#A69FFF"/>
<path d="M681.827 448.775C681.827 448.775 674.307 433.067 669.681 414.794C666.383 401.743 669.582 352.268 719.312 355.775C719.312 355.775 733.711 356.156 747.804 364.262C759.009 370.709 775.557 385.186 761.394 429.179L757.958 443.945L681.833 448.775H681.827Z" fill="#282322"/>
<path d="M751.351 469.763C738.476 482.004 722.477 498.319 688.181 467.96C681.469 462.022 679.118 449.872 678.76 436.799C678.333 421.322 677.478 414.886 679.228 405.972C681.313 395.308 690.45 390.513 709.389 388.918C744.165 386.001 758.507 393.742 759.327 411.137C761.106 448.78 764.439 457.319 751.345 469.769L751.351 469.763Z" fill="white"/>
<path d="M697.884 373.84C677.922 374.279 667.509 423.743 676.779 421.617C686.049 419.491 704.376 396.365 704.376 396.365C702.828 408.289 689.145 419.329 689.145 419.329C710.336 411.38 719.612 388.317 719.612 388.317C719.612 388.317 717.845 373.401 697.889 373.846L697.884 373.84Z" fill="#282322"/>
<path d="M757.138 386.203C747.423 379.577 719.606 388.312 719.606 388.312C719.606 388.312 729.321 388.41 733.295 395.475C737.269 402.541 750.195 422.685 761.394 429.179C761.394 429.179 766.853 392.829 757.138 386.203Z" fill="#282322"/>
<path d="M730.014 712.834C728.426 712.834 727.132 715.173 727.132 718.062C727.132 720.95 728.42 723.29 730.014 723.29C731.609 723.29 732.897 720.95 732.897 718.062C732.897 715.173 731.609 712.834 730.014 712.834Z" fill="white"/>
<path d="M994.662 653.642C991.861 655.698 989.464 657.928 989.464 657.928C989.464 657.928 923.117 724.03 887.971 719.789C872.007 717.854 853.097 701.487 835.14 680.794C833.569 678.974 831.998 677.131 830.444 675.254L835.29 666.756L860.132 669.465C860.132 669.465 881.803 688.541 889.45 702.082C895.607 712.972 962.214 673.209 989.013 657.039C991.179 655.739 993.074 654.589 994.668 653.636L994.662 653.642Z" fill="white"/>
<path d="M1028.28 636.143C1021.77 651.452 1007.76 651.094 1001.74 650.274C1001.26 650.21 1000.7 650.302 1000.07 650.51H1000.06C1000.06 650.51 999.988 650.539 999.907 650.562C999.907 650.562 996.886 643.052 1014.55 638.194C1032.21 633.335 1031.22 617.881 1031.22 617.881C1035.03 619.869 1028.28 636.137 1028.28 636.137V636.143Z" fill="white"/>
<path d="M619.801 668.627C617.56 671.452 615.29 674.243 612.991 676.964C594.075 699.437 573.825 717.733 556.891 719.783C556.377 719.847 555.851 719.887 555.32 719.922C555.054 719.934 554.788 719.951 554.517 719.957C549.486 720.095 543.71 718.917 537.501 716.779C537.184 716.664 536.854 716.548 536.531 716.427C536.387 716.381 536.248 716.34 536.115 716.277C500.565 702.92 455.393 657.922 455.393 657.922C455.393 657.922 451.401 654.214 447.728 651.949C450.252 653.168 453.123 654.618 456.247 656.241C487.772 672.573 546.09 706.363 557.411 698.027C573.306 686.305 594.497 657.917 594.497 657.917L619.795 668.622L619.801 668.627Z" fill="white"/>
<path d="M447.728 651.955C445.955 650.869 444.257 650.118 443.119 650.279C437.106 651.1 423.088 651.452 416.573 636.149C416.573 636.149 409.827 619.88 413.633 617.893C413.633 617.893 414.656 634.109 426.433 637.183C437.921 640.193 447.283 651.423 447.734 651.96L447.728 651.955Z" fill="white"/>
<path d="M812.401 527.019C809.374 523.599 803.321 520.462 796.31 517.747C796.31 517.73 796.304 517.713 796.304 517.713C796.304 517.713 772.149 546.789 721.703 547.234C671.252 547.673 644.354 519.411 644.354 519.411L644.325 520.341L643.828 519.642C638.89 521.907 634.783 524.385 632.456 527.025C625.831 534.512 596.773 595.709 574.923 637.183V637.194C574.986 637.662 576.91 651.96 589.784 664.011V664.023C595.283 669.17 602.785 673.908 612.991 676.981C625.028 662.7 636.505 646.721 646.266 632.174C646.641 631.614 647.011 631.059 647.38 630.504L648.38 635.201L658.776 684.237C682.44 691.799 703.256 695.381 721.091 696.565C723.615 696.733 726.081 696.854 728.484 696.929H728.49C773.824 698.362 797.794 684.237 797.794 684.237C797.794 684.237 802.819 664.618 806.972 645.074C807.012 644.889 807.047 644.704 807.087 644.525C815.722 656.802 825.287 669.453 835.14 680.805C845.594 678.518 853.779 674.324 860.132 669.482C868.501 663.116 873.711 655.64 876.778 649.944C854.686 609.678 819.748 535.344 812.401 527.031V527.019Z" fill="#E43E5C"/>
<path d="M589.79 664V664.011C595.288 669.159 602.791 673.896 612.997 676.969C625.034 662.688 636.51 646.709 646.271 632.162C636.816 631.128 589.79 664.006 589.79 664.006V664Z" fill="#EB637B"/>
<path d="M806.972 644.346C815.635 656.675 825.241 669.384 835.14 680.788C845.595 678.5 853.779 674.306 860.132 669.465C860.132 669.465 817.391 644.115 806.972 644.346Z" fill="#EB637B"/>
<path d="M648.379 635.19L658.776 684.226C682.439 691.788 703.255 695.369 721.091 696.554C690.381 691.695 656.962 647.275 648.379 635.184V635.19Z" fill="#EB637B"/>
<path d="M728.49 696.918C773.824 698.35 797.794 684.225 797.794 684.225C797.794 684.225 802.819 664.606 806.971 645.063V644.346C806.971 644.346 765.819 694.399 728.496 696.918H728.49Z" fill="#EB637B"/>
<path d="M824.062 835.828C824.062 835.828 823.172 869.641 810.766 873.668C793.722 879.196 780.327 870.34 766.258 872.917C752.182 875.493 740.775 879.167 712.427 869.26C693.61 862.68 675.959 857.024 666.215 853.962C661.444 852.679 656.5 851.328 651.469 849.906C658.799 843.794 677.085 825.891 682.774 795.544C711.52 821.541 731.21 837.676 731.21 837.676L731.123 837.844C734.115 839.727 736.304 840.813 737.234 840.715C737.234 840.715 752.211 846.66 778.237 837.907C796.39 831.795 817.038 831.166 824.068 835.833L824.062 835.828Z" fill="#ECF4FF"/>
<path d="M-6.82252 882.46H1485.66C1486.86 882.46 1487.83 883.437 1487.83 884.638V886.828C1487.83 888.03 1486.86 889.006 1485.66 889.006H-6.82252C-8.02389 889.006 -9 888.03 -9 886.828V884.638C-9 883.437 -8.02389 882.46 -6.82252 882.46Z" fill="#FFD0D9"/>
<path d="M804.112 549.862C807 536.858 790.961 528.077 781.523 537.476C769.486 549.469 749.242 563.022 717.81 565.922C658.961 571.353 704.37 591.573 713.426 598.297C722.483 605.022 730.084 614.588 747.457 607.361C764.831 600.134 778.404 582.757 789.806 576.783C795.281 573.912 801.363 562.219 804.107 549.862H804.112Z" fill="#EB637B"/>
<rect x="-62" y="20" width="1440" height="241" fill="url(#paint1_linear_602_3)"/>
</g>
</g>
<defs>
<linearGradient id="paint0_linear_602_3" x1="576.632" y1="296.005" x2="576.632" y2="855.366" gradientUnits="userSpaceOnUse">
<stop stop-color="#F7EAEC"/>
<stop offset="1" stop-color="#F8E8F1" stop-opacity="0"/>
</linearGradient>
<linearGradient id="paint1_linear_602_3" x1="658" y1="20" x2="658" y2="237" gradientUnits="userSpaceOnUse">
<stop stop-color="white"/>
<stop offset="1" stop-color="white" stop-opacity="0"/>
</linearGradient>
<clipPath id="clip0_602_3">
<rect width="1440" height="889" fill="white"/>
</clipPath>
<clipPath id="clip1_602_3">
<rect width="1522" height="829" fill="white" transform="translate(-9 60)"/>
</clipPath>
</defs>
</svg>