<svg width="436" height="308" viewBox="0 0 436 308" fill="none" xmlns="http://www.w3.org/2000/svg">
<g opacity="0.7">
<path d="M195.735 721.052C195.965 705.613 196.119 690.174 196.477 674.735C196.81 660.935 197.245 647.109 197.86 633.308C198.269 624.27 198.858 615.207 199.805 606.194C201.212 593.085 203.772 580.181 207.048 567.404C210.427 554.244 213.575 541.007 216.058 527.642C217.696 518.732 218.847 509.745 219.82 500.732C220.741 492.36 220.972 483.936 221.381 475.538C221.663 469.394 221.151 463.249 220.895 457.104C220.818 455.414 220.255 453.724 219.743 452.085C216.877 443.124 213.472 434.393 207.739 426.789C196.273 411.58 182.502 399.086 165.431 390.355C150.381 382.674 134.793 376.58 118.31 372.816C111.809 371.331 105.231 370.205 98.5508 369.77C96.5031 369.642 94.5067 369.258 92.4335 369.181C80.9158 368.797 69.6795 370.512 58.5457 373.354C54.1689 374.481 49.869 375.863 45.569 377.297C37.7369 379.96 30.7751 384.287 23.8132 388.64C15.7764 393.683 8.09787 399.291 -0.194927 403.951C-5.82584 407.1 -11.4056 410.377 -17.7275 412.118C-21.2852 413.091 -24.9453 413.321 -28.5542 413.782C-30.0899 413.987 -31.5744 413.629 -33.0078 413.219C-35.1833 412.579 -35.6697 410.607 -34.006 409.046C-33.3149 408.38 -32.4447 407.893 -31.6256 407.381C-28.0423 405.154 -24.587 402.798 -21.3108 400.136C-15.7567 395.604 -11.0728 390.304 -6.72166 384.594C7.07407 366.492 22.5847 350.004 40.1173 335.512C49.9458 327.396 60.5421 320.303 72.6742 315.874C79.764 313.288 86.905 310.907 94.3276 309.473C101.289 308.141 108.2 307.911 115.213 308.884C129.674 310.855 142.933 315.951 155.065 323.965C164.714 330.366 172.52 338.635 179.15 348.134C185.369 357.045 190.207 366.62 194.43 376.58C199.549 388.716 203.567 401.237 208.507 413.424C211.527 420.926 215.008 428.223 218.54 435.52C218.771 435.981 219.078 436.416 219.692 437.338C219.794 432.985 219.155 429.247 218.847 425.509C218.412 420.132 217.772 414.781 217.184 409.43C216.442 402.773 215.674 396.141 214.906 389.51C213.959 381.47 212.961 373.457 212.014 365.417C211.195 358.555 210.401 351.719 209.659 344.857C209.121 339.813 208.635 334.769 208.174 329.725C207.56 323.171 206.946 316.616 206.383 310.062C205.845 303.712 205.41 297.362 204.898 291.038C204.335 284.048 203.721 277.059 203.183 270.069C202.876 266.1 202.595 262.106 202.313 258.137C201.929 252.761 201.545 247.384 201.136 242.007C201.11 241.572 201.008 241.162 200.905 240.548C199.139 239.293 197.322 237.987 195.556 236.758C194.327 236.784 193.739 237.629 193.022 238.269C180.506 249.56 165.891 256.396 149.28 259.136C142.574 260.237 135.817 261.108 129.034 260.877C112.935 260.339 97.6805 256.627 83.808 248.152C76.539 243.697 70.5498 237.808 65.3796 231.074C59.3903 223.265 54.1433 214.995 50.3041 205.855C49.2547 203.371 48.4101 200.811 47.7958 198.199C47.463 196.817 47.463 195.408 47.5398 194.026C47.6422 192.285 48.0261 191.952 49.8946 191.619C50.2785 191.542 50.7136 191.722 51.0719 191.209C50.7648 190.8 50.4321 190.39 50.0993 189.98C40.8851 179.56 35.2798 167.296 32.0036 153.905C30.1352 146.249 29.137 138.491 28.5739 130.605C28.0364 123.155 28.1132 115.73 28.5739 108.305C29.2394 97.5767 28.4203 86.9768 25.1954 76.6585C24.837 75.4807 24.6323 74.3542 25.0674 73.074C26.5519 71.9218 28.0876 72.3571 29.4697 73.2788C30.9031 74.2262 32.234 75.3527 33.4882 76.5305C39.6566 82.2401 45.825 87.9753 51.9678 93.7618C57.957 99.4202 64.3558 104.515 71.6504 108.381C72.1367 108.638 72.5974 108.919 73.0837 109.124C73.2628 109.201 73.4932 109.175 73.7236 109.201C74.3122 108.177 73.9795 107.101 73.7747 106.077C73.2628 103.491 73.4164 100.931 73.7236 98.3448C74.3122 93.4289 74.9265 88.5386 75.8735 83.6739C76.9997 78.0411 78.5866 72.5619 80.7878 67.3132C85.9324 55.1002 91.0258 42.836 95.4282 30.3414C95.9912 28.7284 96.7079 27.141 97.4758 25.6047C98.1156 24.3758 98.8579 23.1468 99.7537 22.0714C102.8 18.4613 106.101 18.5893 108.789 22.4299C110.017 24.1965 111.092 26.0912 112.116 27.9603C114.727 32.6714 117.568 37.28 120.588 41.7351C123.787 46.4718 126.705 51.3877 129.188 56.5084C129.93 56.3804 130.135 55.8939 130.289 55.3818C134.896 41.4278 143.419 30.239 154.578 20.9193C158.392 17.7444 162.334 14.7232 166.275 11.7019C168.502 9.98649 170.857 8.47587 173.57 7.55414C176.82 6.45318 178.638 7.14448 180.225 10.1657C181.325 12.2908 181.863 14.5952 182.119 16.9763C182.323 18.999 182.579 21.0217 182.835 23.1724C184.371 22.942 185.292 22.0202 186.265 21.2777C189.132 19.1782 191.896 16.9251 194.763 14.8C195.889 13.9551 197.04 13.1357 198.269 12.4957C201.494 10.8314 204.284 11.4203 206.639 14.2111C207.458 15.184 208.174 16.285 208.891 17.3091C209.736 16.9507 210.171 16.3106 210.58 15.6961C214.496 10.1145 219.718 5.99232 225.297 2.22857C226.372 1.51167 227.499 0.871577 228.727 0.461918C231.44 -0.459815 233.232 -0.0501563 235.075 2.12616C235.561 2.68944 235.971 3.32953 236.38 3.96962C243.623 15.5425 249.587 27.7042 253.094 40.967C253.222 41.479 253.375 41.9911 253.529 42.452C254.578 42.6312 255.269 42.0167 256.037 41.6839C260.644 39.5844 265.328 37.6641 270.217 36.2559C278.023 34.0028 285.42 30.8023 292.766 27.4226C296.58 25.656 300.342 23.7869 304.309 22.3531C306.255 21.6618 308.225 21.2777 310.299 21.2521C312.96 21.2009 314.522 22.5067 315.469 24.8366C315.52 24.939 315.546 25.0415 315.571 25.1439C319.103 37.9713 325.374 49.7234 330.314 61.9876C331.031 63.7799 331.67 65.6233 332.413 67.4156C332.771 68.2861 332.873 69.2846 333.795 70.104C334.998 69.3871 336.175 68.6702 337.352 67.9789C342.216 65.1625 347.36 62.9605 352.582 60.861C360.081 57.8654 367.58 54.8186 375.054 51.7717C377.358 50.8244 379.687 49.9795 382.093 49.4418C386.904 48.3408 390.232 50.7476 390.565 55.6635C391.128 64.0615 391.716 72.4595 391.256 80.8831C390.513 93.7874 388.005 106.282 382.63 118.136C381.299 121.107 379.61 123.872 377.793 126.535C376.948 127.763 376.129 129.018 375.284 130.273C375.899 131.143 376.718 130.836 377.383 130.81C385.369 130.708 393.303 131.502 401.289 131.937C407.534 132.295 413.779 132.731 420.024 132.782C423.685 132.807 427.319 133.319 430.902 134.062C431.747 134.241 432.592 134.497 433.334 134.881C435.561 135.982 436.38 137.903 435.637 140.258C435.356 141.18 434.946 142.076 434.46 142.921C431.261 148.323 429.085 154.212 426.679 159.973C424.862 164.351 422.993 168.729 421.125 173.082C416.902 182.863 411.066 191.67 404.386 199.889C396.17 210.003 386.777 218.861 375.899 226.082C371.573 228.949 367.017 231.407 362.308 233.558C361.437 233.942 360.465 234.147 359.774 234.889C359.978 235.76 360.721 235.632 361.309 235.734C368.86 237.066 376.18 239.216 383.449 241.572C393.38 244.798 403.592 247.102 413.626 249.944C416.799 250.84 419.717 252.069 422.021 254.527C422.763 255.321 423.48 256.166 423.864 257.165C425.092 260.339 424.222 262.029 422.046 263.258C421.381 263.617 420.741 264.001 420.024 264.282C409.966 268.277 400.777 273.986 391.358 279.235C384.473 283.05 377.818 287.274 370.728 290.705C362.128 294.853 353.093 297.516 343.572 298.617C323.352 300.947 305.128 295.903 288.543 284.33C286.086 282.615 283.705 280.746 281.299 278.979C279.738 279.261 278.254 279.517 276.769 279.747C270.677 280.694 264.739 279.696 258.853 278.416C245.773 275.548 234.512 269.301 224.862 260.058C221.97 257.293 219.462 254.169 217.414 250.712C216.723 249.56 215.904 248.69 214.65 248.126C212.5 247.153 210.427 246.078 208.328 245.08C207.714 245.899 207.893 246.693 207.944 247.435C208.456 253.99 209.019 260.544 209.556 267.099C210.068 273.346 210.58 279.568 211.092 285.815C211.681 292.702 212.27 299.564 212.858 306.452C213.345 312.136 213.78 317.845 214.343 323.529C215.085 331.364 215.904 339.199 216.749 347.034C217.644 355.176 218.591 363.317 219.539 371.459C220.511 379.601 221.561 387.718 222.508 395.86C223.301 402.619 224.018 409.353 224.734 416.112C225.349 422.001 225.912 427.916 226.475 433.83C226.756 436.723 226.987 439.642 227.166 442.535C228.19 457.846 228.727 473.183 227.78 488.494C226.603 507.902 223.813 527.104 219.308 546.051C216.518 557.803 213.575 569.53 210.964 581.333C208.328 593.239 206.536 605.298 205.794 617.485C205.256 626.114 204.924 634.717 204.463 643.345C204.002 651.641 204.284 659.962 203.567 668.257C203.49 669.205 203.567 670.178 203.567 671.612C206.536 661.37 209.48 651.641 211.297 641.578C214.138 625.909 216.672 610.163 220.281 594.647C223.429 581.077 227.678 567.84 233.462 555.14C240.066 540.623 248.614 527.309 258.289 514.661C272.546 496.047 287.775 478.227 304.386 461.687C317.542 448.578 330.16 434.957 343.035 421.566C346.848 417.597 350.585 413.552 354.348 409.532C356.651 407.1 359.134 404.847 361.847 402.875C363.05 402.005 364.278 401.083 365.917 401.006C367.145 401.979 367.12 403.234 366.992 404.539C366.556 408.841 365.917 413.091 365.123 417.316C363.203 427.48 361.258 437.619 360.004 447.886C359.057 455.593 358.238 463.3 357.445 471.007C355.986 485.37 353.81 499.632 349.126 513.381C347.59 517.913 345.415 522.112 342.855 526.106C334.665 538.959 324.222 549.789 313.088 560.133C300.88 571.475 287.391 581.179 274.158 591.242C263.408 599.409 252.991 607.986 243.623 617.741C232.055 629.775 221.689 642.705 213.856 657.53C209.275 666.235 205.743 675.35 203.695 685.028C203.439 686.206 203.337 687.383 203.286 688.561C202.927 699.34 202.595 710.145 202.723 720.95H200.777C200.829 720.31 200.931 719.67 200.931 719.03C201.238 701.44 201.34 683.85 201.904 666.26C202.415 650.181 202.851 634.128 203.9 618.074C204.898 602.84 207.253 587.836 210.939 573.037C217.03 548.637 222.943 524.211 225.118 499.068C226.014 488.852 226.577 478.611 226.424 468.344C226.244 457.437 225.656 446.555 224.709 435.699C224.069 428.172 223.378 420.644 222.584 413.142C221.689 404.667 220.665 396.218 219.641 387.743C218.464 377.886 217.184 368.054 216.032 358.197C215.008 349.415 214.061 340.607 213.191 331.825C212.398 323.888 211.758 315.925 211.041 307.988C210.248 299.283 209.454 290.603 208.712 281.898C208.174 275.676 207.842 269.429 207.176 263.207C206.895 260.519 206.843 257.83 206.536 255.142C206.306 253.273 206.152 251.301 204.207 250.2C203.67 250.84 203.9 251.506 203.874 252.146C203.823 255.398 204.258 258.598 204.489 261.824C205.052 269.121 205.461 276.444 206.024 283.767C206.767 293.215 207.586 302.688 208.379 312.136C209.096 320.508 209.71 328.906 210.555 337.279C211.655 348.006 212.961 358.709 214.189 369.437C215.802 383.468 217.414 397.524 219.052 411.555C220.665 425.611 221.868 439.693 222.559 453.801C223.199 467.166 223.224 480.557 222.124 493.922C221.305 503.831 220.127 513.662 218.489 523.469C216.16 537.423 212.884 551.172 209.377 564.844C204.719 582.972 201.417 601.304 200.265 619.995C199.318 635.51 198.807 651.052 198.371 666.568C197.885 683.389 197.706 700.236 197.424 717.084C197.424 718.364 197.501 719.67 197.527 720.95H195.582L195.735 721.052ZM242.344 179.995C243.035 179.662 243.24 179.15 243.495 178.689C246.388 173.261 248.87 167.654 251.097 161.919C255.576 150.346 257.931 138.312 257.829 125.92C257.777 119.033 256.703 112.196 255.397 105.411C253.196 94.0178 249.741 83.085 244.059 72.8948C237.199 60.6306 229.188 49.1089 220.972 37.7665C215.981 30.8791 210.503 24.299 206.178 16.9251C205.794 16.285 205.333 15.6705 204.821 15.1328C203.106 13.3918 201.468 13.1101 199.267 14.2111C197.808 14.928 196.529 15.9265 195.274 16.9507C190.079 21.2009 184.627 25.0159 178.945 28.5748C173.826 31.7752 168.732 35.0525 163.716 38.381C152.019 46.1645 141.986 55.8171 133.667 67.0827C122.329 82.4193 115.495 99.5226 114.624 118.777C114.42 123.539 114.701 128.25 115.495 132.961C116.211 137.058 117.363 140.924 121.177 143.331C121.637 143.612 121.97 144.047 122.38 144.406C138.812 159.205 153.222 175.796 165.994 193.821C167.581 196.049 169.116 198.327 170.959 200.99C170.626 196.842 169.859 193.232 170.063 189.596C170.498 182.223 172.264 175.156 175.131 168.345C176.462 165.145 178.689 162.789 181.786 161.099C186.06 158.795 190.488 158.206 195.223 159.256C199.498 160.203 203.388 161.996 207.125 164.172C210.196 165.964 213.191 167.884 216.211 169.779C224.35 174.849 233.155 178.152 242.395 180.021L242.344 179.995ZM292.408 238.909C293.662 239.088 294.378 238.525 295.172 238.243C306.05 234.147 317.286 231.894 328.957 232.022C331.568 232.022 334.102 232.508 336.687 232.559C341.883 232.662 346.976 233.507 352.07 234.326C354.168 234.659 356.114 234.505 358.059 233.686C364.509 230.921 370.728 227.72 376.513 223.701C391.716 213.152 403.874 199.735 413.651 184.066C417.772 177.46 420.69 170.24 423.736 163.122C426.833 155.902 429.495 148.502 433.359 141.589C435.151 138.389 434.383 136.904 430.851 135.957C428.036 135.189 425.143 134.907 422.251 134.753C419.845 134.625 417.567 135.035 415.264 135.752C410.733 137.16 406.306 138.875 402.057 140.975C392.484 145.712 382.272 148.374 371.855 150.064C362.871 151.498 353.785 150.96 344.826 149.347C339.426 148.374 334 147.504 328.471 147.606C323.07 147.709 317.695 147.683 312.295 147.734C311.322 147.734 310.35 147.837 309.403 148.016C300.803 149.578 292.868 152.881 285.702 157.797C275.95 164.505 267.708 172.903 260.183 181.992C259.799 182.453 259.211 182.888 259.492 183.759C263.28 184.706 267.145 185.628 270.985 186.678C276.411 188.137 281.683 190.057 286.367 193.258C295.172 199.275 299.702 207.698 300.06 218.324C300.265 224.801 298.039 230.588 294.404 235.862C293.739 236.81 292.817 237.603 292.433 238.96L292.408 238.909ZM333.718 134.216C334.409 133.576 334.563 132.449 334.895 131.45C337.045 124.64 338.248 117.624 338.786 110.558C339.528 100.931 338.53 91.4062 335.612 82.1377C332.541 72.3571 328.932 62.8069 324.913 53.3848C321.048 44.3979 316.569 35.6414 314.215 26.0656C313.523 23.2492 311.757 22.5067 308.763 22.9932C304.54 23.7101 300.803 25.6303 297.015 27.4226C288.056 31.6728 278.945 35.4878 269.423 38.381C258.827 41.6327 248.973 46.4718 240.45 53.692C239.221 54.7161 237.916 55.6891 237.02 57.2509C238.632 59.9393 240.219 62.6277 241.857 65.2905C246.132 72.3059 249.945 79.5005 252.607 87.3353C256.677 99.241 258.904 111.505 259.646 124.025C260.158 132.782 258.878 141.436 256.83 149.962C254.655 159.026 251.174 167.603 247.053 175.924C246.337 177.358 245.389 178.689 245.031 180.609C249.152 181.531 253.196 182.427 257.214 183.323C276.871 157.797 302.39 141.692 333.718 134.267V134.216ZM365.174 403.797C364.125 403.49 363.587 404.079 362.999 404.514C360.823 406.101 358.724 407.817 356.881 409.788C352.658 414.269 348.461 418.775 344.238 423.23C334.793 433.164 325.476 443.227 315.853 452.982C303.49 465.502 291.179 478.073 279.815 491.515C276.129 495.893 272.341 500.195 268.937 504.778C260.619 516.044 254.322 528.41 249.357 541.494C247.488 546.435 245.825 551.428 244.724 556.6C242.907 565.228 241.294 573.908 239.093 582.459C235.971 594.57 233.104 606.757 227.959 618.202C224.069 626.856 219.974 635.434 215.981 644.036C213.063 650.284 210.068 656.505 208.405 663.239C208.277 663.777 207.79 664.314 208.379 664.852C214.727 651.129 221.049 637.431 227.422 623.784C232.592 612.697 238.812 602.226 245.978 592.317C251.43 584.738 257.88 578.056 265.174 572.244C274.184 565.049 284.345 559.877 294.839 555.243C309.684 548.663 323.685 540.572 335.919 529.741C340.833 525.389 344.698 520.319 347.002 514.046C350.355 504.88 352.198 495.381 353.81 485.831C355.397 476.486 355.858 466.987 357.035 457.59C357.777 451.701 358.238 445.787 359.185 439.949C360.618 431.142 362.41 422.385 363.997 413.577C364.586 410.326 365.149 407.049 365.225 403.746L365.174 403.797ZM26.5519 73.7397C26.4751 74.3286 26.3727 74.5334 26.4239 74.7382C26.6287 75.5832 26.859 76.4025 27.0894 77.2218C29.3929 85.3382 30.6983 93.6082 30.5191 102.083C30.4423 105.335 30.1096 108.535 30.0072 111.787C29.5465 125.075 30.2632 138.287 33.1554 151.319C35.7661 163.122 40.1429 174.183 47.3607 183.989C50.688 188.495 54.1689 192.95 58.5969 196.433C66.3522 202.552 75.5152 204.933 85.1389 205.291C95.4793 205.676 105.845 205.445 116.211 205.368C119.795 205.368 123.352 205.701 126.833 206.213C135.126 207.442 143.419 208.774 151.609 210.617C160.44 212.614 169.193 214.893 177.46 218.708C177.588 218.759 177.819 218.605 178.126 218.477C175.387 213.587 172.751 208.646 169.91 203.806C165.328 196.074 160.107 188.879 153.836 182.402C146.823 175.156 138.786 169.497 129.47 165.683C123.583 163.276 117.645 160.997 111.732 158.642C92.7663 151.088 75.6432 140.847 61.7707 125.459C54.8344 117.778 48.7172 109.687 44.622 100.163C43.5214 97.6023 42.2417 95.0932 40.9619 92.6096C38.2488 87.3097 34.9215 82.3937 31.4405 77.6058C30.2632 75.9672 28.9578 74.3542 26.5775 73.7397H26.5519ZM248.717 254.63C256.523 254.425 263.971 253.426 271.087 250.687C280.276 247.179 288.159 241.905 293.508 233.43C299.062 224.622 299.677 215.507 295.121 206.034C292.971 201.579 289.515 198.737 284.934 197.149C281.939 196.125 278.791 195.613 275.694 195.792C267.606 196.253 259.979 198.404 253.247 203.115C251.379 204.421 249.587 205.778 247.667 207.007C246.132 207.98 244.494 208.85 242.856 209.67C240.885 210.668 239.068 210.284 237.481 208.85C236.764 208.21 236.073 207.493 235.535 206.7C234.077 204.575 232.592 202.449 231.312 200.196C225.451 189.724 217.9 180.635 208.865 172.775C204.054 168.601 199.062 164.735 193.099 162.149C189.106 160.434 185.676 160.946 182.119 163.097C179.789 164.505 178.177 166.476 177.025 168.806C171.625 179.765 170.268 191.133 173.442 203.013C176.488 214.381 183.091 223.393 191.691 231.1C199.651 238.218 208.763 243.543 218.54 247.742C228.215 251.916 238.325 254.425 248.691 254.63H248.717ZM-33.2637 411.068C-31.6768 411.964 -29.962 412.144 -28.2471 411.964C-25.8923 411.708 -23.5376 411.401 -21.2085 411.017C-15.6031 410.044 -10.5609 407.612 -5.80024 404.591C2.72291 399.188 10.299 392.659 17.4401 385.541C25.4769 377.553 34.0512 370.128 42.9327 363.061C52.4029 355.508 62.7689 349.722 74.645 346.854C78.8426 345.856 83.0402 345.011 87.3145 344.422C93.3549 343.603 99.3954 343.551 105.385 344.166C113.652 344.985 121.663 347.136 129.418 350.183C153.094 359.503 172.418 374.711 188.364 394.298C200.419 409.071 210.299 425.253 218.259 442.561C218.387 442.843 218.592 443.099 218.771 443.406C219.334 442.458 218.899 441.69 218.643 440.871C217.9 438.618 216.723 436.544 215.725 434.393C212.449 427.25 208.968 420.183 206.101 412.835C201.673 401.493 197.783 389.945 193.15 378.68C188.133 366.441 181.991 354.894 173.877 344.371C168.144 336.92 161.438 330.596 153.657 325.424C141.909 317.615 129.034 312.673 115.034 310.727C108.354 309.806 101.673 309.857 95.0954 311.163C75.9503 314.978 58.6481 322.889 43.4446 335.205C25.221 349.952 9.35202 366.953 -5.0068 385.413C-8.18058 389.51 -11.2776 393.632 -15.1168 397.191C-19.8775 401.595 -24.9965 405.538 -30.6018 408.841C-31.5744 409.43 -32.803 409.788 -33.2637 411.043V411.068ZM263.152 255.628C265.149 259.341 267.939 262.336 270.677 265.383C278.049 273.628 286.034 281.104 295.684 286.711C311.246 295.749 327.934 299.103 345.722 296.594C355.397 295.212 364.56 292.088 373.134 287.402C378.996 284.202 384.754 280.771 390.59 277.519C400.009 272.271 409.172 266.587 419.257 262.618C419.743 262.413 420.229 262.157 420.69 261.901C422.789 260.672 423.096 259.52 421.816 257.395C420.664 255.475 418.975 254.169 416.876 253.426C410.81 251.25 404.565 251.429 398.345 252.325C393.457 253.017 388.645 254.246 383.807 255.244C377.281 256.576 370.652 257.395 364.125 258.752C357.419 260.16 350.713 260.647 343.905 260.442C341.857 260.391 339.835 260.314 337.788 259.981C330.083 258.752 322.661 256.601 315.443 253.682C307.841 250.636 300.137 247.922 292.049 246.488C288.159 245.796 284.473 245.899 280.89 248.178C275.95 251.327 270.524 253.452 264.791 254.681C264.279 254.783 263.741 254.937 263.152 255.68V255.628ZM193.278 235.504C192.996 235.017 192.945 234.787 192.792 234.659C189.08 231.535 185.599 228.13 182.554 224.341C181.939 223.572 181.248 222.856 180.327 222.497C175.95 220.705 171.625 218.938 166.736 218.81C160.312 218.657 154.092 219.783 147.898 221.217C139.528 223.163 131.338 226.005 122.738 227.029C116.954 227.72 111.169 227.925 105.359 226.952C94.4043 225.109 84.6782 220.474 75.5408 214.33C67.7343 209.081 60.6189 202.987 53.5803 196.765C52.3773 195.69 51.1999 194.589 49.613 193.821C49.1011 195.306 49.2803 196.663 49.613 198.02C50.0993 200.12 50.7648 202.168 51.5838 204.165C55.6535 214.022 61.2332 222.932 67.8623 231.228C73.6468 238.474 80.4295 244.593 88.6967 248.869C101.238 255.398 114.65 258.573 128.727 259.085C134.23 259.29 139.682 258.624 145.134 257.933C153.529 256.883 161.617 254.809 169.347 251.404C178.203 247.512 186.188 242.314 193.304 235.529L193.278 235.504ZM364.944 130.785C365.993 129.914 366.147 128.916 366.428 127.994C367.247 125.536 367.657 122.976 368.015 120.415C368.809 114.654 369.679 108.919 370.908 103.261C372.674 95.2212 375.643 87.6169 379.303 80.2686C383.065 72.7155 386.009 64.8808 387.775 56.6108C387.903 55.9707 388.107 55.3562 388.133 54.7161C388.21 52.7703 387.084 51.3877 385.164 51.1316C384.089 50.978 383.014 51.0292 381.965 51.3877C380.045 52.079 378.074 52.6678 376.18 53.436C367.887 56.7388 359.595 60.1185 351.302 63.4214C346.388 65.3673 341.55 67.4668 336.969 70.1296C335.97 70.7185 334.767 71.1025 334.23 72.6387C337.89 82.2145 340.501 92.3024 340.731 102.851C340.961 113.323 338.965 123.513 335.996 133.985C346.004 132.091 355.627 131.45 364.97 130.734L364.944 130.785ZM187.058 401.774C186.93 400.852 186.214 400.315 185.651 399.7C179.943 393.351 174.312 386.975 168.476 380.728C159.953 371.613 150.278 363.855 139.554 357.48C128.139 350.669 115.674 347.11 102.518 346.009C95.5561 345.446 88.5431 345.779 81.5812 347.136C69.4492 349.466 58.2642 353.947 48.2821 361.372C35.5869 370.794 24.018 381.445 12.7818 392.506C12.577 392.711 12.577 392.89 12.7818 393.043C13.4984 393.299 13.9335 392.659 14.4198 392.352C17.5168 390.406 20.6394 388.46 23.6852 386.412C33.5137 379.755 44.2381 375.121 55.7047 372.1C64.6885 369.744 73.7492 367.926 83.0402 367.414C93.7645 366.8 104.361 368.054 114.855 370.154C128.19 372.842 141.09 377.041 153.529 382.597C164.97 387.718 176.053 393.479 185.958 401.313C186.239 401.544 186.495 401.953 187.033 401.774H187.058ZM114.445 137.314C114.624 136.75 114.778 136.52 114.727 136.341C112.756 128.762 112.628 121.03 112.986 113.246C113.166 109.354 112.577 105.514 111.835 101.725C110.12 92.9425 107.56 84.3908 104.719 75.916C100.138 62.1412 97.3478 48.0592 97.3222 33.5163C97.3222 33.0554 97.4758 32.4921 96.8103 32.1081C96.3496 33.2346 95.8889 34.31 95.4794 35.411C92.1008 44.8331 88.3639 54.1273 84.3455 63.319C82.3235 67.9532 80.4807 72.6643 79.0729 77.529C77.1021 84.2628 76.0783 91.1758 75.336 98.1144C74.8753 102.339 74.645 106.717 76.2575 111.019C89.874 118.341 102.646 126.995 114.42 137.314H114.445ZM286.981 244.132C293.611 244.491 299.395 245.796 304.975 247.742C314.752 251.122 324.734 253.682 334.895 255.654C340.731 256.78 346.618 257.651 352.53 257.625C359.211 257.574 365.865 256.857 372.443 255.654C379.84 254.271 387.237 252.838 394.609 251.378C397.885 250.712 401.161 250.303 404.488 249.739C394.327 247.102 384.396 243.927 374.389 240.932C365.814 238.346 357.009 236.938 348.154 235.683C342.062 234.812 335.945 234.249 329.828 234.019C317.721 233.532 306.05 235.99 294.814 240.42C292.331 241.393 289.746 242.212 287.007 244.209L286.981 244.132ZM36.7643 81.8048C36.3548 82.4705 36.7643 82.7778 36.9691 83.1106C40.9619 88.7691 44.1101 94.9139 47.0279 101.161C49.4339 106.359 52.2749 111.326 55.9094 115.781C64.407 126.176 74.645 134.523 86.2395 141.231C94.8651 146.224 104.079 149.859 113.268 153.572C121.177 156.772 128.804 160.511 135.817 165.452C139.938 168.371 144.136 171.162 148.154 174.26C147.796 173.492 147.335 172.826 146.823 172.211C142.472 167.116 138.044 162.124 133.334 157.361C125.042 148.989 116.365 141.077 107.279 133.601C96.8359 124.973 85.4461 117.804 73.5188 111.454C65.4564 107.153 58.1362 101.904 51.5327 95.6309C47.3863 91.6879 43.2399 87.7449 39.0935 83.8275C38.3512 83.1362 37.5578 82.4705 36.7899 81.7792L36.7643 81.8048ZM336.175 532.558C329.623 537.602 323.07 542.313 316.057 546.409C308.686 550.685 301.084 554.5 293.508 558.392C277.204 566.739 262.871 577.39 251.251 591.856C239.631 606.348 229.853 621.838 222.328 638.788C222.021 639.453 221.356 640.145 221.944 641.22C222.661 640.273 223.25 639.505 223.813 638.711C229.674 630.543 236.226 622.965 243.188 615.744C253.426 605.17 264.791 595.901 276.564 587.145C289.285 577.672 301.878 568.096 313.523 557.265C320.869 550.404 327.908 543.286 334.102 535.374C334.819 534.478 335.458 533.505 336.124 532.558H336.175ZM131.722 66.5194C129.265 60.0929 126.296 54.2297 122.815 48.6481C117.901 40.7877 112.679 33.1322 108.277 24.9903C107.919 24.3246 107.483 23.7101 107.023 23.1212C105.154 20.7144 103.491 20.6888 101.545 23.1212C99.8561 25.2207 99.3186 27.7299 99.165 30.3414C98.8067 36.4863 99.037 42.6312 99.9329 48.6993C101.11 56.5596 102.8 64.3431 105.333 71.8962C107.944 79.6285 110.555 87.3865 113.114 95.1444C113.831 97.3463 114.343 99.625 115.085 102.365C118.54 89.1787 123.762 77.3242 131.722 66.545V66.5194ZM235.971 55.8171C240.834 50.5427 246.567 47.1118 252.019 43.4761C248.794 30.3926 241.857 14.7744 234.716 4.40489C234.46 4.04643 234.23 3.68798 233.923 3.38074C232.464 1.7165 231.082 1.35805 229.009 2.20297C228.215 2.51021 227.473 2.97108 226.731 3.43195C222.559 5.96671 218.847 9.09036 215.367 12.4957C213.293 14.5183 211.502 16.7971 209.812 19.4599C218.566 31.3912 227.499 43.1689 235.971 55.8171ZM412.781 134.6C412.781 134.446 412.73 134.318 412.73 134.164C409.07 134.062 405.384 134.19 401.75 133.832C392.407 132.884 383.065 132.577 373.672 132.679C369.142 132.731 364.586 132.526 360.106 132.884C353.247 133.422 346.413 134.19 339.605 135.189C327.754 136.904 316.569 140.463 305.871 145.737C305.333 145.993 304.693 146.173 304.335 146.838C304.668 146.889 305 147.017 305.282 146.941C311.45 145.353 317.747 144.688 324.094 144.252C331.645 143.74 339.17 144.252 346.643 145.302C353.247 146.224 359.876 146.966 366.556 147.094C378.074 147.299 388.978 144.944 399.42 140.079C403.311 138.261 407.278 136.546 411.399 135.291C411.885 135.137 412.346 134.83 412.807 134.574L412.781 134.6ZM62.3082 201.169C62.5897 202.296 63.0248 202.603 63.4344 202.936C70.9081 209.03 78.8682 214.355 87.6985 218.298C93.4573 220.858 99.549 222.113 105.871 222.241C112.142 222.369 118.336 221.985 124.555 221.012C130.084 220.167 135.664 219.604 141.192 218.759C148.333 217.658 155.449 216.531 162.692 216.48C163.204 216.48 163.946 216.813 164.356 215.84C163.281 215.533 162.282 215.226 161.233 214.944C152.505 212.589 143.649 210.822 134.742 209.286C126.347 207.852 117.901 206.956 109.352 207.186C102.339 207.365 95.3258 207.186 88.3127 207.237C83.6544 207.263 79.0985 206.52 74.5682 205.522C70.473 204.626 66.5569 203.218 62.3082 201.144V201.169ZM279.994 192.157C278.177 190.902 276.232 190.288 274.286 189.648C265.763 186.857 257.01 185.039 248.256 183.349C234.435 180.686 221.407 176.282 209.761 168.141C206.946 166.169 203.9 164.479 200.701 163.148C200.035 162.866 199.421 162.252 198.499 162.892C198.96 163.225 199.395 163.532 199.83 163.813C212.653 172.237 223.199 182.863 231.082 196.1C232.694 198.788 234.281 201.477 236.022 204.088C237.199 205.855 238.402 207.698 240.526 208.415C242.395 208.057 243.905 207.212 245.338 206.264C247.386 204.882 249.434 203.448 251.404 201.937C256.011 198.404 261.105 195.921 266.659 194.384C271.01 193.181 275.413 192.208 279.994 192.182V192.157ZM212.705 644.651C212.705 644.651 212.935 644.805 213.037 644.881C213.575 643.703 214.087 642.526 214.624 641.348C224.35 619.764 231.312 597.258 237.199 574.369C241.601 557.317 247.028 540.649 254.604 524.749C254.834 524.262 255.5 523.725 254.885 522.956C254.527 523.417 254.194 523.827 253.887 524.262C240.501 542.825 230.903 563.18 224.811 585.25C222.303 594.288 220.409 603.429 218.719 612.646C216.774 623.323 214.727 634 212.73 644.651H212.705ZM261.13 255.551C259.544 255.731 257.905 255.577 256.6 256.166C253.042 257.753 249.28 257.753 245.517 257.907C237.916 258.189 230.468 257.523 223.429 254.246C223.019 254.066 222.661 253.913 222.328 254.425C222.482 254.681 222.584 254.988 222.789 255.219C223.199 255.731 223.608 256.217 224.043 256.678C232.259 265.435 242.165 271.477 253.529 275.215C259.057 277.033 264.816 277.904 270.601 278.441C273.467 278.697 276.334 278.441 279.533 277.34C272.827 270.299 265.763 263.924 261.079 255.526L261.13 255.551ZM367.375 130.503C372.341 131.194 372.52 131.066 374.977 127.635C379.891 120.825 383.091 113.221 385.497 105.232C387.544 98.4217 388.645 91.4062 389.285 84.3396C389.643 80.371 389.925 76.3769 389.822 72.4083C389.746 69.2846 389.464 66.1866 389.362 63.0629C389.336 62.0132 389.362 60.9122 388.517 59.9905C387.826 60.7074 388.005 61.6035 387.826 62.3716C385.983 69.7199 383.04 76.6329 379.738 83.4179C375.412 92.2768 372.75 101.648 371.112 111.352C370.037 117.701 369.679 124.179 367.401 130.503H367.375ZM166.557 14.3647C165.866 14.4671 165.635 14.4415 165.482 14.5439C157.496 20.4584 149.792 26.7057 143.496 34.4892C138.018 41.2742 134.128 48.9553 131.056 57.0461C130.775 57.8142 130.263 58.6335 130.698 59.5296C131.466 61.1427 131.901 62.9605 133.104 64.4967C133.514 64.0359 133.795 63.7286 134.077 63.3958C140.706 55.2538 147.872 47.6495 156.344 41.351C157.624 40.4037 158.034 39.1747 158.136 37.7409C158.238 36.3327 158.187 34.9245 158.392 33.5419C159.493 26.6289 161.873 20.2024 166.557 14.3135V14.3647ZM180.839 24.9903C180.839 23.1212 180.941 21.6106 180.839 20.1256C180.557 17.1299 180.225 14.1343 178.945 11.3691C177.691 8.6295 175.745 8.14303 173.237 9.88408C172.546 10.3705 171.855 10.9338 171.266 11.5483C166.582 16.3106 163.05 21.7642 161.361 28.2675C160.542 31.4424 159.8 34.6684 160.286 38.4322C167.12 33.5931 174.031 29.4709 180.864 24.9903H180.839Z" fill="#1C00C6"/>
<path d="M197.988 23.582C196.785 29.3429 194.661 34.6172 192.536 39.8916C187.98 51.2852 183.168 62.5765 178.741 74.0213C173.494 87.5657 169.245 101.468 166.199 115.653C164.663 122.796 163.563 130.042 163.307 137.365C163.204 140.156 162.769 142.921 162.744 145.737C162.692 155.902 164.049 165.887 166.301 175.796C166.813 178.1 167.325 180.379 167.888 182.965C166.532 181.941 166.378 180.584 166.045 179.406C164.126 173.031 162.769 166.527 161.95 159.896C161.003 152.036 161.08 144.15 161.592 136.315C162.59 121.132 166.199 106.41 170.755 91.9183C174.901 78.758 180.148 66.033 185.6 53.3847C189.695 43.9114 193.867 34.4636 197.399 24.7598C197.553 24.3501 197.783 23.9917 197.988 23.6076V23.582Z" fill="#1C00C6"/>
<path d="M170.601 202.501C168.886 199.966 167.069 197.482 165.507 194.871C159.748 185.244 156.165 174.823 154.169 163.813C152.94 157.003 152.224 150.141 152.428 143.254C152.889 128.404 154.271 113.656 158.699 99.3433C160.03 95.0163 161.822 90.8685 163.639 86.7207C165.533 82.3681 167.427 78.0411 169.398 73.7396C169.935 72.5875 170.37 71.3329 171.753 69.8223C170.294 73.458 169.091 76.4024 167.939 79.398C165.175 86.5159 162.001 93.4801 159.876 100.828C158.187 106.615 157.215 112.529 156.216 118.469C155.321 123.795 154.834 129.146 154.527 134.497C154.169 141.154 154.092 147.837 154.732 154.519C155.397 161.304 156.626 167.91 158.545 174.413C161.079 182.939 164.995 190.825 169.219 198.583C169.859 199.787 170.678 200.913 170.601 202.475V202.501Z" fill="#1C00C6"/>
<path d="M26.3985 76.2741C31.2872 84.0833 35.5872 91.7644 38.9657 99.9576C45.0317 114.68 49.8436 129.837 53.9388 145.225C56.7798 155.825 60.2352 166.22 64.8935 176.18C68.0161 182.862 72.0857 188.93 76.9487 194.461C77.4351 195.024 77.8958 195.613 78.3565 196.202C78.4077 196.253 78.3565 196.381 78.4333 196.996C77.7166 196.304 77.2303 195.869 76.7952 195.408C68.8095 187.01 63.0762 177.281 58.9554 166.45C55.0906 156.286 52.3775 145.788 49.3317 135.367C44.827 119.877 39.7847 104.566 32.6437 90.0233C30.8009 86.2596 28.8301 82.547 26.9616 78.7833C26.6545 78.1432 25.989 77.6055 26.3729 76.2485L26.3985 76.2741Z" fill="#1C00C6"/>
<path d="M272.853 268.225C271.343 266.894 269.808 265.537 268.349 264.257C259.186 268.558 250.048 267.483 240.834 265.204C250.048 266.484 259.237 267.303 268.093 263.002C271.804 265.665 275.541 268.379 279.329 271.042C292.024 279.952 306.05 285.84 321.254 288.682C327.78 289.911 334.461 290.193 341.192 289.809C350.304 289.297 359.058 287.479 367.632 284.509C367.811 284.458 368.041 284.56 368.553 284.611C366.326 285.84 364.151 286.455 362.001 287.121C359.749 287.838 357.522 288.606 355.218 289.195C346.9 291.294 338.453 292.011 329.93 291.396C317.466 290.475 305.666 286.993 294.379 281.641C287.647 278.441 281.274 274.652 275.438 269.966C274.594 269.3 273.672 268.763 272.777 268.148L272.853 268.225Z" fill="#1C00C6"/>
<path d="M176.974 42.6823C174.85 45.3451 172.725 48.0335 170.575 50.6963C161.464 62.0643 154.169 74.4565 149.28 88.2057C147.054 94.5042 145.569 100.982 144.443 107.562C143.368 113.861 142.933 120.21 142.805 126.534C142.574 138.44 144.238 150.141 148.999 161.227C149.255 161.816 149.485 162.431 149.69 163.045C149.741 163.225 149.613 163.429 149.562 163.685C148.743 163.429 148.615 162.661 148.333 162.047C144.699 154.033 142.626 145.66 141.858 136.878C141.474 132.679 141.244 128.48 141.371 124.281C142.114 98.524 149.843 75.2246 165.815 54.8441C167.606 52.5654 169.449 50.2866 171.343 48.0591C173.007 46.0876 174.773 44.193 176.488 42.2471C176.667 42.4007 176.821 42.5287 177 42.6823H176.974Z" fill="#1C00C6"/>
<path d="M289.644 65.1367C289.362 67.4667 289.183 69.8222 288.748 72.1009C288.441 73.714 288.415 75.3014 288.338 76.9144C288.031 83.0337 287.391 89.1274 286.598 95.2211C285.548 103.337 284.166 111.377 282.503 119.34C279.559 133.396 275.438 147.069 268.374 159.691C265.584 164.658 262.615 169.549 259.006 174.157C258.494 173.159 259.237 172.672 259.544 172.109C262.027 167.705 264.637 163.352 267.043 158.897C273.493 146.966 277.639 134.215 280.481 121.004C282.17 113.144 283.578 105.207 284.908 97.2694C285.625 93.0447 285.856 88.7177 286.419 84.4675C287.135 79.0395 287.11 73.5091 288.313 68.1324C288.543 67.0826 288.901 66.0841 289.618 65.1367H289.644Z" fill="#1C00C6"/>
<path d="M197.475 14.1853C197.475 15.4911 196.938 16.4384 196.631 17.4113C192.024 31.775 185.087 44.9865 177.127 57.7372C172.341 65.4183 167.836 73.3042 163.613 81.2925C159.057 89.8954 156.037 99.0871 153.631 108.484C153.094 110.558 152.607 112.631 152.07 114.782C151.251 113.195 152.172 111.761 152.454 110.378C154.655 99.8296 157.419 89.4857 162.538 79.8587C166.787 71.8448 171.164 63.9332 176.001 56.2777C183.782 43.9368 190.36 30.9813 195.684 17.4113C195.991 16.6176 196.324 15.8239 196.708 15.0302C196.836 14.7742 197.117 14.5693 197.475 14.1597V14.1853Z" fill="#1C00C6"/>
<path d="M176.258 28.5493C174.568 31.8009 172.162 34.2589 169.68 36.6656C161.924 44.1675 154.553 52.0022 148.154 60.7331C140.834 70.7185 136.15 81.8305 133.616 93.8643C132.439 99.5227 131.569 105.258 130.519 111.172C130.135 109.124 130.135 107.229 130.391 105.412C131.262 99.0362 132.183 92.6609 133.77 86.4136C136.483 75.8137 141.474 66.3659 148.052 57.6863C154.399 49.3395 161.54 41.7096 169.398 34.7453C170.934 33.3884 172.367 31.9289 173.877 30.5463C174.645 29.855 175.439 29.1893 176.232 28.498L176.258 28.5493Z" fill="#1C00C6"/>
<path d="M127.601 206.495C125.451 206.418 123.839 205.906 122.201 205.394C113.78 202.782 106.716 197.994 100.445 191.875C92.5871 184.194 86.1884 175.412 81.1206 165.682C73.8516 151.728 66.6338 137.774 59.416 123.795C59.032 123.052 58.4178 122.387 58.5201 121.234C59.2112 121.49 59.416 122.054 59.6975 122.54C66.429 134.343 73.0325 146.172 79.0985 158.334C83.3217 166.835 87.9288 175.13 93.9693 182.53C99.8817 189.775 106.434 196.253 114.65 200.887C118.643 203.141 123.045 204.446 127.627 206.443L127.601 206.495Z" fill="#1C00C6"/>
<path d="M212.73 160.05C212.73 158.744 213.473 158.334 213.933 157.822C225.246 145.814 232.515 131.553 237.174 115.858C238.94 109.866 240.22 103.773 240.987 97.6023C242.523 85.2613 241.32 73.1508 237.506 61.3219C237.353 60.8098 237.097 60.3233 237.404 59.7856C238.044 59.8112 238.223 60.3489 238.377 60.8098C240.373 66.3914 241.806 72.0498 242.446 77.9899C244.468 96.4757 240.552 113.861 233.36 130.733C229.751 139.208 224.99 146.992 219.078 154.058C217.286 156.209 215.29 158.181 212.73 160.075V160.05Z" fill="#1C00C6"/>
<path d="M91.6913 121.158C90.3092 120.39 89.9765 119.468 89.5414 118.674C86.342 112.632 84.4735 106.205 83.5521 99.3947C82.6307 92.5073 82.8099 85.6199 83.0914 78.7325C83.3985 71.4355 84.7807 64.2664 86.7515 57.1742C88.4152 51.2086 94.7371 33.5676 96.9639 28.7285C97.1943 30.2391 96.5544 31.3401 96.2217 32.4411C93.8413 40.583 90.8467 48.5202 88.6199 56.7133C86.4955 64.5225 85.1902 72.4084 84.8319 80.5248C84.6015 85.9272 84.7039 91.3039 85.0622 96.6551C85.4717 102.672 86.7003 108.561 88.9527 114.194C89.8229 116.344 90.6419 118.521 91.6657 121.132L91.6913 121.158Z" fill="#1C00C6"/>
<path d="M217.388 61.5269C218.079 64.5737 217.158 67.1085 216.851 69.592C215.29 81.4209 212.73 93.045 210.222 104.695C207.918 115.295 205.563 125.895 202.236 136.238C199.881 143.535 197.117 150.653 192.919 157.131C192.1 158.411 191.384 159.871 189.72 160.664C189.592 159.589 190.053 159 190.437 158.386C197.117 147.427 201.135 135.419 204.284 123.053C208.046 108.382 211.245 93.6083 214.419 78.7837C215.597 73.2277 216.365 67.5949 217.388 61.5269Z" fill="#1C00C6"/>
<path d="M290.77 241.495C292.92 238.038 296.221 235.862 299.702 234.019C306.357 230.46 313.421 227.848 320.537 225.39C337.148 219.629 353.196 212.665 368.271 203.55C373.442 200.426 378.484 197.149 383.603 193.949C384.499 193.385 385.292 192.617 386.777 192.361C386.418 193.257 385.855 193.59 385.318 193.974C365.942 207.416 345.415 218.605 322.994 226.133C318.719 227.566 314.471 229.103 310.299 230.818C303.439 233.634 296.58 236.553 290.795 241.52L290.77 241.495Z" fill="#1C00C6"/>
<path d="M305.717 189.161C308.686 184.988 312.781 181.992 316.723 178.869C331.261 167.347 347.718 159.487 365.148 153.495C372.776 150.858 380.378 148.17 387.877 145.225C388.389 145.02 388.952 144.355 389.72 144.918C387.877 146.531 385.65 147.325 383.5 148.272C377.281 150.986 370.882 153.214 364.509 155.492C349.024 160.997 334.23 167.936 320.818 177.537C316.185 180.866 311.783 184.527 307.252 188.035C306.741 188.419 306.254 188.803 305.742 189.212L305.717 189.161Z" fill="#1C00C6"/>
<path d="M54.2207 127.814C56.2939 133.755 58.2903 139.618 60.3891 145.455C63.2301 153.367 66.3783 161.125 70.1152 168.678C73.8009 176.154 78.2544 183.17 83.8853 189.34C90.1305 196.176 97.1435 202.014 106.23 204.754C106.639 204.882 107.023 205.112 107.382 205.317C107.561 205.419 107.689 205.598 107.842 205.752C105.59 206.443 103.593 205.547 101.623 204.677C95.9406 202.142 91.0007 198.506 86.5216 194.256C78.5871 186.754 72.7003 177.767 68.0164 167.935C62.1295 155.569 57.9575 142.562 54.0671 129.479C53.9135 128.967 53.7855 128.429 54.1951 127.84L54.2207 127.814Z" fill="#1C00C6"/>
<path d="M278.714 162.584C279.431 160.459 280.608 159.077 281.658 157.592C291.128 144.406 297.45 129.786 301.263 114.04C302.901 107.255 304.923 100.572 306.126 93.7105C307.073 88.2057 307.969 82.7009 308.507 77.1449C308.763 74.4309 308.967 71.6657 310.068 68.7725C310.452 70.7183 309.479 72.2034 309.607 73.842C309.735 75.455 309.479 77.0425 309.275 78.6555C308.814 82.3936 308.456 86.1062 307.918 89.8443C306.817 97.3974 305.103 104.797 303.234 112.196C300.879 121.567 298.269 130.887 294.097 139.669C290.513 147.197 286.137 154.212 281.018 160.767C280.506 161.432 279.968 162.149 278.688 162.559L278.714 162.584Z" fill="#1C00C6"/>
<path d="M213.806 130.401C214.395 128.48 214.958 126.56 215.598 124.665C218.771 115.167 221.1 105.463 222.764 95.6053C224.633 84.5189 225.4 73.3301 224.709 62.1157C224.172 53.2312 223.046 44.3467 220.384 35.7695C220.205 35.1806 220.128 34.5661 219.974 33.7212C221.126 34.1309 221.305 35.0014 221.561 35.7183C223.174 40.1733 224.044 44.8332 224.863 49.4931C226.655 59.6577 226.501 69.8992 226.091 80.1407C225.784 87.5402 224.505 94.8628 223.02 102.16C221.152 111.352 218.387 120.262 215.009 128.993C214.804 129.53 214.471 130.042 214.19 130.554C214.062 130.503 213.908 130.452 213.78 130.401H213.806Z" fill="#1C00C6"/>
<path d="M201.008 161.586C200.777 160.51 201.673 160.101 202.211 159.537C211.886 149.526 219.743 138.235 225.784 125.715C230.161 116.651 233.078 107.127 234.588 97.1668C235.843 88.9481 236.764 80.7293 236.457 72.4081C236.457 72.1264 236.611 71.8448 236.918 70.8975C238.197 93.7104 234.077 114.603 223.122 134.011C215.418 147.657 205.768 159.64 200.982 161.611L201.008 161.586Z" fill="#1C00C6"/>
<path d="M307.714 36.3071C307.253 39.3284 306.562 42.0168 306.28 44.7563C305.871 48.5969 305.41 52.4375 305.18 56.3292C304.77 63.1142 304.54 69.8992 304.079 76.6586C303.695 82.2402 303.235 87.8218 302.518 93.3778C300.88 106.103 298.167 118.572 293.048 130.426C292.459 131.809 291.896 133.217 291.307 134.6C291.128 134.984 290.898 135.342 290.591 135.854C290.13 135.035 290.565 134.446 290.77 133.832C293.355 126.663 296.119 119.519 297.706 112.043C298.884 106.487 300.061 100.905 300.675 95.2468C301.187 90.5358 301.955 85.8759 302.441 81.1648C302.748 78.0668 303.004 74.9175 303.081 71.8195C303.209 66.4171 303.67 61.0403 303.951 55.6635C304.258 49.8771 304.898 44.0907 306.511 38.4834C306.664 37.9714 306.869 37.4849 307.074 36.9984C307.151 36.8192 307.33 36.7168 307.714 36.3071Z" fill="#1C00C6"/>
<path d="M67.7604 200.35C66.1479 199.147 64.6378 198.046 63.2301 196.791C57.5992 191.85 53.9647 185.5 50.6117 178.945C44.8785 167.757 41.4999 155.8 38.9404 143.535C37.0976 134.702 35.6131 125.818 34.4613 116.882C34.3077 115.704 33.7958 114.603 33.8982 113.4C33.9494 112.888 33.8982 112.35 34.2053 111.812C36.0226 121.26 37.763 130.734 39.7083 140.156C42.7029 154.724 46.6957 168.986 53.9135 182.146C57.42 188.521 61.464 194.461 67.2485 199.019C67.5045 199.224 67.7092 199.48 67.914 199.71C67.9396 199.736 67.8884 199.864 67.7604 200.35Z" fill="#1C00C6"/>
<path d="M374.338 184.911C373.519 185.935 372.367 186.472 371.317 187.138C352.044 199.428 332.055 210.489 311.399 220.295C306.46 222.65 301.443 224.852 297.143 228.386C296.452 227.438 297.322 227.08 297.68 226.696C299.574 224.545 302.006 223.137 304.514 221.882C309.915 219.194 315.341 216.557 320.742 213.868C338.121 205.24 355.09 195.869 371.727 185.858C372.469 185.423 373.237 185.064 374.005 184.68C374.056 184.68 374.158 184.808 374.363 184.936L374.338 184.911Z" fill="#1C00C6"/>
<path d="M318.054 34.489C322.073 46.3435 323.839 58.5821 323.941 71.0767C324.095 86.8741 320.87 102.108 315.956 117.471C315.111 115.525 315.981 114.219 316.288 112.913C318.157 105.104 319.923 97.2436 321.151 89.3065C322.124 83.008 322.124 76.6583 322.175 70.3086C322.278 59.2734 320.46 48.4942 317.85 37.8175C317.696 37.203 317.568 36.5629 317.466 35.9228C317.415 35.5131 317.466 35.0779 317.466 34.6682C317.671 34.5914 317.85 34.5146 318.054 34.4634V34.489Z" fill="#1C00C6"/>
<path d="M292.817 266.535C294.302 266.023 295.121 266.74 295.991 267.073C304.156 270.197 312.602 272.091 321.228 273.423C331.619 275.036 342.088 275.113 352.505 274.498C365.277 273.73 377.87 271.426 390.079 267.431C390.77 267.201 391.409 266.74 392.484 267.124C388.594 268.993 384.678 270.299 380.711 271.246C372.776 273.192 364.765 274.524 356.626 275.42C348 276.341 339.375 276.265 330.775 275.829C318.822 275.215 307.151 272.808 296.042 268.097C295.07 267.687 294.123 267.15 292.817 266.51V266.535Z" fill="#1C00C6"/>
<path d="M194.046 66.5195C194.379 69.848 193.508 73.0741 192.792 76.2745C190.514 86.3112 187.954 96.271 185.727 106.308C183.859 114.68 182.272 123.104 180.762 131.553C179.815 136.827 178.996 142.153 178.433 147.453C177.998 151.677 177.435 155.928 177.255 160.203C177.025 155.16 176.872 150.141 177.383 145.072C179.175 127.508 183.066 110.379 187.34 93.3266C189.132 86.1576 191.333 79.0909 192.868 71.8451C193.252 70.0784 193.636 68.3118 194.02 66.5195H194.046Z" fill="#1C00C6"/>
<path d="M254.297 183.861C253.99 182.811 254.348 182.376 254.758 182.043C259.518 178.28 262.692 173.261 265.61 168.115C272.623 155.748 278.689 142.921 282.17 129.044C283.706 122.899 284.704 116.651 285.753 110.43C286.009 108.945 286.649 107.562 286.649 106.026C287.571 108.663 286.649 111.223 286.291 113.733C285.523 119.57 284.73 125.433 283.168 131.143C278.868 146.838 272.086 161.381 263.102 174.925C260.798 178.408 258.085 181.531 254.271 183.861H254.297Z" fill="#1C00C6"/>
<path d="M138.3 207.954C137.02 207.263 135.715 206.623 134.46 205.88C125.067 200.324 117.005 193.181 110.196 184.732C102.492 175.156 95.3 165.17 88.6453 154.826C85.881 150.551 83.7822 145.942 81.4019 141.487C81.1971 141.128 81.018 140.719 81.3507 140.13C82.8352 141.845 83.7055 143.868 84.7293 145.788C90.1042 155.671 96.8613 164.633 103.49 173.671C106.69 178.023 109.915 182.325 113.472 186.396C119.846 193.642 127.063 199.915 135.151 205.214C136.15 205.855 137.122 206.52 138.095 207.212C138.248 207.314 138.325 207.493 138.453 207.647C138.402 207.775 138.351 207.877 138.274 208.005L138.3 207.954Z" fill="#1C00C6"/>
<path d="M374.466 259.878C336.969 272.655 295.351 258.444 281.939 248.408C282.605 247.717 283.091 248.382 283.603 248.664C295.53 255.014 308.226 259.187 321.458 261.85C331.594 263.898 341.755 264.129 351.967 263.591C357.317 263.309 362.538 261.927 367.785 260.877C369.858 260.467 371.88 259.699 374.466 259.904V259.878Z" fill="#1C00C6"/>
<path d="M273.903 95.989C273.263 92.7886 274.133 89.6393 274.748 86.5156C276.565 77.2471 278.485 67.9786 281.761 59.0941C285.83 48.0333 291.64 38.0479 299.831 29.5218C302.058 27.2175 303.9 24.5035 306.818 22.5576C307.125 23.761 306.306 24.2475 305.82 24.8107C302.621 28.6001 299.242 32.2614 296.222 36.1788C287.98 46.8043 282.708 58.8893 279.355 71.8447C277.461 79.2186 275.848 86.6693 274.108 94.0943C273.954 94.7088 273.98 95.3745 273.903 95.989Z" fill="#1C00C6"/>
<path d="M206.153 15.2354C206.844 17.9493 207.51 20.6121 207.407 23.4029C207.356 25.2464 207.407 27.0643 207.407 28.9077C207.51 35.3855 207.126 41.812 206.179 48.2129C205.36 53.9481 204.924 59.7346 204.029 65.4698C202.902 72.6644 201.52 79.8335 199.882 86.9513C198.73 91.9696 197.604 96.9623 196.069 101.981C195.403 101.085 195.813 100.24 195.992 99.4203C198.014 90.7663 199.805 82.0354 201.341 73.2789C202.263 68.0046 202.672 62.6278 203.491 57.3278C204.541 50.6453 205.232 43.9115 205.871 37.1777C206.307 32.4666 206.051 27.7043 206.076 22.9421C206.076 20.3817 206.076 17.7957 206.076 15.2354H206.153Z" fill="#1C00C6"/>
<path d="M424.043 163.583C418.924 173.389 411.246 181.019 403.337 188.419C390.821 200.119 367.658 213.715 356.114 216.25C356.242 215.43 356.984 215.328 357.548 215.072C361.438 213.229 365.354 211.462 369.244 209.593C390.284 199.505 407.56 184.86 421.791 166.476C422.533 165.503 423.301 164.556 424.069 163.583H424.043Z" fill="#1C00C6"/>
<path d="M283.168 45.7803C282.938 47.803 282.145 49.0831 281.53 50.4145C276.821 60.9633 273.391 71.896 271.651 83.3153C270.832 88.6152 270.345 93.9664 270.089 99.3432C269.757 106.231 269.603 113.118 269.526 120.031C269.501 122.617 268.502 125.101 268.912 127.968C267.965 127.098 268.323 126.304 268.323 125.613C268.323 118.06 268.221 110.506 268.426 102.979C268.938 84.0834 272.367 65.828 281.172 48.8783C281.658 47.931 281.991 46.8812 283.168 45.7803Z" fill="#1C00C6"/>
<path d="M145.518 200.043C143.214 197.482 141.423 194.563 139.477 191.773C133.207 182.709 126.066 174.362 118.054 166.809C112.398 161.483 106.076 156.952 99.9076 152.266C98.0135 150.832 96.1195 149.424 94.251 147.939C93.304 147.171 92.4082 146.326 91.3076 145.328C91.9219 145.276 92.1779 145.174 92.2802 145.251C98.9861 150.115 105.82 154.827 112.372 159.922C124.325 169.19 134.051 180.507 142.139 193.258C143.291 195.076 144.366 196.945 145.467 198.788C145.671 199.147 145.979 199.505 145.518 200.043Z" fill="#1C00C6"/>
<path d="M174.056 96.9111C172.469 105.36 170.985 113.707 169.987 122.105C169.577 125.613 169.091 129.146 169.167 132.731C169.219 135.854 169.167 138.978 168.758 142.102C168.4 144.892 169.014 147.683 169.04 150.5C169.142 158.821 170.37 166.988 172.316 175.054C172.546 175.975 172.597 176.948 172.7 177.921C172.7 178.075 172.469 178.254 172.162 178.613C170.601 176.641 170.422 174.234 169.987 172.058C168.169 162.764 166.966 153.367 167.248 143.843C167.606 131.246 168.656 118.725 171.599 106.436C172.367 103.21 172.751 99.9068 174.082 96.9111H174.056Z" fill="#1C00C6"/>
<path d="M278.484 39.0977C271.83 49.6976 266.301 60.7328 263.434 73.0225C260.568 85.2867 259.8 97.6789 261.054 110.199C255.27 88.436 263.153 55.5608 278.484 39.0977Z" fill="#1C00C6"/>
<path d="M222.738 167.116C232.848 157.54 240.629 146.403 245.236 133.268C249.818 120.21 251.686 106.819 249.639 92.8398C250.586 94.4273 251.226 96.706 251.354 99.1383C252.224 115.166 249.229 130.375 241.883 144.713C237.788 152.676 232.362 159.563 225.81 165.631C225.426 165.99 224.991 166.322 224.581 166.681C224.172 167.014 223.736 167.321 223.327 167.628C223.148 167.449 222.943 167.295 222.764 167.116H222.738Z" fill="#1C00C6"/>
<path d="M53.4523 195.946C56.6517 198.788 58.9553 202.296 60.9773 206.008C65.5076 214.355 70.0123 222.676 75.2593 230.588C79.5337 237.014 84.3968 242.852 90.5396 247.588C94.7883 250.866 99.6514 252.837 104.566 254.86C103.695 255.398 102.979 254.86 102.211 254.681C92.2288 251.915 84.6527 245.771 78.4331 237.731C73.5445 231.407 69.4493 224.545 65.5844 217.581C61.5916 210.361 58.4178 202.68 53.4268 195.971L53.4523 195.946Z" fill="#1C00C6"/>
<path d="M285.216 192.848C285.753 190.441 287.289 188.674 288.876 186.959C303.235 171.597 320.255 160.536 340.603 154.852C344.417 153.777 348.256 152.829 352.096 151.831C352.736 151.677 353.35 151.549 354.015 151.831C348.333 153.649 342.651 155.441 336.995 157.259C323.583 161.56 311.783 168.729 300.931 177.562C295.479 181.992 290.463 186.882 285.958 192.285C285.753 192.515 285.472 192.669 285.241 192.873L285.216 192.848Z" fill="#1C00C6"/>
<path d="M340.449 191.337C346.08 188.213 351.788 185.192 357.368 181.915C369.167 174.976 380.326 167.065 391.639 159.384C399.727 153.905 407.892 148.502 416.211 143.253C415.801 144.329 414.828 144.866 413.984 145.455C403.08 152.983 392.126 160.408 381.299 168.063C369.756 176.231 357.623 183.374 345.056 189.775C343.649 190.492 342.292 191.363 340.475 191.312L340.449 191.337Z" fill="#1C00C6"/>
<path d="M45.8759 135.291C47.5396 140.873 49.1009 146.224 50.6878 151.575C53.6312 161.484 57.2145 171.162 61.8472 180.43C65.84 188.393 70.8823 195.613 77.5882 201.579C77.8697 201.835 78.2792 202.014 78.2025 202.808C75.5918 201.093 73.4418 199.044 71.3942 196.919C64.9698 190.313 60.8234 182.274 57.1377 173.978C51.9163 162.252 48.717 149.86 45.62 137.467C45.5176 137.058 45.5176 136.622 45.5176 136.187C45.5176 135.982 45.6712 135.803 45.8503 135.317L45.8759 135.291Z" fill="#1C00C6"/>
<path d="M108.892 127.2C107.228 125.689 106.358 123.743 105.334 121.9C99.652 111.633 95.864 100.7 94.1747 89.1017C93.4324 83.9041 93.0229 78.6041 92.8181 73.3554C92.5878 67.3129 92.8181 61.2704 92.7158 55.228C92.639 52.0019 93.2277 48.8783 93.8164 45.729C93.8164 47.6493 94.0211 49.5952 93.7652 51.4898C93.33 54.8439 93.5092 58.1468 93.7396 61.4753C93.9699 65.0342 93.9187 68.5931 94.0211 72.152C94.4306 85.2355 96.4015 98.0373 101.137 110.302C103.005 115.141 105.334 119.749 107.586 124.384C108.047 125.305 108.431 126.253 108.841 127.2H108.892Z" fill="#1C00C6"/>
<path d="M297.553 207.698C297.143 206.188 298.167 205.215 298.858 204.216C302.621 198.66 307.074 193.693 312.142 189.289C324.197 178.766 338.121 171.367 352.633 164.914C353.017 164.735 353.452 164.658 353.862 164.582C353.939 164.582 354.041 164.684 354.195 164.786C353.248 165.657 352.019 166.015 350.918 166.579C340.117 171.955 329.547 177.716 319.872 184.988C311.988 190.928 305.078 197.815 299.37 205.88C298.986 206.418 298.602 206.93 298.193 207.417C298.065 207.545 297.834 207.596 297.553 207.724V207.698Z" fill="#1C00C6"/>
<path d="M383.296 52.0022C381.018 54.5113 378.689 56.8413 376.615 59.376C370.882 66.3402 366.761 74.2774 362.82 82.3169C357.752 92.6608 352.786 103.056 347.744 113.4C346.72 115.525 345.543 117.548 344.391 119.698C343.879 119.033 344.135 118.546 344.391 118.06C351.891 102.313 358.648 86.2343 367.196 70.9745C370.984 64.2407 375.592 58.1727 381.376 53.0519C381.888 52.5911 382.246 51.7973 383.296 51.9766V52.0022Z" fill="#1C00C6"/>
<path d="M138.684 162.047C136.329 160.459 135.024 157.976 133.77 155.518C130.314 148.656 128.164 141.385 126.987 133.78C125.912 126.944 125.528 120.082 125.886 113.195C126.296 105.693 126.782 98.1912 129.418 90.7661C129.726 91.8927 129.521 92.7632 129.342 93.6593C128.523 97.7559 127.857 101.878 127.576 106.077C127.32 109.943 127.089 113.809 127.115 117.701C127.166 133.038 130.493 147.53 138.146 160.92C138.351 161.279 138.53 161.663 138.709 162.047H138.684Z" fill="#1C00C6"/>
<path d="M351.916 271.477C345.21 272.347 338.53 272.475 331.875 271.912C318.028 270.734 304.488 268.046 291.691 262.285C287.468 260.39 283.398 258.163 279.584 255.526C277.665 254.194 275.873 252.735 274.645 250.866C275.028 250.149 275.336 250.277 275.566 250.482C284.985 258.829 296.298 263.386 308.2 266.715C315.341 268.712 322.661 269.864 330.007 270.658C336.533 271.374 343.111 271.656 349.689 271.451C350.431 271.451 351.174 271.451 351.916 271.451V271.477Z" fill="#1C00C6"/>
<path d="M380.839 188.521C400.496 176.129 417.977 161.228 433.232 143.74C433.693 144.483 432.976 145.2 432.566 145.814C431.543 147.325 430.442 148.81 429.214 150.167C415.93 164.761 401.11 177.511 384.141 187.651C383.398 188.086 382.656 188.547 381.914 188.956C381.76 189.033 381.504 188.982 381.325 189.008C381.172 188.854 381.018 188.7 380.864 188.547L380.839 188.521Z" fill="#1C00C6"/>
<path d="M371.087 72.229C370.038 74.6614 368.886 77.0425 367.964 79.5005C364.56 88.5642 361.156 97.6023 356.396 106.077C351.635 114.552 346.49 122.745 340.475 130.375C339.81 131.22 339.247 132.142 337.686 132.859C338.505 131.553 339.042 130.657 339.656 129.786C347.488 118.316 355.039 106.64 360.798 93.9665C362.717 89.7675 364.33 85.4149 366.122 81.1647C367.453 78.0154 368.86 74.9174 371.087 72.229Z" fill="#1C00C6"/>
<path d="M244.724 104.131C245.159 107.46 244.238 110.02 243.572 112.555C240.885 122.975 237.558 133.166 232.003 142.485C227.627 149.834 222.533 156.619 216.237 162.456C214.727 163.864 213.14 165.119 211.348 166.143C210.888 166.399 210.427 166.707 209.685 166.246C229.674 150.448 239.272 128.762 244.699 104.105L244.724 104.131Z" fill="#1C00C6"/>
<path d="M73.9795 211.615C75.9759 212.639 76.9997 214.406 78.1515 216.096C82.5282 222.625 86.9306 229.154 92.0752 235.119C97.8853 241.853 104.31 247.87 112.449 251.762C114.778 252.863 117.158 253.836 119.667 254.937C118.745 255.372 118.003 255.039 117.235 254.783C108.021 251.736 100.266 246.487 93.7133 239.395C87.1865 232.329 81.658 224.519 76.8205 216.198C75.9247 214.662 74.9265 213.151 74.0051 211.615H73.9795Z" fill="#1C00C6"/>
<path d="M324.248 233.584C328.42 232.175 332.515 232.099 336.508 231.356C349.69 228.898 362.282 224.827 374.133 218.529C380.608 215.098 386.956 211.488 392.996 207.314C393.329 207.084 393.713 206.879 394.199 206.572C392.228 210.233 370.908 222.088 361.463 225.749C349.562 230.358 337.327 233.276 324.248 233.558V233.584Z" fill="#1C00C6"/>
<path d="M310.836 143.458C326.782 127.303 333.692 107.716 333.232 85.082C334.153 86.4902 334.255 87.8984 334.255 89.281C334.358 105.923 329.725 121.081 320.076 134.625C317.593 138.107 314.803 141.41 310.836 143.433V143.458Z" fill="#1C00C6"/>
<path d="M313.933 278.877C299.856 280.362 268.297 265.255 262.359 254.041C269.603 260.493 277.537 265.87 286.291 270.043C295.07 274.217 304.361 276.828 313.933 278.877Z" fill="#1C00C6"/>
<path d="M287.416 195.664C289.106 197.175 289.771 199.018 290.206 200.862C292.433 210.13 291.077 218.964 286.597 227.336C284.755 230.793 282.349 233.814 279.712 236.656C277.741 238.781 275.694 240.855 273.569 242.852C272.341 244.03 270.933 245.003 269.27 245.745C270.908 244.004 272.52 242.263 274.209 240.548C277.69 237.014 280.941 233.276 283.68 229.128C288.645 221.652 290.334 213.356 289.515 204.523C289.31 202.321 288.671 200.119 287.826 197.994C287.57 197.354 286.879 196.74 287.416 195.639V195.664Z" fill="#1C00C6"/>
<path d="M282.196 207.186C283.45 220.398 278.945 231.638 270.115 241.341C263.69 248.408 253.555 254.963 249.152 254.937C254.758 251.762 260.261 248.587 264.944 244.235C272.111 237.603 277.64 229.871 280.225 220.321C281.377 216.071 281.76 211.641 282.196 207.212V207.186Z" fill="#1C00C6"/>
<path d="M216.775 248.306C224.402 247.794 230.519 244.337 236.355 240.164C241.73 236.323 245.748 231.33 248.794 225.518C250.407 222.472 251.84 219.348 253.376 216.275C253.888 215.277 254.169 214.15 255.091 213.331C255.449 214.022 255.27 214.662 255.039 215.251C252.275 222.164 249.434 229.052 244.52 234.761C238.172 242.186 230.212 247.051 220.64 249.151C219.334 249.432 218.08 249.483 216.724 248.28L216.775 248.306Z" fill="#1C00C6"/>
<path d="M216.313 244.849C234.972 237.654 244.289 222.779 249.561 204.19C250.15 206.469 250.201 206.495 249.92 207.416C246.874 217.914 242.292 227.541 234.204 235.222C229.495 239.703 224.094 242.903 217.875 244.67C217.388 244.823 216.825 244.798 216.313 244.849Z" fill="#1C00C6"/>
<path d="M185.677 213.792C184.525 212.46 184.781 211.231 184.858 210.13C185.267 203.729 186.777 197.661 189.772 191.926C193.918 184.015 199.857 177.767 207.023 172.595C207.74 172.083 208.482 171.289 209.967 171.878C208.124 173.415 206.434 174.797 204.771 176.231C197.502 182.529 191.717 189.903 188.518 199.146C187.187 203.038 186.47 207.032 186.01 211.078C185.907 211.871 185.83 212.665 185.677 213.817V213.792Z" fill="#1C00C6"/>
<path d="M258.264 136.955C259.263 150.935 241.346 177.691 230.289 178.612C237.609 173.338 243.675 167.5 248.564 160.485C253.401 153.546 256.14 145.712 258.264 136.955Z" fill="#1C00C6"/>
<path d="M97.015 53.1284C98.2435 65.8791 101.98 77.6311 105.922 89.332C108.302 96.3474 110.785 103.337 112.449 110.583C113.268 114.142 114.138 117.701 114.138 121.388C114.138 121.798 114.24 122.258 113.729 122.745C111.911 109.047 106.843 96.3474 102.723 83.392C100.573 76.6326 98.6275 69.7964 97.5269 62.8066C97.0406 59.7854 96.1703 56.6873 97.015 53.154V53.1284Z" fill="#1C00C6"/>
<path d="M202.006 182.581C200.061 185.91 198.039 189.187 196.171 192.592C193.176 198.097 190.693 203.807 189.695 210.054C188.62 216.762 188.876 223.342 191.461 229.717C191.948 230.921 192.434 232.099 192.92 233.302C192.92 233.379 192.843 233.481 192.69 233.763C190.054 230.281 188.723 226.389 187.955 222.267C186.419 213.894 188.39 206.034 191.692 198.43C194.251 192.567 197.553 187.164 201.981 182.581H202.006Z" fill="#1C00C6"/>
<path d="M226.296 105.027C227.422 94.6323 229.623 84.442 229.495 73.9445C229.367 63.6006 228.267 53.3847 225.912 42.708C227.166 44.2954 227.781 45.4476 227.985 46.651C228.856 51.6181 229.675 56.5852 230.186 61.6291C230.698 66.5963 230.596 71.5378 230.724 76.4793C230.878 81.7792 229.982 87.0024 229.163 92.2C228.497 96.527 227.704 100.854 226.27 105.027H226.296Z" fill="#1C00C6"/>
<path d="M220.614 193.283C219.615 195.383 218.105 197.021 216.851 198.788C212.295 205.112 208.482 211.846 205.615 219.117C203.823 223.649 202.876 228.386 202.313 233.199C202.032 235.58 203.055 237.885 202.646 240.266C201.008 237.347 200.547 233.404 201.213 229.41C203.26 216.915 209.198 206.315 217.107 196.688C218.054 195.536 219.078 194.41 220.076 193.283C220.127 193.232 220.281 193.283 220.614 193.283Z" fill="#1C00C6"/>
<path d="M118.797 226.005C125.17 234.505 132.413 241.213 141.116 246.232C148.436 250.456 156.242 252.889 164.817 252.044C165.559 251.967 166.327 251.993 167.069 251.993C167.172 251.993 167.248 252.069 167.351 252.121C161.873 253.862 156.55 253.682 149.716 251.583C141.5 249.074 134.64 244.337 128.395 238.602C125.375 235.837 122.636 232.79 120.333 229.385C119.744 228.514 119.053 227.695 118.797 226.005Z" fill="#1C00C6"/>
<path d="M313.959 292.318C334.768 297.26 354.783 293.701 374.747 287.684C374.645 288.478 373.954 288.503 373.519 288.734C372.956 289.067 372.341 289.272 371.727 289.476C365.763 291.678 359.544 292.882 353.324 294.059C348.461 294.981 343.521 295.314 338.607 295.8C336.687 295.98 334.691 296.108 332.797 295.826C329.162 295.314 325.477 295.596 321.893 294.725C319.206 294.085 316.442 293.599 313.985 292.293L313.959 292.318Z" fill="#1C00C6"/>
<path d="M339.58 145.353C330.545 148.092 322.303 151.319 314.368 155.338C306.383 159.409 299.498 165.042 292.203 170.982C299.191 160.485 328.241 144.738 339.58 145.353Z" fill="#1C00C6"/>
<path d="M166.429 210.771C157.726 194.999 147.77 180.225 135.023 167.398C135.919 166.911 136.329 167.756 136.841 168.192C141.601 172.288 145.62 177.076 149.485 182.018C155.474 189.673 160.849 197.738 164.893 206.597C165.379 207.673 165.84 208.774 166.301 209.849C166.403 210.131 166.403 210.438 166.454 210.745L166.429 210.771Z" fill="#1C00C6"/>
<path d="M214.112 182.888C208.737 188.956 203.721 195.204 200.598 202.833C197.501 210.387 196.452 218.349 195.428 226.312C194.43 208.722 200.163 194 214.112 182.888Z" fill="#1C00C6"/>
<path d="M116.186 97.2949C117.133 76.8888 115.034 56.7131 110.888 36.7422C114.138 47.5469 119.692 72.7154 116.186 97.2949Z" fill="#1C00C6"/>
<path d="M189.132 176.846C186.854 180.814 184.397 184.706 182.503 188.956C180.046 194.487 178.229 200.222 177.921 206.264C177.768 209.465 178.254 212.665 179.252 215.763C179.56 216.711 180.174 217.684 179.867 218.81C178.536 218.836 178.485 217.863 178.177 217.12C175.925 211.564 175.72 205.829 177 200.043C178.792 191.952 182.401 184.68 187.34 178.049C187.724 177.537 188.211 177.102 188.646 176.641C188.697 176.564 188.851 176.487 188.876 176.513C188.953 176.564 189.004 176.692 189.106 176.846H189.132Z" fill="#1C00C6"/>
<path d="M266.096 187.138C265.277 185.704 265.866 184.988 266.327 184.271C267.683 182.171 269.219 180.251 270.857 178.382C278.612 169.677 287.827 162.789 297.63 156.619C299.779 155.287 301.878 153.853 304.284 153.034C297.374 158.155 290.002 162.559 283.527 168.217C277.102 173.824 270.985 179.713 266.096 187.113V187.138Z" fill="#1C00C6"/>
<path d="M149.511 258.829C144.136 259.494 138.965 259.059 133.872 257.344C122.226 253.452 111.937 247.409 103.414 238.499C101.52 236.528 99.6003 234.608 98.2949 232.124C100.65 234.428 102.928 236.809 105.334 239.063C114.189 247.384 124.376 253.452 136.124 256.729C139.964 257.805 143.88 258.445 147.898 258.368C148.436 258.368 148.973 258.265 149.511 258.803V258.829Z" fill="#1C00C6"/>
<path d="M272.777 268.148C272.7 269.582 271.446 269.736 270.499 270.069C267.428 271.093 264.254 271.477 261.003 271.579C253.504 271.784 246.235 270.683 239.145 268.251C236.893 267.483 234.743 266.51 232.721 265.306C231.569 264.615 230.34 263.949 229.675 262.669C230.187 262.183 230.519 262.567 230.878 262.771C237.353 266.663 244.443 268.635 251.866 269.531C253.581 269.736 255.244 270.094 256.985 270.145C261.976 270.299 266.864 269.864 271.625 268.353C272.035 268.225 272.47 268.276 272.905 268.251L272.828 268.174L272.777 268.148Z" fill="#1C00C6"/>
<path d="M88.0054 75.3528C88.4149 78.9117 88.6453 82.2145 88.8756 85.543C89.4387 94.1459 90.6673 102.621 93.9179 110.686C96.2214 116.421 99.344 121.695 103.055 126.611C103.49 127.175 104.156 127.635 104.233 128.48C103.67 128.788 103.49 128.224 103.311 127.994C96.0166 119.622 91.128 110.123 89.4131 99.0106C88.3637 92.1744 87.8518 85.3382 87.6983 78.4508C87.6983 77.5035 87.5191 76.5049 88.0054 75.3271V75.3528Z" fill="#1C00C6"/>
<path d="M120.307 74.6615C118.771 56.9181 115.06 39.6868 108.328 22.6348C110.094 24.2222 110.785 25.912 111.4 27.5507C114.625 36.2303 117.363 45.038 118.669 54.2297C119.232 58.1727 119.871 62.0901 120.358 66.033C120.716 68.9006 120.588 71.7939 120.307 74.6615Z" fill="#1C00C6"/>
<path d="M205.385 241.444C217.21 233.763 223.276 222.011 229.035 209.977C229.521 210.668 229.316 211.155 229.137 211.667C226.296 218.887 223.148 225.954 218.259 232.073C215.495 235.555 212.347 238.628 208.559 241.009C207.688 241.546 206.818 242.212 205.385 241.418V241.444Z" fill="#1C00C6"/>
<path d="M305.385 210.053C318.08 195.997 333.898 186.344 350.791 178.279C348.897 180.123 346.516 181.249 344.238 182.504C334.256 188.06 324.556 194.026 315.674 201.271C312.168 204.139 308.738 207.083 305.359 210.053H305.385Z" fill="#1C00C6"/>
<path d="M340.398 91.5597C341.064 79.3468 353.554 61.6546 362.717 57.5068C362.257 58.8126 361.361 59.3247 360.67 59.9648C355.039 65.0855 350.227 70.8464 346.592 77.5545C344.187 82.0096 342.395 86.7463 340.424 91.5854L340.398 91.5597Z" fill="#1C00C6"/>
<path d="M255.064 101.981C252.403 85.2358 254.681 69.2591 262.18 54.0249C256.293 69.4895 254.194 85.5174 255.064 101.981Z" fill="#1C00C6"/>
<path d="M375.694 89.7417C369.04 105.744 361.54 121.183 347.821 132.525C353.503 126.176 358.981 119.672 363.357 112.324C367.785 104.925 371.548 97.1924 375.669 89.7417H375.694Z" fill="#1C00C6"/>
<path d="M251.916 134.625C252.223 136.392 251.507 137.544 251.02 138.67C245.901 150.627 238.684 161.099 228.676 169.497C226.935 170.957 225.144 172.339 223.019 173.21C222.507 173.415 222.047 173.671 221.202 173.261C235.74 163.89 245.057 150.448 251.942 134.651L251.916 134.625Z" fill="#1C00C6"/>
<path d="M175.106 248.331C156.984 250.354 138.351 238.986 131.927 228.795C132.72 229.512 133.539 230.204 134.307 230.946C141.397 237.552 149.306 242.801 158.622 245.668C161.899 246.692 165.251 247.384 168.707 247.486C170.857 247.563 172.904 248.433 175.106 248.331Z" fill="#1C00C6"/>
<path d="M422.789 257.651C421.305 257.984 420.127 257.19 418.873 257.062C413.038 256.447 407.304 257.267 401.571 258.163C393.739 259.392 386.06 261.415 378.407 263.36C377.691 263.54 376.949 263.54 376.181 263.463C379.815 261.773 383.706 260.979 387.468 259.878C393.739 258.035 400.138 256.678 406.664 256.012C410.708 255.602 414.804 255.398 418.873 255.91C420.255 256.089 421.561 256.499 422.764 257.651H422.789Z" fill="#1C00C6"/>
<path d="M351.43 189.366C366.147 181.505 379.815 171.93 394.276 163.147C390.846 167.321 358.52 187.471 351.43 189.366Z" fill="#1C00C6"/>
<path d="M210.888 23.249C212.423 36.1533 211.22 54.0503 207.023 70.283C206.332 67.6202 207.227 65.2903 207.611 63.0116C208.891 55.1512 209.838 47.2653 210.171 39.3025C210.401 33.9258 210.58 28.549 210.888 23.249Z" fill="#1C00C6"/>
<path d="M249.664 240.675C263.997 231.1 270.191 216.941 272.469 200.58C274.389 214.201 261.975 236.22 249.664 240.675Z" fill="#1C00C6"/>
<path d="M97.7834 198.532C88.4412 194.768 72.4699 172.314 69.7568 159C76.2324 174.209 84.7811 187.958 97.7834 198.532Z" fill="#1C00C6"/>
<path d="M184.064 243.953C176.513 244.747 169.577 243.953 162.948 241.034C155.883 237.911 149.638 233.558 143.905 228.437C143.7 228.258 143.547 227.951 143.214 227.464C144.391 227.541 144.929 228.258 145.543 228.745C151.251 233.174 157.214 237.245 163.92 240.036C168.425 241.93 173.083 243.057 177.998 243.057C179.917 243.057 181.862 243.185 184.064 243.979V243.953Z" fill="#1C00C6"/>
<path d="M104.387 21.2519C104.387 23.1722 104.387 25.0924 104.387 27.0127C104.31 33.9001 105.104 40.7107 106.179 47.4957C106.921 52.1556 107.561 56.8154 108.175 61.4753C108.303 62.397 108.457 63.3956 107.996 64.4965C106.358 57.2251 105.232 50.056 104.31 42.8614C103.67 37.8431 103.082 32.8504 103.107 27.7808C103.107 25.5277 103.286 23.3002 104.387 21.2007V21.2519Z" fill="#1C00C6"/>
<path d="M219.232 32.8761C219.027 28.9075 218.925 25.323 219.411 21.6873C219.949 17.5139 220.793 13.4685 222.227 9.49992C222.943 7.47723 223.839 5.50574 225.016 3.71349C225.656 2.74054 226.424 1.84442 227.909 1.58838C226.962 3.35503 225.861 5.07048 225.068 6.91395C224.172 8.96224 223.353 11.0873 222.841 13.2893C222.38 15.3888 221.715 17.4115 221.305 19.511C220.896 21.7129 220.537 23.966 220.409 26.1935C220.281 28.3442 220.102 30.4693 219.232 32.8505V32.8761Z" fill="#1C00C6"/>
<path d="M264.253 196.509C266.377 204.728 260.542 222.651 250.304 232.15C252.479 228.411 255.372 225.109 257.291 221.217C259.185 217.351 260.798 213.408 261.975 209.234C263.152 205.061 263.485 200.734 264.253 196.509Z" fill="#1C00C6"/>
<path d="M267.222 230.511C267.811 231.561 267.222 232.047 266.941 232.56C262.641 240.189 256.754 246.411 249.792 251.66C247.898 253.094 245.748 254.092 243.521 254.937C242.984 255.142 242.523 255.193 241.704 254.809C252.659 249.151 260.619 240.625 267.222 230.511Z" fill="#1C00C6"/>
<path d="M147.54 209.721C138.198 198.865 128.702 188.163 119.283 177.409C119.795 176.718 120.102 177.23 120.333 177.486C128.856 186.78 137.456 196.023 145.416 205.804C146.337 206.956 147.259 208.108 147.54 209.721Z" fill="#1C00C6"/>
<path d="M61.4893 216.122C68.2719 227.234 74.7731 238.499 84.7296 248.126C76.8719 244.286 65.7892 227.029 61.4893 216.122Z" fill="#1C00C6"/>
<path d="M201.238 214.611C200.649 206.392 209.787 190.134 219.513 182.53C219.282 183.887 218.489 184.552 217.875 185.218C215.264 188.086 212.909 191.158 210.631 194.282C206.127 200.427 203.49 207.417 201.238 214.611Z" fill="#1C00C6"/>
<path d="M356.702 202.91C343.495 210.591 330.288 218.349 315.469 222.676C329.623 216.967 343.086 209.798 356.702 202.91Z" fill="#1C00C6"/>
<path d="M325.81 53.2822C329.905 67.0314 328.907 80.627 326.245 94.2225C325.554 90.6636 326.654 87.1815 326.808 83.6482C326.885 81.8303 327.192 80.0125 327.192 78.1946C327.243 72.3826 327.371 66.5449 326.526 60.7585C326.245 58.8638 325.887 56.9692 325.528 55.0745C325.426 54.5368 325.221 54.0247 325.784 53.2822H325.81Z" fill="#1C00C6"/>
<path d="M270.37 250.405C282.681 242.929 290.36 232.303 293.252 217.888C293.636 219.45 293.585 220.73 293.252 222.01C290.334 233.404 284.319 242.621 274.235 248.971C273.083 249.688 271.957 250.507 270.37 250.43V250.405Z" fill="#1C00C6"/>
<path d="M216.672 224.417C222.072 214.33 227.166 204.216 228.241 192.566C229.341 193.104 229.239 193.872 229.162 194.615C228.753 199.787 227.55 204.779 225.502 209.542C223.224 214.893 220.358 219.911 216.672 224.417Z" fill="#1C00C6"/>
<path d="M262.846 39.8145C251.686 56.3544 252.045 60.9119 248.564 71.2814C248.129 70.5645 248.257 69.7964 248.385 69.0539C248.487 68.3114 248.692 67.5945 248.871 66.852C250.765 58.6332 253.529 50.7984 258.597 43.9366C259.8 42.3236 261.157 40.8642 262.871 39.8145H262.846Z" fill="#1C00C6"/>
<path d="M126.219 248.408C117.568 246.232 101.725 230.409 99.498 223.214C107.125 232.994 115.444 242.007 126.219 248.408Z" fill="#1C00C6"/>
<path d="M134.358 63.4983C134.896 51.1573 138.94 40.0197 146.311 30.0854C143.624 35.411 140.885 40.711 139.017 46.4206C137.174 52.0278 135.843 57.7886 134.358 63.4983Z" fill="#1C00C6"/>
<path d="M233.591 10.1143C234.41 17.7186 234.358 25.2972 233.437 32.9015C233.002 36.4092 232.618 39.917 231.978 43.3991C231.697 44.9609 231.492 46.6763 229.47 48.1613C231.313 41.4788 231.594 35.2059 232.618 29.0098C233.667 22.7625 233.155 16.4128 233.616 10.1143H233.591Z" fill="#1C00C6"/>
<path d="M80.1989 108.33C76.4108 95.5026 77.5882 82.8287 81.2994 70.2573C78.8679 82.9055 78.2792 95.5794 80.1989 108.33Z" fill="#1C00C6"/>
<path d="M132.567 199.966C121.485 190.569 111.733 179.944 103.363 168.063C108.354 173.261 112.782 178.971 117.671 184.271C122.56 189.571 127.704 194.64 132.567 199.966Z" fill="#1C00C6"/>
<path d="M136.815 182.453C145.287 191.414 152.428 201.297 156.396 213.459C155.09 213.279 154.962 212.486 154.706 211.871C150.406 201.297 144.212 191.875 137.071 183.042C136.943 182.888 136.892 182.657 136.815 182.453Z" fill="#1C00C6"/>
<path d="M150.483 218.58C153.12 217.991 155.27 218.4 157.317 219.015C166.404 221.729 174.389 226.517 182.503 232.277C180.839 232.508 180.097 231.765 179.303 231.253C173.903 227.874 168.374 224.776 162.487 222.318C159.416 221.037 156.37 219.68 152.992 219.373C152.275 219.296 151.558 218.938 150.483 218.605V218.58Z" fill="#1C00C6"/>
<path d="M101.955 89.7417C106.767 103.004 111.86 116.19 113.908 130.272C110.555 116.574 105.743 103.312 101.955 89.7417Z" fill="#1C00C6"/>
<path d="M159.902 241.495C151.277 240.65 136.918 229.692 132.797 220.833C134.768 222.292 135.536 223.931 136.764 225.109C138.172 226.44 139.452 227.925 140.859 229.231C142.19 230.486 143.624 231.638 145.057 232.764C146.49 233.891 147.975 234.966 149.51 235.965C151.149 237.015 152.838 237.962 154.527 238.858C156.088 239.703 157.701 240.42 159.876 241.495H159.902Z" fill="#1C00C6"/>
<path d="M259.441 256.499C251.072 263.002 232.106 261.773 225.221 257.395C246.721 261.619 244.161 260.313 259.441 256.499Z" fill="#1C00C6"/>
<path d="M247.488 181.864C248.64 179.099 250.739 177.383 252.172 175.207C253.606 173.056 254.988 170.854 256.114 168.55C257.291 166.118 258.392 163.685 259.544 161.227C260.619 158.974 261.412 156.567 262.922 154.212C261.207 164.325 252.966 179.252 247.488 181.864Z" fill="#1C00C6"/>
<path d="M198.141 165.529C187.417 171.341 180.583 180.149 176.642 191.491C176.795 182.197 190.821 164.863 198.141 165.529Z" fill="#1C00C6"/>
<path d="M148.589 41.6068C151.583 31.3397 156.037 21.8919 164.151 14.5181C161.617 19.0499 158.161 22.9929 155.653 27.5503C153.119 32.159 151.046 36.9725 148.589 41.6068Z" fill="#1C00C6"/>
<path d="M317.21 174.516C307.688 181.608 299.191 189.699 292.767 199.863C294.481 193.001 306.613 180.379 317.21 174.516Z" fill="#1C00C6"/>
<path d="M226.859 231.842C225.426 232.457 224.658 233.839 223.634 234.889C220.563 237.962 217.133 240.522 213.14 242.289C212.756 242.468 212.347 242.647 211.937 242.749C211.758 242.801 211.527 242.749 211.144 242.724C213.601 241.162 216.032 239.805 218.285 238.192C223.276 234.607 226.91 229.794 230.186 224.699C231.466 222.702 232.669 220.653 233.898 218.631C234.205 218.119 234.333 217.479 235.024 217.299C235.484 218.042 234.845 218.554 234.563 219.066C232.618 222.907 230.442 226.619 227.806 230.05C227.371 230.639 226.731 231.125 226.757 231.97L226.859 231.842Z" fill="#1C00C6"/>
<path d="M140.194 58.3516C141.628 47.8285 145.006 38.0479 151.405 29.4194C149.332 34.2073 146.747 38.7392 145.032 43.6807C143.343 48.5454 142.063 53.5381 140.22 58.3516H140.194Z" fill="#1C00C6"/>
<path d="M413.139 184.322C407.022 193.437 398.346 199.582 388.952 204.984C389.515 204.472 390.027 203.909 390.616 203.473C395.377 199.991 400.214 196.56 404.668 192.643C407.662 190.006 410.222 186.959 413.165 184.322H413.139Z" fill="#1C00C6"/>
<path d="M365.917 57.3789C358.571 64.932 352.966 73.7141 347.591 83.1874C348.205 77.6314 358.443 63.1909 365.917 57.3789Z" fill="#1C00C6"/>
<path d="M242.549 16.6177C244.699 25.8606 243.419 34.8475 240.604 43.7064C241.832 34.7195 242.907 25.707 242.549 16.6177Z" fill="#1C00C6"/>
<path d="M141.756 219.245C144.059 218.682 146.184 219.45 148.308 220.141C155.014 222.292 160.927 226.005 167.223 229.538C166.199 230.152 165.61 229.487 165.099 229.205C161.618 227.49 158.188 225.723 154.758 223.956C150.637 221.831 146.312 220.321 141.756 219.245Z" fill="#1C00C6"/>
<path d="M239.4 33.798C238.811 25.9377 239.733 18.0517 238.709 10.1914C241.499 17.9749 240.347 25.8865 239.4 33.798Z" fill="#1C00C6"/>
<path d="M351.993 131.732C358.443 127.968 363.076 123.001 366.992 117.292C365.482 123.283 357.112 131.527 351.993 131.732Z" fill="#1C00C6"/>
<path d="M268.016 194.819C269.167 202.321 267.017 209.157 263.972 215.84C265.584 208.876 267.888 202.014 268.016 194.819Z" fill="#1C00C6"/>
<path d="M424.223 260.288C417.286 260.621 410.734 262.183 404.054 262.874C406.101 261.824 408.277 261.389 410.478 260.979C412.679 260.57 414.88 259.827 417.107 259.827C419.385 259.827 421.791 258.547 424.223 260.288Z" fill="#1C00C6"/>
<path d="M251.174 49.5439C248.18 55.74 246.823 62.3458 245.108 68.8491C245.467 61.8849 246.977 55.2536 251.174 49.5439Z" fill="#1C00C6"/>
<path d="M226.731 231.945C228.394 231.433 229.085 229.896 230.058 228.667C231.67 226.568 233.001 224.264 234.409 222.036C232.618 228.027 228.573 232.38 224.018 236.374C224.274 234.403 226.679 233.839 226.859 231.842L226.756 231.97L226.731 231.945Z" fill="#1C00C6"/>
<path d="M277.179 261.031C272.854 259.699 266.327 255.551 264.535 253.221C264.586 253.145 264.638 253.042 264.714 252.965C264.791 252.914 264.893 252.837 264.97 252.837C265.175 252.889 265.405 252.94 265.559 253.042C269.219 255.551 272.879 258.086 277.154 261.005L277.179 261.031Z" fill="#1C00C6"/>
<path d="M103.978 224.417C107.356 228.412 110.76 232.329 114.241 236.195C109.967 232.995 106.409 229.18 103.978 224.417Z" fill="#1C00C6"/>
</g>
</svg>
