<svg width="305" height="246" viewBox="0 0 305 246" fill="none" xmlns="http://www.w3.org/2000/svg">
<g opacity="0.7">
<path d="M281.515 411.021C280.912 406.972 279.425 403.16 278.132 399.305C271.56 379.73 261.519 362.114 248.224 346.286C240.854 337.521 233.011 329.187 225.275 320.766C220.297 315.361 215.277 309.977 210.235 304.615C209.2 303.495 208.554 302.332 208.511 300.2C220.836 313.509 232.795 326.452 244.797 339.394C245.185 338.641 245.034 337.908 244.927 337.198C244.086 331.814 243.936 326.387 243.785 320.939C243.677 317.062 243.052 313.186 242.556 309.331C241.824 303.409 240.94 297.508 240.445 291.543C239.949 285.513 240.423 279.57 240.725 273.604C241.005 268.005 241.845 262.471 243.203 256.979C245.099 249.377 249.064 243.003 254.041 237.124C263.156 226.377 274.857 219.465 287.764 214.339C296.383 210.915 305.282 208.503 314.376 206.78C322.09 205.316 329.912 205.122 337.712 205.682C352.257 206.716 366.328 210.118 379.903 215.438C386.992 218.216 393.887 221.554 399.899 226.377C405.825 231.137 410.199 237.059 413.044 244.122C413.41 245.049 413.69 245.996 413.905 246.965C414.142 247.999 413.927 248.946 412.957 249.636C411.708 249.851 410.889 249.076 410.285 248.171C405.179 240.548 397.701 237.102 388.953 235.487C381.821 234.173 374.667 234.152 367.513 234.647C356.48 235.422 346.008 238.588 335.902 243.046C323.598 248.494 311.747 254.826 300.585 262.341C289.294 269.943 279.231 278.945 271.021 289.863C264.428 298.628 259.385 308.233 255.377 318.419C252.792 325.009 250.551 331.685 249.085 338.619C248.073 343.443 248.008 343.421 251.089 347.147C265.527 364.698 275.783 384.468 282.075 406.304C282.528 407.855 283.325 409.341 283.131 411.042H281.494L281.515 411.021ZM411.578 246.319C411.643 245.975 411.751 245.781 411.686 245.63C411.492 245.027 411.277 244.424 411.018 243.843C407.549 236.004 402.377 229.565 395.051 225.064C387.38 220.348 379.192 216.708 370.573 214.038C359.281 210.528 347.796 208.137 335.988 207.34C329.093 206.867 322.176 207.254 315.388 208.482C305.282 210.291 295.457 213.069 285.997 217.096C274.146 222.113 263.436 228.746 255.119 238.782C251.499 243.132 248.331 247.74 246.349 253.103C244.366 258.4 243.548 263.956 242.88 269.534C242.319 274.401 242.233 279.311 242.169 284.2C242.104 291.091 242.621 297.939 243.742 304.766C244.517 309.59 245.078 314.457 245.465 319.324C245.81 323.566 245.53 327.83 246.026 332.094C246.263 334.14 246.629 336.143 246.931 338.188C247.254 337.219 247.491 336.25 247.685 335.281C248.547 330.931 249.215 326.559 250.271 322.252C252.576 312.949 254.516 303.56 255.981 294.084C256.584 290.165 257.037 286.202 257.769 282.283C259.321 274.035 262.251 266.282 266.259 258.896C274.253 244.079 286.277 233.699 301.468 226.894C311.79 222.286 322.887 220.951 334.049 220.391C341.117 220.025 348.184 220.283 355.209 221.317C363.311 222.523 371.197 224.375 378.804 227.433C386.044 230.34 393.025 233.829 400.136 236.994C402.248 237.92 404.08 239.256 405.76 240.785C407.7 242.572 409.574 244.402 411.621 246.341L411.578 246.319ZM388.091 233.14C378.847 228.919 369.495 225.344 359.519 223.686C354.067 222.781 348.594 222.006 343.034 221.963C338.962 221.941 334.889 221.963 330.795 222.35C326.184 222.781 321.616 223.276 317.048 224.052C303.559 226.334 292.009 232.515 281.968 241.517C270.827 251.509 264.04 264.193 260.29 278.557C259.062 283.274 258.61 288.162 257.877 292.986C256.649 300.932 255.291 308.879 253.266 316.675C253.158 317.105 252.899 317.644 253.481 318.161C253.74 317.515 253.998 316.955 254.235 316.373C256.627 310.58 259.278 304.916 262.424 299.49C271.495 283.769 284.058 271.322 298.947 261.178C310.756 253.124 323.34 246.47 336.441 240.785C345.9 236.671 355.726 233.872 365.983 232.924C372.577 232.321 379.213 232.084 385.785 233.204C386.496 233.333 387.229 233.419 388.048 233.096L388.091 233.14Z" fill="#FFAB4A"/>
<path d="M203.382 296.884C201.163 294.192 199.31 291.952 197.5 289.712C185.907 275.305 175.801 259.951 167.872 243.196C162.872 232.666 159.166 221.704 157.054 210.312C156.257 209.688 155.525 209.128 154.62 208.438C154.684 211.023 155.309 213.327 155.805 215.653C158.132 226.528 161.967 236.865 166.837 246.857C174.745 263.116 184.7 278.019 195.992 292.06C198.211 294.816 200.517 297.508 202.779 300.222C203.555 301.148 204.309 302.052 203.813 303.517C202.585 302.784 201.809 301.686 200.969 300.674C190.561 288.507 181.016 275.715 172.935 261.867C166.428 250.712 160.739 239.169 156.904 226.787C154.77 219.938 153.219 212.961 152.228 205.833C152.098 204.95 151.883 204.067 151.689 203.141C150.719 203.119 150.094 203.679 149.448 204.067C144.815 206.737 139.795 208.094 134.558 208.891C131.326 209.386 128.073 209.537 124.819 209.817C117.665 210.441 110.77 209.106 103.96 206.974C94.9749 204.153 85.9033 201.612 76.9393 198.705C73.2331 197.499 69.3976 196.745 65.4543 196.831C62.5453 196.896 59.6795 196.271 56.749 196.293C54.7665 196.293 52.9781 196.659 51.3189 197.735C51.0172 197.929 50.694 198.102 50.3708 198.274C48.0436 199.48 46.5137 198.834 46.0396 196.271C45.7164 194.57 45.7164 192.804 46.0612 191.124C47.2894 185.202 49.595 179.71 53.1289 174.779C55.3268 171.699 58.128 169.287 61.1663 167.091C61.9635 166.531 62.7393 165.949 63.752 165.196C62.0497 163.904 60.5198 162.827 59.0761 161.599C56.1672 159.123 53.2151 156.689 50.5001 154.019C45.2424 148.872 39.683 144.07 34.6408 138.686C28.6505 132.29 21.2164 128.263 12.5973 126.562C9.66677 125.98 6.71471 125.506 3.78419 124.968C3.24549 124.86 2.72834 124.731 2.23274 124.537C-0.266815 123.525 -0.676225 121.953 1.04761 119.929C2.42667 118.314 4.17205 117.172 6.11137 116.311C9.77451 114.653 13.6962 113.748 17.6826 113.533C22.0353 113.296 26.4095 113.231 30.7622 113.554C36.0845 113.942 41.3637 114.76 46.4921 116.375C47.1817 116.591 47.8281 116.957 48.5607 116.591C48.5392 116.052 48.1298 115.815 47.8066 115.535C43.1738 111.508 39.4244 106.749 36.1707 101.559C32.9385 96.3907 29.5555 91.3514 25.5476 86.7429C25.0735 86.2045 24.6426 85.58 24.3624 84.9339C23.7376 83.448 24.5995 82.3712 26.1725 82.6296C26.5172 82.6943 26.8836 82.8019 27.2283 82.9311C32.2921 84.9339 37.5929 86.1399 42.7644 87.7981C45.07 88.5303 47.311 89.4563 49.7028 90.6838C49.8105 89.4563 49.2718 88.7026 48.9055 87.9489C47.2894 84.5894 45.6087 81.2729 43.9926 77.935C43.0445 75.9753 42.0317 74.0586 41.4715 71.9266C40.4803 68.0503 42.6566 65.6599 46.5352 66.349C49.6381 66.9089 52.3747 68.2872 55.0467 69.8377C57.1584 71.0652 59.3132 72.2281 61.5541 73.2618C64.9587 74.8339 68.1047 76.7936 70.8413 79.3563C71.1645 79.6578 71.4662 80.0239 72.048 80.0885C72.2204 77.978 71.5955 75.9753 71.3369 73.9294C71.0999 71.9266 70.9706 69.9454 71.1645 67.9641C71.8971 60.3837 73.1038 52.8895 75.431 45.6106C76.9609 40.7867 78.2969 35.8766 79.0079 30.8589C79.4604 27.7363 79.8914 24.5706 79.8914 21.3834C79.8914 20.0267 80.0423 18.67 80.2362 17.3133C80.4732 15.5474 81.0765 15.2459 82.8435 15.7412C84.1794 16.1073 85.3646 16.7534 86.5066 17.5071C88.6399 18.9069 90.7516 20.3067 92.7771 21.8357C99.4785 26.8749 106.74 30.9666 114.088 34.9506C117.773 36.9534 121.22 39.3007 124.474 41.928C129.818 46.2351 131.973 49.0993 135.205 56.0552C136.11 55.9044 135.851 55.0861 136.002 54.5692C139.191 43.8662 144.492 34.3476 152.206 26.2504C157.378 20.8235 161.601 14.7075 165.803 8.56997C167.139 6.63179 168.561 4.75823 169.983 2.86313C172.957 -1.12089 177.245 -0.797863 180.003 2.9062C182.395 6.11495 184.614 9.40984 187.049 12.5971C189.139 15.332 191.143 18.1531 193.126 20.9743C195.324 24.1399 196.897 27.5856 197.715 31.3758C198.599 31.3758 198.965 30.7082 199.439 30.2129C201.529 28.0594 203.619 25.9274 205.602 23.6662C207.326 21.6849 209.502 20.4359 211.808 19.3591C212.217 19.1653 212.67 19.0792 213.122 19.0146C214.997 18.7346 215.988 19.6175 216.16 21.5126C216.333 23.3647 215.859 25.1521 215.471 26.8749C214.135 32.711 214.307 38.5901 214.523 44.4692C214.674 48.3671 215.6 52.1573 216.268 55.9906C216.785 58.8763 217.367 61.762 217.949 64.7339C218.919 64.1093 219.091 63.1403 219.5 62.365C224.392 53.4925 231.222 46.4935 239.863 41.2389C241.285 40.3775 242.815 39.8607 244.41 39.473C246.651 38.9346 248.547 40.7005 248.331 42.7248C248.224 43.9093 248.116 45.0722 247.62 46.149C246.586 48.4532 245.53 50.779 244.474 53.0833C242.061 58.3594 240.294 63.894 238.462 69.3855C237.902 71.0652 237.299 72.745 236.76 74.3386C237.364 74.7908 237.644 74.4678 237.902 74.2955C245.185 69.687 253.201 66.8659 261.583 65.1C263.372 64.7339 265.182 64.7554 266.949 65.423C269.168 66.2629 270.009 67.9426 269.276 70.1607C268.996 71.0437 268.479 71.7759 267.875 72.465C265.376 75.2215 262.855 77.9565 260.398 80.7561C255.054 86.8721 250.766 93.6772 246.931 101.473C250.077 99.8363 252.9 98.8241 255.765 97.9627C259.429 96.8429 263.135 96.2184 266.949 95.9169C271.108 95.5939 275.245 95.0986 279.36 94.5602C281.235 94.3233 282.98 94.6678 284.726 95.1201C285.889 95.4216 286.083 95.7446 286.924 97.3597C286.126 98.8026 284.661 99.3195 283.217 99.8148C280.481 100.762 277.68 101.538 274.986 102.571C265.29 106.318 256.843 112.025 249.473 119.347C249.215 119.606 249.021 119.907 248.827 120.166C249.042 120.467 249.301 120.575 249.56 120.467C253.546 118.873 257.812 118.507 261.993 117.775C264.751 117.301 267.509 116.849 270.267 116.332C272.53 115.923 274.771 115.859 276.969 116.655C278.757 117.301 279.145 118.378 278.197 120.036C277.313 121.565 275.913 122.599 274.534 123.633C270.461 126.691 266.604 129.986 263.113 133.711C258.502 138.621 254.537 144.048 250.422 149.367C247.189 153.524 244.13 157.809 240.639 161.772C236.652 166.316 232.235 170.3 226.956 173.271C225.792 173.917 224.995 174.8 224.392 175.985C223.142 178.397 221.849 180.809 220.233 183.005C216.462 188.174 211.484 191.964 205.882 194.893C199.612 198.166 193.018 200.793 186.123 202.452C179.27 204.11 172.332 204.261 165.329 203.507C162.786 203.227 160.351 202.667 157.938 201.892C157.399 202.732 157.701 203.55 157.809 204.325C159.813 217.699 163.691 230.491 169.509 242.701C177.051 258.508 186.532 273.087 197.371 286.827C198.944 288.83 200.581 290.768 202.176 292.749C202.908 293.668 203.289 295.025 203.318 296.819L203.382 296.884ZM81.9385 17.1841C81.7661 19.4883 81.5506 21.5557 81.4644 23.6231C81.2489 29.1577 80.2793 34.5845 78.9218 39.9468C77.2841 46.3428 75.0862 52.5665 74.095 59.1347C73.1254 65.5307 72.5651 71.8836 73.7718 78.3011C75.0862 85.1923 76.8962 91.9759 80.6025 97.9627C88.252 110.345 98.0779 120.424 111.976 125.851C113.226 126.346 114.562 126.734 115.876 126.949C117.255 127.165 118.484 128.047 119.884 127.918C119.669 126.691 119.109 125.549 119.367 124.58C119.863 122.685 119.324 120.984 118.85 119.283C118.139 116.785 118.936 114.825 120.703 113.167C121.156 112.736 121.63 112.456 121.781 111.724C122.405 108.58 124.237 106.749 127.663 106.792C129.581 103.39 132.361 102.076 136.239 103.583C137.381 101.667 139.622 101.667 141.324 100.547C140.678 98.9318 140.118 97.4028 139.471 95.9169C137.511 91.3299 136.067 86.5706 135.27 81.639C134.731 78.3441 134.214 75.0277 133.46 71.7759C131.994 65.4876 128.202 60.7498 123.073 56.9596C119.044 53.9662 114.605 51.662 110.145 49.4438C104.391 46.5581 99.7801 42.488 96.2247 37.1472C92.3461 31.3327 88.489 25.5182 84.5889 19.7252C83.9424 18.7777 83.5115 17.5932 81.9169 17.1841H81.9385ZM196.466 33.0125C195.539 29.2869 194.397 26.0781 192.479 23.1493C188.17 16.5165 182.955 10.5512 178.581 3.98296C176.512 0.86035 173.733 0.968026 171.448 3.91835C169.94 5.85652 168.475 7.83777 167.139 9.86208C162.872 16.3011 158.347 22.5248 153.047 28.1886C149.62 31.828 146.582 35.7905 144.126 40.1837C139.859 47.7641 136.778 55.7967 136.045 64.497C135.442 71.6682 136.261 78.7748 137.92 85.7953C139.17 91.0284 141.562 95.8307 143.242 100.805C144.147 101.258 144.945 101.645 145.742 102.054C149.189 100.612 152.335 100.633 154.857 103.627C158.283 102.55 161.084 103.153 163.109 106.254C164.359 105.672 165.566 106.749 166.794 106.211C166.751 105.931 166.794 105.737 166.708 105.586C163.454 96.3907 163.002 86.9798 164.747 77.4612C166.622 67.2319 171.147 58.2087 177.977 50.4345C181.813 46.0628 186.144 42.1649 190.497 38.2886C192.458 36.5442 194.419 34.7999 196.444 33.0125H196.466ZM162.7 139.913C163.627 140.172 164.316 140.366 165.027 140.581C171.233 142.476 177.503 142.713 183.839 141.421C184.981 141.184 186.166 141.249 187.329 140.904C193.255 139.246 197.565 135.434 200.775 130.459C204.287 125.033 206.766 119.089 208.468 112.844C209.028 110.755 209.89 108.709 210.019 106.534C210.472 99.2549 210.084 92.0621 208.166 84.977C206.442 78.6241 204.287 72.4004 203.878 65.7029C203.469 58.6609 203.943 51.7697 205.494 44.943C206.507 40.4852 208.64 36.4581 210.558 32.3664C211.829 29.653 212.971 26.8965 214.113 24.1399C214.587 22.977 214.932 21.7495 213.898 20.6512C211.937 20.7804 210.623 21.9649 209.437 23.1493C204.697 27.8225 200.474 32.9479 197.328 38.827C192.716 47.4626 188.924 56.5074 185.131 65.5307C183.645 69.0624 182.05 72.4865 179.788 75.5876C178.021 77.9996 176.254 80.4331 174.53 82.8665C172.784 85.3216 171.513 88.0135 170.716 90.9423C170.005 93.5695 169.466 96.1968 169.057 98.8888C168.367 103.217 168.432 107.352 171.039 111.142C175.176 112.951 175.887 115.622 174.745 118.658C174.875 118.873 175.004 119.11 175.176 119.326C176.9 121.587 177.396 123.87 175.241 126.174C174.831 126.605 174.724 127.1 174.724 127.66C174.724 130.933 172.978 132.828 169.962 133.496C169.207 136.08 167.85 137.846 165.092 138.018C163.864 138.104 163.454 138.966 162.765 139.956L162.7 139.913ZM143.652 184.9C144.557 184.9 145.462 184.857 146.367 184.9C148.026 185.008 149.319 184.47 150.482 183.264C151.689 182.036 153.262 181.239 154.813 180.464C158.563 178.612 162.312 176.803 166.299 175.511C168.561 174.779 169.94 173.271 170.737 171.096C172.397 166.488 172.246 161.901 170.824 157.249C169.315 152.275 166.212 149.023 161.364 147.149C157.184 145.513 152.853 144.673 148.478 144.005C144.901 143.467 141.324 142.993 137.812 142.024C132.662 140.624 128.137 137.954 123.612 135.262C118.527 132.247 113.355 129.469 107.58 127.983C104.133 127.078 101.073 127.703 98.5519 130.223C94.7595 134.013 93.2727 138.621 94.2208 143.897C95.8584 152.921 100.427 160.48 106.503 167.155C113.269 174.564 121.781 179.323 131.154 182.639C135.183 184.061 139.321 185.073 143.652 184.879V184.9ZM10.0331 124.128C10.5287 124.3 10.8519 124.43 11.1967 124.537C11.7138 124.688 12.2525 124.817 12.7697 124.925C21.238 126.691 28.7582 130.266 34.8778 136.468C39.1012 140.732 43.5185 144.78 47.785 148.98C54.982 156.086 62.7393 162.461 71.1214 168.103C76.4006 171.656 81.8307 174.844 87.9719 176.803C93.3804 178.526 98.8751 179.409 104.542 179.323C106.438 179.301 108.356 179.129 110.209 178.741C112.019 178.354 113.98 178.289 115.661 177.083C115.381 176.825 115.23 176.566 115.015 176.502C113.98 176.179 112.946 175.877 111.89 175.619C105.383 174.004 99.3492 171.441 94.113 167.177C91.7212 165.239 89.4371 163.15 87.2177 160.996C82.6926 156.625 78.8787 151.65 74.9354 146.805C68.4926 138.901 61.1232 132.225 51.7498 127.854C43.4539 123.977 34.9209 121.759 25.7415 122.19C24.1901 122.254 22.6386 122.147 21.1087 122.298C17.4456 122.642 13.7393 122.814 10.0762 124.15L10.0331 124.128ZM171.836 173.142C172.31 173.293 172.504 173.401 172.634 173.379C175.952 172.453 179.227 171.441 182.567 170.601C187.89 169.266 191.747 165.993 194.72 161.578C197.866 156.905 200.797 152.124 203.038 146.934C207.024 137.803 210.299 128.37 214.415 119.283C218.207 110.905 222.474 102.83 228.701 95.9384C235.23 88.7026 242.6 82.6727 251.844 79.184C254.817 78.0642 257.683 76.729 260.592 75.4369C262.941 74.3817 264.923 72.8096 266.647 70.8929C267.38 70.0746 268.263 69.2778 267.789 68.0503C267.272 66.7366 266.022 66.672 264.837 66.5644C263.006 66.3921 261.239 66.7582 259.472 67.1889C245.853 70.4838 234.196 76.9874 225.167 87.9058C222.431 91.2007 219.996 94.6463 218.38 98.6734C214.63 108.02 210.45 117.172 205.731 126.045C203.296 130.632 200.387 134.853 196.229 138.169C193.923 140 191.488 141.464 188.687 142.39C187.2 142.885 185.67 142.971 184.14 143.187C178.753 143.984 173.345 144.565 167.958 143.058C166.385 142.605 164.747 142.347 162.743 141.916C166.967 145.513 169.531 149.712 171.578 154.342C173.065 157.745 173.689 161.212 173.711 164.894C173.711 167.758 172.871 170.407 171.879 173.185L171.836 173.142ZM192.738 167.242C194.311 166.919 195.625 166.143 196.94 165.433C202.391 162.525 207.563 159.166 212.713 155.742C217.992 152.21 222.302 147.666 225.857 142.455C229.714 136.834 232.882 130.826 235.381 124.451C237.471 119.132 239.561 113.834 241.824 108.58C245.379 100.31 249.538 92.3636 254.882 85.0631C256.864 82.3712 258.976 79.787 261.217 77.3104C260.894 76.9874 260.657 77.1382 260.42 77.2458C257.252 78.6241 254.106 80.0239 250.939 81.3591C244.733 83.9433 239.432 87.8196 234.562 92.4282C226.977 99.5994 221.483 108.149 217.195 117.581C213.467 125.743 210.278 134.142 206.916 142.455C203.404 151.155 199.224 159.489 192.932 166.574C192.846 166.682 192.846 166.875 192.781 167.22L192.738 167.242ZM175.133 122.857C174.896 121.996 174.508 121.049 173.862 120.316C173.065 119.412 172.914 118.529 173.258 117.344C173.862 115.277 173.151 113.899 171.039 113.08C170.091 112.714 169.509 112.262 169.143 111.358C168.065 108.816 166.061 107.675 163.368 107.718C162.678 107.718 162.01 107.632 161.687 107.072C160.373 104.789 158.304 104.553 156.02 104.854C154.684 105.026 153.607 104.746 152.572 103.756C151.301 102.55 149.728 102.377 148.004 102.959C147.164 103.239 146.388 103.799 145.246 103.734C141.842 101.107 138.933 103.067 136.196 105.263C135.183 104.897 134.343 104.596 133.61 104.316C130.831 104.596 129.667 106.857 128.18 108.45C124.431 108.838 123.935 109.333 123.117 113.339C119.927 115.859 119.583 116.828 120.832 120.769C121.091 121.608 121.069 122.276 120.897 123.094C120.251 126.174 121.931 128.887 124.948 129.749C125.896 130.029 126.887 130.179 127.857 130.395C132.361 131.385 136.929 131.924 141.411 133.065C145.979 134.207 150.353 135.994 154.813 137.415C159.403 138.88 159.425 138.794 162.894 135.477C165.372 136.382 166.945 135.197 167.958 132.936C168.001 132.85 168.044 132.764 168.065 132.699C168.389 131.967 168.992 131.687 169.746 131.493C172.073 130.933 172.806 130.179 172.978 127.875C173.065 126.626 173.366 125.592 174.207 124.666C174.638 124.193 174.961 123.654 175.09 122.879L175.133 122.857ZM55.1544 194.677C58.4728 194.613 61.4033 195.13 64.3338 195.108C69.3976 195.087 74.2459 196.013 78.9864 197.563C88.7907 200.772 98.7243 203.55 108.615 206.5C113.506 207.965 118.57 208.589 123.655 208.115C127.254 207.771 130.895 207.771 134.494 207.189C140.657 206.177 146.453 204.304 151.581 200.621C152.077 200.277 152.745 200.061 152.788 199.178C150.698 197.176 148.091 195.539 147.142 192.632C146.065 192.416 145.182 192.632 144.277 192.739C141.669 193.084 139.084 193.558 136.455 193.536C130.701 193.472 125.12 192.481 119.669 190.607C114.971 188.992 110.296 187.248 105.555 185.719C99.2414 183.695 92.8417 182.101 86.1403 182.144C83.2098 182.144 80.3655 182.639 77.5427 183.264C69.2683 185.094 61.8127 188.626 55.1544 194.656V194.677ZM227.882 157.788C227.387 158.584 226.956 159.187 226.633 159.812C223.142 166.251 218.143 171.139 212.066 175.274C204.374 180.507 195.884 182.359 186.877 182.51C183.106 182.575 179.27 182.079 175.543 181.455C171.319 180.766 167.096 180.443 162.829 180.529C158.886 180.615 155.417 182.058 152.206 184.19C151.086 184.944 150.202 185.999 149.513 187.205C148.004 189.897 148.134 192.502 150.31 194.677C154.038 198.403 158.455 200.901 163.777 201.763C168.022 202.452 172.289 202.172 176.534 202.258C178.904 202.301 181.231 201.892 183.537 201.418C191.316 199.867 198.642 196.917 205.623 193.235C211.635 190.069 216.742 185.805 220.448 179.926C223.982 174.327 226.159 168.232 227.473 161.815C227.732 160.609 228.378 159.403 227.904 157.766L227.882 157.788ZM92.54 144.22C86.7221 142.411 81.6799 139.203 77.1117 135.283C72.953 131.73 68.4064 128.78 63.7736 125.915C53.6461 119.606 42.592 116.117 30.7622 115.256C25.2675 114.846 19.6865 114.739 14.1918 115.708C10.5071 116.375 6.95173 117.431 3.89193 119.692C2.96537 120.381 1.99572 121.07 1.82333 122.405C3.52562 123.611 5.31409 123.417 7.10257 123.008C10.5287 122.211 13.9117 121.264 17.4456 120.855C20.0744 120.553 22.7033 120.704 25.3321 120.467C29.6201 120.079 33.8651 120.446 38.0238 121.307C47.4833 123.245 56.0594 127.294 63.752 133.108C69.0744 137.135 73.427 142.132 77.5858 147.3C82.2617 153.114 87.1531 158.692 92.6909 163.71C97.5391 168.125 103.142 171.161 109.283 173.315C109.52 173.401 109.8 173.315 110.468 173.315C101.504 165.325 95.0827 156.108 92.54 144.22ZM65.519 166.38C64.8294 166.768 64.3338 167.005 63.8813 167.285C56.081 172.087 51.2973 179.151 48.6685 187.786C47.979 190.047 47.3972 192.33 47.5695 194.721C47.6342 195.711 47.6342 196.702 48.69 197.283C52.1162 195.237 55.0898 192.718 58.1711 190.327C66.2516 184.061 75.5818 181.196 85.6447 180.507C89.7388 180.227 93.7683 180.981 97.7762 181.821C104.262 183.178 110.511 185.374 116.695 187.743C126.478 191.469 136.433 192.933 146.776 190.543C147.487 189.337 147.229 187.937 147.897 186.429C136.67 187.399 127.038 183.458 117.837 178.332C113.291 180.443 109.735 180.787 105.016 181.024C97.5822 181.39 90.4283 179.947 83.4899 177.277C80.9473 176.308 78.5339 175.167 76.2498 173.638C72.716 171.269 69.1605 168.9 65.562 166.402L65.519 166.38ZM92.8848 136.554C92.2168 136.037 91.7428 135.649 91.2256 135.283C87.584 132.764 84.6966 129.555 82.391 125.786C80.5594 122.75 78.9864 119.606 77.5211 116.375C75.2586 111.336 73.0176 106.275 70.4319 101.387C67.0273 94.9693 62.5238 89.4563 57.0722 84.697C52.7626 80.9284 47.8928 77.8058 43.971 73.5202C44.3374 74.6616 44.8114 75.7168 45.3501 76.7505C48.6469 83.0173 51.599 89.4133 54.1201 96.0246C56.5766 102.464 59.1839 108.838 62.5022 114.889C67.8461 124.623 75.0647 132.613 84.4596 138.578C86.8083 140.086 89.1786 141.593 92.303 142.476C92.1091 140.387 92.54 138.578 92.8848 136.532V136.554ZM107.257 125.98C106.632 125.162 105.814 124.989 105.124 124.645C102.775 123.46 100.513 122.125 98.4011 120.532C90.8808 114.803 84.5673 107.955 79.5897 99.9224C76.8962 95.5723 75.0647 90.8561 73.6856 85.9461C73.3839 84.8262 73.2116 83.6633 72.2635 82.7804C69.6992 80.3254 67.0273 77.9996 63.8598 76.3414C59.7657 74.1878 55.65 72.0558 51.5559 69.9023C49.8536 69.0194 48.0867 68.3518 46.212 67.9426C44.7252 67.5981 43.5185 67.878 42.8721 69.5362C43.4323 70.6561 44.2512 71.6251 45.0915 72.5727C47.1601 74.877 49.5519 76.8367 52.03 78.6672C57.5247 82.7373 62.6746 87.1736 66.8334 92.6435C70.0871 96.929 72.5651 101.667 74.9138 106.491C76.5299 109.829 78.1676 113.167 79.8914 116.462C82.3048 121.092 85.3861 125.226 89.3078 128.672C90.9239 130.093 92.5185 131.536 94.544 132.527C97.4314 127.617 101.547 125.312 107.236 125.98H107.257ZM163.196 178.849C163.821 178.849 164.445 178.828 165.092 178.849C168.281 179.021 171.427 178.397 174.594 178.397C179.486 178.397 184.399 178.311 189.29 178.354C194.505 178.397 199.547 177.492 204.525 176.071C213.122 173.594 219.63 168.512 224.241 160.846C227.689 155.096 230.77 149.13 233.98 143.251C234.174 142.885 234.778 142.39 234.045 141.765C232.127 142.907 230.145 143.984 228.443 145.513C221.677 151.585 214.329 156.862 206.679 161.793C199.159 166.66 191.186 170.343 182.438 172.475C175.866 174.068 169.315 175.877 163.174 178.871L163.196 178.849ZM270.009 124.968C268.112 124.796 266.561 125.679 264.923 126.066C259.903 127.272 254.99 128.909 250.422 131.342C244.798 134.336 240.51 138.858 236.523 143.747C233.291 147.688 231.072 151.995 230.123 157.034C229.412 160.846 228.357 164.593 227.473 168.361C227.193 169.546 226.46 170.644 226.525 172.152C227.408 171.613 228.119 171.247 228.744 170.773C232.688 167.845 236.351 164.614 239.561 160.867C243.526 156.259 247.082 151.327 250.745 146.482C256.39 139.009 262.144 131.687 269.47 125.743C269.664 125.592 269.75 125.334 269.987 124.989L270.009 124.968ZM211.247 109.829C211.355 109.872 211.463 109.915 211.571 109.958C213.596 105.112 215.773 100.332 217.583 95.4C219.069 91.2868 219.716 86.9367 219.199 82.565C218.143 73.7571 216.268 65.1 214.566 56.3997C213.273 49.8099 212.389 43.1771 212.713 36.4366C212.777 34.9937 212.713 33.5508 212.713 31.5481C211.484 34.2184 210.515 36.3504 209.524 38.4824C207.843 42.1219 206.679 45.9551 206.335 49.9392C205.817 55.926 206.141 61.8697 207.714 67.7273C209.567 74.6185 212.152 81.3375 212.562 88.5518C212.864 93.6988 213.251 98.8672 212.346 104.014C212.002 105.952 211.592 107.89 211.204 109.829H211.247ZM196.53 35.6182C196.315 35.769 196.056 35.8982 195.862 36.0705C190.798 40.356 186.058 44.9861 181.317 49.6161C179.443 51.4466 177.676 53.4279 176.189 55.6029C168.82 66.3275 164.919 78.0426 165.846 91.1791C165.932 92.4497 165.868 93.7203 166.018 94.9909C166.148 96.1107 166.471 97.209 166.837 98.9318C167.484 90.0162 170.457 82.6512 175.37 76.0183C178.99 71.1298 182.352 66.0906 185.088 60.6206C189.161 52.4588 192.221 43.8016 196.53 35.6398V35.6182ZM87.8426 20.3067C87.7133 20.4359 87.584 20.5651 87.4547 20.6943C89.7173 23.9677 91.9367 27.3056 94.2639 30.5359C96.8927 34.1754 100.146 37.1903 104.025 39.5161C105.49 40.399 107.02 41.2174 108.507 42.0788C111.265 43.6293 114.088 45.1153 116.803 46.7519C123.698 50.9298 128.439 57.0242 132.059 64.0878C132.705 65.3584 133.33 66.629 134.084 68.1795C134.235 65.9398 134.149 64.0017 134.537 62.1496C134.882 60.5345 134.602 59.1347 134.106 57.6488C132.124 51.7696 128.374 47.2257 123.634 43.3709C119.303 39.8822 114.584 37.018 109.692 34.4123C103.917 31.3542 98.3364 27.9732 93.0787 24.0753C91.3549 22.7832 89.588 21.5557 87.8641 20.3067H87.8426ZM221.289 88.3149C222.129 85.6446 223.099 83.125 223.702 80.4977C225.641 71.9482 229.455 64.3462 234.929 57.5196C237.256 54.6123 239.712 51.8343 242.126 49.0131C243.591 47.2903 244.97 45.5029 246.112 43.5217C246.478 42.8756 246.866 42.208 246.284 41.5189C245.724 40.8944 244.97 40.959 244.259 41.1959C243.246 41.5404 242.169 41.8634 241.242 42.4234C231.74 48.0871 224.478 55.8829 219.457 65.746C218.854 66.9305 218.66 68.1364 218.875 69.4286C219.112 70.936 219.5 72.4435 219.673 73.951C220.19 78.258 221.16 82.5004 220.944 86.8721C220.944 87.3028 220.836 87.7766 221.289 88.2934V88.3149ZM236.48 141.356C239.346 137.738 242.449 134.81 245.918 132.311C251.758 128.091 258.545 126.131 265.419 124.408C268.673 123.59 271.862 122.621 274.814 120.984C275.805 120.446 276.882 119.907 277.098 118.701C276.753 118.098 276.322 117.969 275.87 117.904C274.146 117.646 272.4 117.56 270.72 117.926C265.333 119.11 259.816 119.498 254.451 120.704C249.84 121.738 245.379 123.288 242.363 127.38C239.195 131.687 235.963 135.951 232.752 140.215C232.601 140.43 232.601 140.538 232.989 140.646C234.174 140.086 235.467 139.655 236.523 141.356H236.48ZM30.676 90.5331C34.296 95.2493 36.9249 100.073 40.0493 104.553C45.07 111.724 51.2111 117.624 59.1623 121.501C62.0713 122.922 64.7001 124.774 67.6953 126.518C62.0497 115.212 45.307 98.9318 30.6544 90.5546L30.676 90.5331ZM226.029 144.802C226.654 145.082 226.848 144.716 227.107 144.522C229.046 142.971 230.468 140.969 231.933 139.009C235.683 133.991 239.152 128.78 243.203 123.977C251.219 114.437 260.786 106.986 272.228 101.99C272.724 101.774 273.176 101.451 274.017 100.978C272.831 100.978 272.099 100.978 271.388 100.978C271.021 100.978 270.655 100.999 270.31 101.064C263.264 102.141 256.972 105.026 251.219 109.161C246.198 112.779 242.384 117.517 239.066 122.642C234.411 129.835 231.179 137.868 226.029 144.823V144.802ZM115.101 128.995C119.324 130.955 123.203 132.936 126.866 135.262C133.438 139.418 140.657 141.442 148.306 142.368C153.693 143.014 159.037 143.984 163.928 146.546C164.187 146.675 164.445 146.675 164.704 146.395C162.549 143.768 159.92 141.701 156.839 140.301C150.332 137.308 143.565 134.982 136.498 133.711C130.184 132.57 123.849 131.515 117.816 129.275C117.062 128.995 116.329 128.564 115.079 128.995H115.101ZM56.9213 107.632C55.2621 103.54 53.5168 99.4917 51.9869 95.3354C51.3189 93.548 50.1984 92.4066 48.5607 91.7175C46.7292 90.9207 44.8976 90.1454 43.0014 89.5425C37.4205 87.712 31.6456 86.506 26.2371 84.1802C26.194 84.1802 26.0863 84.2663 25.8923 84.3955C26.6681 85.623 27.8317 86.4845 28.9521 87.3459C30.4605 88.5088 32.012 89.6071 33.6065 90.6623C41.6008 96.003 49.5735 101.322 56.9429 107.611L56.9213 107.632ZM240.574 115.751C245.94 110.302 252.102 106.232 258.825 102.894C262.855 100.892 267.164 99.8363 271.582 99.3841C275.266 98.9964 278.951 98.4796 282.636 98.1566C283.519 98.0919 284.316 97.8335 284.834 96.9721C282.291 96.0246 281.17 95.96 279.123 96.2184C275.094 96.7568 271.043 97.3813 266.992 97.6182C261.497 97.9627 256.304 99.4056 251.219 101.344C249.495 101.99 247.987 102.98 246.543 104.079C245.81 104.639 245.099 105.22 244.733 106.082C243.332 109.29 241.953 112.521 240.574 115.751ZM226.482 83.6418C227.969 82.242 229.111 80.8853 230.49 79.9377C233.42 77.9134 234.907 75.0492 235.984 71.7759C238.312 64.6477 240.531 57.455 243.763 50.6498C243.871 50.4129 243.936 50.133 243.785 50.0038C233.851 58.9193 229.348 70.6561 226.482 83.6418Z" fill="#FFAB4A"/>
<path d="M261.325 266.282C261.562 266.842 262.187 266.562 262.618 267.1C258.222 269.749 257.662 274.551 255.593 279.289C257.317 278.363 258.05 277.114 259.3 276.662C259.838 277.351 259.106 277.631 258.826 277.997C258.373 278.557 257.813 279.031 257.317 279.569C255.529 281.55 254.15 283.725 253.676 286.439C253.266 288.743 252.684 291.026 252.167 293.33C252.06 293.868 251.952 294.407 252.253 295.139C254.107 293.33 255.184 290.832 257.49 289.54C258.201 290.38 257.49 290.789 257.145 291.198C255.55 293.179 253.956 295.139 252.512 297.249C251.564 298.628 250.961 300.071 250.896 301.793C250.831 303.753 250.034 305.691 250.551 307.931C252.253 306.94 252.663 304.421 255.206 304.291C253.891 305.971 252.814 307.5 251.585 308.9C249.991 310.709 249.495 312.884 249.344 315.167C249.215 316.954 249.388 318.785 248.569 321.089C250.357 319.388 250.724 317.471 252.404 316.093C252.038 318.289 251.068 319.883 250.142 321.434C248.72 323.802 248.289 326.3 248.246 328.971C248.202 332.05 248.181 335.151 248.116 338.231C248.116 339.2 248.159 340.234 247.427 341.052C246.5 340.794 246.694 340.062 246.694 339.48C246.694 336.293 246.479 333.106 246.737 329.94C247.103 325.439 246.22 321.11 245.272 316.782C244.733 314.219 244.087 311.678 243.505 309.115C243.397 308.685 243.311 308.232 243.656 307.673C244.884 311.527 246.091 315.274 247.319 319.043C247.685 315.468 247.879 311.958 247.491 308.426C246.673 300.652 244.281 293.222 242.6 285.642C241.954 282.756 241.07 279.87 241.35 276.834C243.936 286.288 246.996 295.634 248.483 305.67C249.775 301.535 249.926 297.616 249.172 293.696C248.095 288.118 246.845 282.541 245.724 276.963C244.539 271.063 244.108 261.846 244.776 256.203C245.595 260.64 245.315 264.688 245.832 268.694C246.349 272.742 246.974 276.769 247.793 280.732C248.612 284.651 249.237 288.614 250.53 292.447C251.499 288.291 252.62 284.264 252.771 279.957C252.965 275.068 253.137 270.18 253.18 265.27C253.245 258.637 252.62 252.069 251.672 245.522C251.499 244.337 251.305 243.088 251.822 241.71C253.18 244.251 253.18 245.909 254.344 259.434C254.861 265.334 253.87 271.192 254.322 277.523C256.175 273.841 257.102 270.373 257.533 266.777C258.438 259.369 258.158 251.918 258.028 244.488C257.985 242.055 257.533 239.643 257.231 237.209C257.145 236.52 256.757 235.809 257.468 235.228C258.502 236.542 258.955 238.544 259.084 242.335C259.17 244.876 259.752 247.352 259.644 249.915C259.537 252.456 259.558 254.997 259.58 257.538C259.601 260.058 258.675 262.556 259.235 265.097C259.731 265.205 259.838 264.796 259.989 264.537C261.562 261.458 263.437 258.572 265.484 255.773C266.044 255.019 266.432 254.201 266.626 253.318C267.725 248.192 268.845 243.067 269.535 237.877C270.138 233.484 270.634 229.069 270.655 224.633C270.655 224.288 270.655 223.9 271.366 223.664C272.099 228.38 271.453 232.988 270.871 237.575C270.289 242.205 269.341 246.792 268.716 251.616C269.944 250.496 271.173 249.377 272.401 248.278C273.694 247.137 275.051 246.06 276.279 244.854C277.077 244.079 277.292 242.938 277.68 241.925C279.856 236.154 281.235 230.167 282.614 224.159C283.132 221.876 283.713 219.593 283.8 217.225C283.8 216.858 283.972 216.535 284.597 216.234C284.899 217.741 284.92 219.249 284.64 220.649C283.11 228.1 281.559 235.529 278.607 242.593C277.96 244.122 277.141 245.436 275.913 246.599C270.548 251.681 265.807 257.28 262.316 263.848C261.907 264.624 261.282 265.356 261.325 266.26V266.282Z" fill="#FFAB4A"/>
<path d="M201.724 40.8081C202.047 41.8418 201.422 42.6386 201.142 43.4354C197.694 53.2555 195.13 63.334 193.277 73.5632C192.501 77.9133 192.135 82.3496 191.488 86.7212C190.368 94.1509 189.183 101.559 186.618 108.666C185.045 113.037 183.063 117.194 179.982 120.747C179.271 121.565 178.516 122.362 177.547 122.9C177.051 123.18 176.556 123.331 175.909 122.943C183.516 116.117 186.209 106.921 188.256 97.4673C189.549 91.459 190.282 85.3645 191.1 79.27C192.803 66.5858 196.164 54.3107 200.84 42.4017C201.056 41.8418 201.206 41.2603 201.702 40.8081H201.724Z" fill="#FFAB4A"/>
<path d="M107.172 133.496C107.516 147.946 109.844 161.771 118.484 173.96C119.303 173.228 118.635 172.841 118.42 172.496C114.326 166.272 111.934 159.403 110.533 152.124C110.447 151.671 110.404 151.219 110.382 150.767C110.361 150.142 110.382 149.518 110.468 148.872C111.891 155.763 113.851 162.461 117.385 168.62C120.962 174.822 125.337 180.292 131.715 183.91C124.647 182.854 120.402 177.88 116.373 172.776C113.442 169.05 111.654 164.657 110.21 160.135C107.926 153.028 106.762 145.728 106.59 138.276C106.59 137.372 106.654 136.468 106.741 135.563C106.827 134.852 107.021 134.185 107.15 133.474L107.172 133.496Z" fill="#FFAB4A"/>
<path d="M92.1305 189.574C94.35 191.383 96.4832 193.256 98.7673 194.957C106.115 200.406 114.131 204.519 123.009 206.866C126.456 207.771 129.926 208.158 133.503 207.9C134.86 207.814 136.218 207.9 137.575 207.965C133.373 209.171 129.107 209.128 124.84 208.482C123.569 208.288 122.319 208.072 121.069 208.158C113.334 208.589 106.438 206.177 100.082 201.978C94.7809 198.468 89.9542 194.333 85.0628 190.284C83.5329 189.014 82.0246 187.722 80.3223 186.279C81.2488 185.934 81.6151 186.516 82.0246 186.817C87.4331 190.952 92.7985 195.151 98.2286 199.221C103.292 203.012 108.852 205.79 115.101 207.017C115.725 207.146 116.35 207.189 116.975 207.232C117.406 207.254 117.837 207.319 118.354 206.845C108.356 202.861 99.2198 197.735 92.109 189.552L92.1305 189.574Z" fill="#FFAB4A"/>
<path d="M213.876 153.825C214.113 153.696 214.394 153.61 214.566 153.416C218.962 148.807 223.077 144.026 226.008 138.298C229.305 131.837 232.063 125.14 234.692 118.399C238.419 108.859 242.514 99.4915 247.771 90.6621C249.904 87.0657 252.296 83.6416 255.076 80.519C255.83 79.6791 256.563 78.8177 257.769 78.4731C257.576 78.7316 257.403 79.0115 257.188 79.2699C250.831 86.7211 246.241 95.2276 242.169 104.079C238.678 111.637 235.704 119.433 232.494 127.1C230.49 131.859 228.227 136.511 225.62 140.968C222.431 146.417 218.272 151.047 213.402 155.052C213.402 154.579 213.445 154.126 213.876 153.803V153.825Z" fill="#FFAB4A"/>
<path d="M44.4884 134.12C50.1124 137.996 54.9607 142.648 59.5504 147.537C63.7953 152.037 67.8679 156.668 72.0482 161.211C77.2628 166.875 83.21 171.613 90.2346 174.822C95.1476 177.083 100.341 178.246 105.749 178.353C107.925 178.397 110.059 177.88 112.214 177.578C112.838 177.492 113.463 177.32 114.067 177.492C107.257 180.141 100.448 179.581 93.6392 177.363C85.688 174.757 79.0513 170.062 73.2549 164.205C70.0658 160.975 67.0922 157.529 64.1186 154.105C58.4084 147.515 52.2888 141.291 45.8675 135.369C45.415 134.938 44.9194 134.529 44.4453 134.12H44.4884Z" fill="#FFAB4A"/>
<path d="M161.968 103.519C160.308 100.417 160.05 97.3595 159.425 94.4091C157.637 85.752 157.486 76.9656 157.852 68.1792C158.046 63.5922 158.628 59.0052 159.21 54.4397C159.748 50.3265 160.244 46.1917 161.063 42.1216C162.614 34.4981 164.704 27.0254 167.182 19.6603C167.441 18.9066 167.656 18.0883 168.518 17.313C167.699 20.091 166.924 22.6322 166.191 25.1734C164.058 32.6461 162.205 40.1834 161.084 47.8715C160.502 51.877 160.093 55.9257 159.727 59.9958C159.21 65.8534 158.585 71.711 158.822 77.6117C159.016 82.6724 159.382 87.7117 160.244 92.7079C160.847 96.175 161.343 99.6422 161.946 103.519H161.968Z" fill="#FFAB4A"/>
<path d="M96.742 34.1324C97.7763 35.6183 98.8752 37.0396 99.8017 38.5902C108.615 53.4495 116.221 68.8472 120.272 85.7954C121.22 89.7579 121.975 93.7419 122.643 97.7475C122.815 98.7166 122.664 99.7287 122.664 101.107C121.414 94.9263 120.121 89.1549 118.398 83.4911C116.652 77.7843 114.864 72.0775 112.58 66.5429C110.252 60.9222 107.559 55.4953 104.801 50.0684C102.107 44.7708 99.2846 39.5162 96.1602 34.4554C96.3541 34.3477 96.548 34.2401 96.742 34.1108V34.1324Z" fill="#FFAB4A"/>
<path d="M77.3055 68.6963C78.189 69.9885 78.189 71.4744 78.5553 72.8311C81.572 84.4386 86.4418 95.1631 93.8112 104.682C100.232 112.973 108.593 118.443 118.505 121.673C119.173 121.888 119.927 121.91 119.927 123.073C118.182 123.051 116.717 122.405 115.23 121.845C103.982 117.56 95.3196 110.195 88.9198 100.009C82.9511 90.5331 79.0509 80.3038 77.1762 69.2993C77.1547 69.127 77.2409 68.9548 77.3055 68.6748V68.6963Z" fill="#FFAB4A"/>
<path d="M81.4434 48.001C83.3396 55.1507 85.0634 62.2358 87.369 69.1917C91.42 81.4452 97.3242 92.6866 105.469 102.701C107.99 105.802 110.684 108.752 113.571 111.508C114.282 112.176 114.929 112.908 115.898 113.899C114.713 113.856 114.261 113.274 113.765 112.844C105.836 106.146 99.716 97.9628 94.6307 88.9826C89.1575 79.2917 85.6021 68.8902 83.1241 58.0795C82.4346 55.0861 81.6157 52.1143 81.4434 49.0347C81.4434 48.6902 81.4434 48.3456 81.4434 47.9795V48.001Z" fill="#FFAB4A"/>
<path d="M55.4561 83.4692C57.18 85.6228 58.0634 88.1855 59.0115 90.7266C61.7266 98.0271 64.1615 105.414 67.1782 112.606C69.6777 118.572 72.6729 124.235 76.53 129.447C80.1285 134.335 84.4165 138.449 89.825 141.313C90.5361 141.701 91.2256 142.153 92.1307 142.691C90.9455 142.95 90.2775 142.282 89.5449 141.937C81.9601 138.363 76.6162 132.397 72.2419 125.463C68.2125 119.045 65.4113 112.09 62.9117 104.983C60.9077 99.2546 59.0115 93.5047 57.0291 87.7763C56.5335 86.3334 55.9733 84.9121 55.4346 83.4908L55.4561 83.4692Z" fill="#FFAB4A"/>
<path d="M202.09 68.3086C202.607 70.7206 201.918 73.111 201.681 75.523C201.207 80.2822 200.452 85.02 199.655 89.7362C198.298 97.7904 196.251 105.651 192.609 113.016C189.549 119.175 185.003 124.02 179.336 127.875C177.698 128.973 175.953 129.835 173.841 130.222C174.293 129.038 175.22 128.758 175.996 128.327C184.055 123.805 189.808 117.258 193.234 108.687C196.186 101.344 198.104 93.7633 199.289 85.946C200.172 80.0454 201.164 74.1662 202.09 68.2871V68.3086Z" fill="#FFAB4A"/>
<path d="M199.073 165.023C203.124 160.953 206.356 156.302 209.265 151.37C212.756 145.405 215.342 139.03 217.734 132.591C220.513 125.14 222.841 117.517 225.987 110.195C226.913 108.063 227.818 105.888 229.434 104.1C227.926 107.438 226.418 110.776 225.232 114.243C222.711 121.608 220.233 128.952 217.648 136.295C215.04 143.682 211.636 150.659 207.197 157.12C205.602 159.446 203.749 161.556 201.681 163.494C200.948 164.183 200.151 164.743 199.073 165.023Z" fill="#FFAB4A"/>
<path d="M79.2016 35.252C78.8137 55.8612 81.7227 75.5875 90.3634 94.4954C89.4368 94.0647 89.286 93.5479 89.0705 93.0741C84.6747 83.7063 81.2271 74.037 79.6972 63.7216C78.4689 55.4521 77.9949 47.161 78.2319 38.8053C78.2535 37.664 78.2319 36.501 79.2231 35.2305L79.2016 35.252Z" fill="#FFAB4A"/>
<path d="M110.253 176.394C102.302 176.394 95.083 174.391 88.8126 169.546C82.9516 165.023 77.9094 159.661 73.3627 153.868C68.2559 147.386 63.4723 140.624 57.9775 134.335C58.4085 134.68 58.861 134.982 59.2273 135.369C63.9894 140.128 68.1051 145.448 72.2638 150.724C76.9828 156.732 82.0897 162.396 87.9076 167.371C93.2946 171.979 99.5866 174.563 106.525 175.662C107.775 175.855 109.003 176.135 110.253 176.394Z" fill="#FFAB4A"/>
<path d="M89.3076 36.2427C99.7584 54.9783 107.817 74.7692 114.519 95.12C112.73 91.9543 111.416 88.5948 110.101 85.2353C103.917 69.2777 97.2372 53.5355 90.1049 37.987C89.8463 37.4056 89.5877 36.8457 89.3292 36.2642L89.3076 36.2427Z" fill="#FFAB4A"/>
<path d="M143.436 86.3552C141.497 82.0266 139.989 77.6334 139.709 72.8526C139.515 69.127 139.536 65.4014 139.924 61.7189C140.377 57.4119 141.368 53.1694 142.531 48.9916C144.104 43.3924 146.173 38.0086 148.608 32.7325C148.909 32.0864 149.297 31.4834 149.793 30.6436C150.267 31.828 149.621 32.5817 149.319 33.2924C146.625 40.0114 144.298 46.8596 142.704 53.9447C141.475 59.4362 140.678 64.9923 140.851 70.6129C140.98 75.1353 141.906 79.5716 143.07 83.9648C143.221 84.4816 143.372 84.9985 143.458 85.5369C143.501 85.7953 143.458 86.0753 143.415 86.3337L143.436 86.3552Z" fill="#FFAB4A"/>
<path d="M214.975 113.081C211.528 123.848 206.938 133.539 198.276 140.839C194.031 144.414 189.269 146.977 183.839 148.075C178.042 149.26 172.311 148.7 166.816 146.396C166.579 146.288 166.385 146.073 165.997 145.771C168.044 145.642 169.66 146.589 171.406 146.912C179.443 148.377 186.92 147.128 193.794 142.692C200.129 138.621 204.719 132.936 208.511 126.54C210.838 122.642 212.67 118.507 214.006 114.157C214.114 113.813 214.178 113.447 214.975 113.102V113.081Z" fill="#FFAB4A"/>
<path d="M208.016 70.5483C208.339 74.2093 208.382 77.8703 207.972 81.5959C207.52 85.7307 207.089 89.8439 206.227 93.9141C204.999 99.7717 203.189 105.435 200.56 110.819C198.319 115.449 195.195 119.412 191.488 122.922C190.993 123.396 190.54 123.999 189.506 124.171C190.303 123.202 190.928 122.384 191.639 121.63C196.94 116.074 200.28 109.398 202.672 102.205C204.46 96.7998 205.731 91.2868 206.399 85.6015C206.873 81.5528 207.412 77.5473 207.541 73.4771C207.563 72.4865 207.843 71.5174 208.016 70.5483Z" fill="#FFAB4A"/>
<path d="M169.294 133.948C169.164 132.958 169.444 132.699 169.832 132.678C170.543 132.613 171.298 132.527 172.009 132.635C179.637 133.776 186.058 130.933 191.962 126.562C196.142 123.461 199.612 119.627 202.37 115.191C203.964 112.607 205.516 109.979 207.11 107.309C207.153 107.568 207.24 107.761 207.196 107.912C204.072 115.019 200.129 121.587 194.203 126.777C190.023 130.438 185.196 132.893 179.766 133.948C177.008 134.487 174.163 134.357 171.384 133.884C170.694 133.776 170.048 133.517 169.315 133.927L169.294 133.948Z" fill="#FFAB4A"/>
<path d="M208.554 22.46C203.491 29.7604 200.28 37.793 197.177 45.8903C194.053 54.0091 192.2 62.4724 190.734 71.4957C190.066 68.4162 190.82 65.875 191.187 63.3554C193.04 51.1449 197.565 39.8389 203.275 28.9636C204.374 26.8747 205.71 24.9365 207.262 23.1491C207.52 22.8476 207.692 22.3738 208.554 22.4815V22.46Z" fill="#FFAB4A"/>
<path d="M38.498 123.137C42.4629 124.343 45.458 126.841 48.4101 129.361C55.9734 135.8 62.4593 143.251 68.6867 150.961C70.9707 153.782 73.1255 156.711 75.3234 159.596C75.5173 159.855 75.8621 160.092 75.6035 160.759C73.9874 158.821 72.4145 157.012 70.9061 155.16C64.7218 147.537 58.1928 140.258 51.1036 133.474C47.4835 130.028 43.7557 126.734 39.5539 123.999C39.1876 123.762 38.8644 123.439 38.5411 123.137H38.498Z" fill="#FFAB4A"/>
<path d="M100.275 68.9763C96.4615 62.2573 82.0028 23.7523 81.7012 19.4668C83.1664 21.5557 99.9954 66.4136 100.275 68.9763Z" fill="#FFAB4A"/>
<path d="M148.522 197.606C145.807 199.178 143.135 200.039 140.398 200.578C131.37 202.344 123.138 200.19 115.532 195.323C111.007 192.438 106.719 189.25 102.474 185.977C100.987 184.836 99.4788 183.737 98.0566 182.488C99.6296 182.725 100.858 183.63 102.086 184.47C106.266 187.355 110.447 190.262 114.584 193.191C119.54 196.723 124.992 199.113 131.003 199.975C135.916 200.686 140.765 200.147 145.441 198.36C146.346 198.015 147.186 197.412 148.543 197.584L148.522 197.606Z" fill="#FFAB4A"/>
<path d="M165.932 10.4651C165.135 10.6159 165.114 11.3911 164.898 11.908C160.351 22.4602 156.559 33.2925 154.124 44.5339C152.874 50.3484 151.926 56.2275 151.431 62.5158C151.107 57.9072 151.732 53.6863 152.249 49.4654C152.917 44.0816 153.995 38.7839 155.589 33.594C157.895 26.1643 160.373 18.7992 164.058 11.908C164.467 11.1542 164.639 10.2067 165.566 9.73291C165.674 10.0344 165.76 10.2928 165.846 10.5297L165.911 10.4436L165.932 10.4651Z" fill="#FFAB4A"/>
<path d="M182.653 139.547C185.131 138.47 187.028 137.652 188.924 136.812C193.061 134.96 196.444 132.182 199.051 128.435C202.715 123.202 205.365 117.452 207.908 111.659C209.308 108.45 210.558 105.177 211.765 101.882C211.894 103.217 211.485 104.445 211.097 105.672C208.662 113.575 205.236 121.005 200.883 128.069C196.961 134.443 190.928 137.587 184.033 139.547C183.795 139.612 183.494 139.547 182.61 139.547H182.653Z" fill="#FFAB4A"/>
<path d="M152.314 199.889C149.836 202.021 147.078 203.119 144.191 203.851C137.231 205.574 130.4 205.036 123.72 202.408C118.182 200.233 113.205 197.132 108.507 193.558C108.249 193.364 107.904 193.213 107.947 192.567C108.917 193.191 109.8 193.773 110.705 194.333C115.898 197.649 121.242 200.75 127.254 202.344C135.205 204.433 143.027 204.174 150.44 200.169C150.892 199.932 151.323 199.501 152.314 199.889Z" fill="#FFAB4A"/>
<path d="M87.9072 62.3433C90.5361 71.3881 93.8545 79.7437 98.6596 87.4749C103.465 95.2276 109.197 102.205 115.984 109.032C114.584 108.924 114.109 108.235 113.592 107.718C101.267 95.7013 92.3461 81.6388 88.0796 64.8413C87.9072 64.1953 87.347 63.5492 87.9288 62.3648L87.9072 62.3433Z" fill="#FFAB4A"/>
<path d="M153.089 89.9944C151.15 86.721 150.137 83.06 149.103 79.4206C147.099 72.2493 146.841 64.9058 147.53 57.5838C148.241 50.025 150.094 42.6384 152.529 35.3164C152.939 36.2424 152.529 36.9746 152.335 37.7284C150.611 44.3827 149.254 51.1233 148.586 57.9499C148.133 62.6231 148.22 67.3393 148.758 72.0555C149.448 78.2146 151.193 84.0722 153.111 89.9728L153.089 89.9944Z" fill="#FFAB4A"/>
<path d="M116.006 48.5176C123.138 55.3873 132.576 83.2754 131.714 94.9906C129.818 78.3869 124.108 63.0754 116.006 48.5176Z" fill="#FFAB4A"/>
<path d="M206.593 44.835C206.42 46.8378 205.623 48.5606 204.955 50.3265C201.508 59.479 198.922 68.8468 197.392 78.4946C196.724 82.694 196.185 86.8718 195.776 91.0927C195.647 92.4064 195.323 93.6769 194.979 94.9475C195.172 77.3748 199.116 60.6419 206.593 44.8135V44.835Z" fill="#FFAB4A"/>
<path d="M248.224 80.8419C248.396 80.885 248.59 80.9065 248.978 80.9711C248.892 81.6818 248.396 82.1986 248.008 82.6939C242.6 89.5206 238.721 97.1656 235.575 105.22C233.937 109.441 232.257 113.619 230.576 117.839C230.167 117.43 230.382 116.935 230.511 116.526C232.752 108.472 235.747 100.719 239.497 93.2677C241.371 89.5206 243.699 86.075 246.478 82.9093C246.78 82.5863 246.974 82.1771 247.211 81.7895C247.556 81.4664 247.9 81.1219 248.245 80.7988L248.224 80.8419Z" fill="#FFAB4A"/>
<path d="M254.171 135.24C253.438 136.231 252.749 137.265 251.93 138.191C246.931 143.876 243.074 150.315 239.562 156.991C237.967 160.027 236.265 163.021 234.519 165.993C233.744 167.306 232.752 168.512 231.761 169.697C230.964 170.644 229.994 171.419 228.723 171.656C228.292 170.773 229.003 170.838 229.305 170.623C231.352 169.137 232.623 167.026 233.808 164.916C236.545 160.113 239.152 155.246 241.846 150.444C245.056 144.716 249.215 139.698 254.171 135.283V135.24Z" fill="#FFAB4A"/>
<path d="M127.706 107.912C127.06 103.368 127.491 98.824 126.844 94.2801C126.219 89.8007 125.401 85.386 124.28 81.0144C123.138 76.5781 120.897 72.5295 119.712 68.1147C123.332 74.2092 125.918 80.7344 127.124 87.7118C128.029 92.9664 128.74 98.2425 128.762 103.583C128.762 105.112 128.439 106.534 127.685 107.89L127.706 107.912Z" fill="#FFAB4A"/>
<path d="M17.6611 121.608C21.5613 121.974 24.6642 123.094 27.6378 124.666C30.8485 126.368 33.8221 128.478 36.5802 130.825C41.6224 135.133 46.5138 139.59 50.9527 144.522C51.1681 144.759 51.3621 145.017 51.3405 145.513C49.0564 143.51 46.7508 141.507 44.4667 139.483C40.8682 136.295 37.3128 133.044 33.5204 130.115C29.4694 126.992 25.1814 124.343 20.2038 122.965C19.6004 122.793 19.0187 122.534 18.4369 122.298C18.286 122.233 18.1783 122.061 17.6827 121.608H17.6611Z" fill="#FFAB4A"/>
<path d="M143.135 61.396C143.092 68.718 143.975 75.8246 145.635 82.8882C147.294 89.9086 150.052 96.4554 153.952 102.981C152.918 102.808 152.595 102.313 152.228 101.839C149.449 98.1566 147.833 93.9142 146.432 89.6072C144.708 84.2664 143.566 78.7965 142.963 73.1973C142.596 69.8378 142.618 66.4998 142.596 63.1403C142.596 62.5804 142.338 61.8482 143.157 61.396H143.135Z" fill="#FFAB4A"/>
<path d="M178.085 101.99C178.279 99.1902 178.365 96.3691 178.71 93.591C179.27 89.284 179.96 84.9985 180.692 80.7345C181.77 74.5754 183.17 68.5025 185.691 62.7526C186.295 61.3743 186.855 59.953 187.975 58.7686C188.019 59.0485 188.126 59.2639 188.062 59.3931C184.636 66.672 182.933 74.4247 181.619 82.3066C180.714 87.7334 179.787 93.1603 178.904 98.6087C178.71 99.7501 178.085 100.805 178.085 101.99Z" fill="#FFAB4A"/>
<path d="M147.014 185.073C146.906 183.63 147.466 182.876 147.811 182.079C148.91 179.387 149.556 176.631 149.707 173.68C150.052 167.285 148.974 161.082 147.703 154.88C147.186 152.318 146.647 149.776 145.742 147.084C146.841 147.601 146.863 148.549 147.057 149.26C148.737 154.988 149.987 160.781 150.698 166.703C151.086 170.063 151.194 173.357 150.612 176.674C150.095 179.603 149.168 182.338 147.014 185.073Z" fill="#FFAB4A"/>
<path d="M98.983 136.381C99.4786 151.176 103.185 164.593 115.015 174.779C114.174 174.994 113.829 174.348 113.377 174.025C106.288 169.18 103.034 161.901 100.621 154.062C99.2847 149.712 98.8537 145.211 98.552 140.688C98.4658 139.267 98.8321 137.824 98.983 136.381Z" fill="#FFAB4A"/>
<path d="M50.0908 77.5039C51.3191 78.3007 51.8147 79.5928 52.3533 80.7988C54.0556 84.5029 55.564 88.2931 56.9 92.1479C59.0763 98.4792 61.3173 104.789 63.5367 111.099C63.7091 111.594 64.0539 112.068 63.6229 112.843C58.3006 101.279 55.0468 89.0899 50.1124 77.5039H50.0908Z" fill="#FFAB4A"/>
<path d="M185.713 82.457C186.424 85.9027 185.433 89.2406 184.873 92.6217C183.688 99.8575 181.964 106.964 179.421 113.855C178.689 115.815 177.87 117.732 176.534 119.368C176.275 119.691 175.909 119.928 175.521 120.251C175.457 119.928 175.349 119.735 175.413 119.605C179.249 112.628 181.275 105.047 182.891 97.3379C183.796 93.0093 184.701 88.6807 185.563 84.3521C185.692 83.7491 185.67 83.1031 185.713 82.457Z" fill="#FFAB4A"/>
<path d="M101.525 204.821C98.9611 204.627 96.5262 203.938 94.1344 203.119C90.1911 201.763 86.334 200.19 82.6494 198.209C77.2839 195.345 71.7461 192.89 65.9066 191.189C65.5619 191.081 65.2602 190.866 64.7861 190.629C65.605 190.284 66.2298 190.543 66.8763 190.715C71.8108 191.986 76.5513 193.773 81.0548 196.099C87.67 199.523 94.5438 202.279 101.504 204.799L101.525 204.821Z" fill="#FFAB4A"/>
<path d="M173.216 114.803C172.806 111.314 173.647 108.127 173.819 104.897C173.927 103.109 174.056 101.3 174.164 99.4914C174.509 93.0093 174.853 86.5057 176.362 80.1528C176.9 77.87 177.504 75.6088 178.753 73.563C178.387 75.9965 177.418 78.2792 177.03 80.7127C176.426 84.546 175.866 88.3792 175.651 92.2556C175.306 98.7377 175.112 105.263 173.991 111.68C173.819 112.649 173.517 113.597 173.216 114.781V114.803Z" fill="#FFAB4A"/>
<path d="M125.207 139.03C127.534 148.484 131.887 157.314 133.869 166.875C134.817 171.376 135.593 175.899 135.141 180.529C133.999 173.68 133.115 166.768 131.025 160.113C129.538 155.376 128.008 150.638 126.521 145.9C125.81 143.66 125.25 141.399 125.207 139.03Z" fill="#FFAB4A"/>
<path d="M165.696 71.7541C165.286 71.1726 165.394 70.6127 165.502 70.1389C168.281 56.1841 170.522 42.1216 172.677 28.0591C171.6 42.7892 169.359 57.3255 165.717 71.7541H165.696Z" fill="#FFAB4A"/>
<path d="M234.304 161.729C234.067 154.256 246.672 135.477 256.39 129.017C256.067 129.835 255.378 130.416 254.731 131.019C251.477 134.056 248.504 137.351 245.789 140.861C241.156 146.848 237.45 153.33 234.864 160.458C234.713 160.889 234.498 161.276 234.282 161.729H234.304Z" fill="#FFAB4A"/>
<path d="M183.408 17.5933C184.593 24.5922 180.025 49.8531 175.866 55.3661C179.68 43.0264 182.438 30.4929 183.408 17.5933Z" fill="#FFAB4A"/>
<path d="M57.1802 120.166C52.6121 116.871 48.7335 112.973 45.4582 108.493C41.2132 102.722 37.4208 96.649 32.4863 90.813C33.4991 91.0499 33.8438 91.5452 34.2317 91.9328C34.6842 92.3851 35.1152 92.8373 35.5461 93.3111C38.6059 96.7998 41.2563 100.59 43.9498 104.337C47.5699 109.355 51.2761 114.265 55.7365 118.572C56.2537 119.067 56.7062 119.627 57.1802 120.166Z" fill="#FFAB4A"/>
<path d="M120.467 125.205C119.325 125.549 118.376 125.312 117.407 125.032C108.831 122.707 101.461 118.249 94.8893 112.391C91.9803 109.807 89.3299 106.943 87.0674 103.712C87.9078 103.454 88.037 104.229 88.4249 104.552C88.899 104.962 89.3084 105.478 89.7178 105.952C94.1351 111.078 99.3497 115.277 105.189 118.679C109.262 121.048 113.55 122.987 118.183 124.085C118.915 124.257 119.842 124.214 120.488 125.226L120.467 125.205Z" fill="#FFAB4A"/>
<path d="M233.938 54.7416C227.753 64.3463 223.121 74.7694 220.449 86.0539C219.393 80.3255 227.947 60.1685 233.528 54.5047C233.722 54.3109 233.808 54.3325 233.938 54.7632V54.7416Z" fill="#FFAB4A"/>
<path d="M178.129 1.74316C179.077 3.46598 179.443 5.31801 179.486 7.21311C179.637 13.4583 179.422 19.682 178.56 25.8842C178.021 29.6744 177.418 33.443 176.491 37.1471C177.396 25.3673 179.529 13.6522 178.129 1.74316Z" fill="#FFAB4A"/>
<path d="M140.118 116.741C142.445 116.117 144.578 115.708 146.582 118.421C143.414 117.495 140.786 117.108 138.609 119.433C137.834 118.4 139.299 117.926 138.889 117.086C136.045 116.375 134.601 117.043 133.071 119.821C133.007 120.682 134.214 121.005 133.998 122.211C132.468 121.996 131.197 120.532 129.473 121.285C127.857 121.996 126.93 123.202 126.37 124.753C125.465 124.451 125.573 123.848 125.767 123.374C126.521 121.479 127.706 120.123 129.925 120.015C130.378 120.015 130.809 119.929 131.175 119.907C134.257 115.32 136.778 114.416 140.096 116.72L140.118 116.741Z" fill="#FFAB4A"/>
<path d="M213.877 153.825C213.446 154.127 213.381 154.579 213.403 155.074C211.528 156.388 210.214 158.283 208.49 159.747C207.585 160.501 206.745 161.341 205.646 161.772C205.172 161.362 205.538 161.147 205.796 160.91C209.934 157.249 213.123 152.856 215.536 147.946C217.82 143.316 219.932 138.621 222.108 133.948C222.345 133.453 222.561 132.979 222.862 132.354C223.358 133.367 222.712 134.142 222.431 134.831C219.997 140.882 217.605 146.934 214.329 152.598C214.114 152.985 214.028 153.437 213.877 153.847V153.825Z" fill="#FFAB4A"/>
<path d="M157.292 179.689C161.494 176.653 164.403 172.819 165.717 167.909C166.924 163.387 166.924 158.778 166.234 154.17C166.148 153.631 166.062 153.093 166.019 152.555C165.997 152.21 166.04 151.887 166.191 151.542C167.376 155.354 168.066 159.209 167.657 163.236C167.42 165.497 167.182 167.715 166.428 169.869C165.222 173.401 163.153 176.308 160.287 178.677C159.49 179.344 158.693 180.184 157.292 179.667V179.689Z" fill="#FFAB4A"/>
<path d="M66.8554 100.676C68.2345 103.992 69.592 107.309 70.9711 110.625C73.6646 117.086 76.8968 123.245 81.2925 128.693C82.8871 130.653 84.6971 132.44 86.3994 134.314C85.7099 134.572 85.4297 133.926 85.0634 133.582C79.0085 128.306 74.8713 121.651 71.6175 114.394C69.9153 110.604 68.45 106.727 67.114 102.786C66.8985 102.119 66.7262 101.43 66.5322 100.762C66.64 100.719 66.7477 100.697 66.8554 100.654V100.676Z" fill="#FFAB4A"/>
<path d="M129.451 68.0718C134.062 79.3778 136.864 91.0069 135.398 103.303C134.687 100.375 134.967 97.3813 134.881 94.3879C134.795 91.3945 134.256 88.4657 133.782 85.5369C133.287 82.5004 132.576 79.5286 131.778 76.5782C131.003 73.7356 130.227 70.8929 129.43 68.0503L129.451 68.0718Z" fill="#FFAB4A"/>
<path d="M212.196 126.303C208.533 137.264 197.349 148.829 186.166 149.862C188.816 149.302 190.605 148.312 192.415 147.364C194.419 146.309 196.401 145.211 198.19 143.811C199.914 142.476 201.487 140.947 202.887 139.31C206.141 135.52 209.05 131.471 211.549 127.143C211.722 126.841 211.765 126.432 212.174 126.324L212.196 126.303Z" fill="#FFAB4A"/>
<path d="M88.1225 176.954C87.67 177.191 87.3468 177.04 87.002 176.911C78.426 173.444 70.7118 168.663 64.3983 161.793C61.7048 158.864 58.9036 156.022 55.8438 152.813C56.878 153.007 57.2228 153.502 57.6107 153.89C60.7782 156.991 63.9242 160.135 67.1349 163.193C71.7246 167.608 76.8745 171.29 82.5847 174.133C84.4163 175.037 86.2263 175.985 88.101 176.954H88.1225Z" fill="#FFAB4A"/>
<path d="M157.098 143.919C159.274 147.085 160.201 150.423 160.955 153.847C161.537 156.517 161.666 159.23 161.882 161.901C162.334 167.371 161.321 172.518 157.356 177.191C157.55 175.791 158.154 174.973 158.628 174.133C160.653 170.515 160.998 166.596 160.74 162.59C160.524 158.994 160.352 155.376 159.49 151.844C158.994 149.82 158.391 147.86 157.572 145.943C157.335 145.405 156.882 144.91 157.119 143.919H157.098Z" fill="#FFAB4A"/>
<path d="M165.868 10.5297C166.989 9.776 167.118 8.44082 167.678 7.36405C168.389 5.9858 168.906 4.47833 170.048 3.31543C165.372 14.6214 161.752 26.2505 157.96 37.8364C158.068 35.1014 158.951 32.5603 159.705 29.9761C161.472 23.9247 163.368 17.8948 165.674 12.0157C165.868 11.4988 166.062 11.0035 165.911 10.4436L165.847 10.5297H165.868Z" fill="#FFAB4A"/>
<path d="M105.103 126.777C105.34 127.746 104.887 128.155 104.65 128.607C103.724 130.503 103.25 132.462 103.099 134.573C102.69 140.064 103.81 145.34 105.017 150.616C105.469 152.619 105.986 154.6 106.331 156.603C104.456 152.878 103.508 148.872 102.733 144.823C102.366 142.971 102.022 141.119 101.785 139.246C101.354 135.972 101.849 132.764 102.948 129.663C103.336 128.586 103.875 127.509 105.124 126.755L105.103 126.777Z" fill="#FFAB4A"/>
<path d="M231.783 88.2287C235.166 80.799 248.181 69.3207 254.516 68.1147C251.801 70.0314 248.914 71.7111 246.328 73.8C243.656 75.9751 241.07 78.2363 238.722 80.7559C236.394 83.2325 234.089 85.7306 231.783 88.2287Z" fill="#FFAB4A"/>
<path d="M176.404 202.602C181.619 201.913 185.368 199.437 188.169 195.474C190.066 192.782 191.466 189.853 192.544 186.752C193.018 185.417 193.492 184.06 194.052 182.467C194.311 184.513 193.578 186.128 193.125 187.764C192.22 191.016 190.841 194.053 188.837 196.809C186.51 200.018 183.407 202.085 179.55 203.076C178.581 203.313 177.633 203.528 176.404 202.624V202.602Z" fill="#FFAB4A"/>
<path d="M148.759 185.503C149.556 184.556 150.418 183.651 151.172 182.66C153.327 179.775 154.275 176.351 155.008 172.905C156.128 167.737 156.322 162.547 155.202 157.335C155.137 156.991 155.115 156.624 155.094 156.258C155.094 155.806 155.094 155.354 155.094 154.815C156.128 156.086 155.999 157.572 156.258 158.95C157.55 166.035 156.882 172.97 154.21 179.667C153.198 182.23 151.603 184.405 148.737 185.503H148.759Z" fill="#FFAB4A"/>
<path d="M205.43 180.012C206.12 189.939 197.436 200.901 189.097 200.492C198.836 196.895 203.534 189.573 205.43 180.012Z" fill="#FFAB4A"/>
<path d="M244.797 72.0557C235.015 79.1408 228.636 89.0039 222.452 99.0178C225.749 90.6621 236.372 75.5444 244.797 72.0557Z" fill="#FFAB4A"/>
<path d="M170.069 152.468C174.465 155.203 179.184 156.711 184.399 156.582C189.527 156.452 193.772 153.804 198.232 151.779C190.174 159.338 176.404 159.575 170.069 152.447V152.468Z" fill="#FFAB4A"/>
<path d="M168.496 203.119C173.237 201.676 177.395 200.061 180.563 196.551C183.666 193.127 185.497 188.992 187.394 184.771C187.652 187.872 184.829 193.923 181.554 197.369C177.719 201.396 173 203.571 168.496 203.119Z" fill="#FFAB4A"/>
<path d="M288.82 215.868C289.208 222.566 286.579 234.69 282.033 240.871C281.343 240.095 282.033 239.471 282.27 238.954C283.735 235.659 285.093 232.3 285.976 228.789C286.73 225.817 287.355 222.824 287.635 219.766C287.743 218.517 287.808 217.16 288.82 215.89V215.868Z" fill="#FFAB4A"/>
<path d="M116.113 137.523C115.984 149.087 117.536 160.264 122.599 170.752C116.221 160.501 114.993 149.217 116.113 137.523Z" fill="#FFAB4A"/>
<path d="M204.912 193.859C211.161 188.691 213.919 182.273 215.578 175.231C215.923 173.788 215.902 172.238 216.914 170.795C217.561 179.129 211.161 191.856 204.912 193.859Z" fill="#FFAB4A"/>
<path d="M66.9414 185.675C68.105 185.331 69.01 185.589 69.9797 185.869C73.492 186.881 76.7673 188.432 79.8271 190.392C83.8134 192.933 87.692 195.625 91.3552 198.618C90.6657 199.135 90.2778 198.446 89.8899 198.187C86.7439 196.206 83.6626 194.117 80.5166 192.136C76.5949 189.659 72.5008 187.527 68.0188 186.235C67.6956 186.149 67.3939 185.912 66.9414 185.675Z" fill="#FFAB4A"/>
<path d="M144.492 168.49C143.049 159.467 141.713 150.379 137.145 141.765C138.481 142.153 138.782 143.036 139.17 143.768C140.721 146.654 141.82 149.712 142.575 152.899C143.781 158.003 144.686 163.15 144.492 168.49Z" fill="#FFAB4A"/>
<path d="M157.421 200.944C159.037 199.781 160.696 198.79 161.752 197.175C162.765 195.625 163.648 193.988 164.898 191.856C164.101 195.646 162.506 198.274 159.705 200.599C161.386 200.578 162.248 199.803 163.088 199.027C165.695 196.658 167.376 193.665 168.54 190.392C169.057 188.949 169.466 187.484 169.94 186.02C169.983 190.241 167.117 196.831 164.079 199.566C163.045 200.513 161.838 201.138 160.524 201.439C159.468 201.676 158.628 200.427 157.442 200.944H157.421Z" fill="#FFAB4A"/>
<path d="M314.764 207.943C314.397 213.844 308.127 224.568 303.817 226.7C305.929 223.384 308.213 220.627 309.937 217.483C311.661 214.36 312.781 210.936 314.742 207.943H314.764Z" fill="#FFAB4A"/>
<path d="M141.195 185.181C142.682 175.49 140.075 166.359 137.554 157.292C138.114 156.926 138.006 157.4 138.049 157.508C138.588 158.951 139.17 160.372 139.622 161.836C141.26 167.199 142.359 172.669 142.79 178.268C142.919 180.163 142.23 183.695 141.217 185.181H141.195Z" fill="#FFAB4A"/>
<path d="M185.907 14.1904C187.286 15.4825 187.437 17.27 187.566 18.9066C188.191 26.8101 187.135 34.5412 184.679 42.6169C184.485 41.2172 184.614 40.3557 184.787 39.4297C185.821 33.7444 186.855 28.0807 186.726 22.2661C186.661 19.5527 186.661 16.8823 185.907 14.212V14.1904Z" fill="#FFAB4A"/>
<path d="M121.565 158.606C118.613 149.798 117.622 136.511 119.992 131.536C120.164 136.36 119.453 140.839 119.906 145.383C120.337 149.798 121.198 154.127 121.565 158.584V158.606Z" fill="#FFAB4A"/>
<path d="M67.4799 126.238C59.3133 121.78 50.9742 113.36 46.7939 105.629C50.0477 109.29 52.9567 113.209 56.4259 116.698C59.8735 120.165 63.666 123.245 67.4799 126.238Z" fill="#FFAB4A"/>
<path d="M294.034 231.718C295.262 227.949 296.771 224.697 297.697 221.23C298.624 217.785 298.904 214.188 300.175 210.355C301.188 215.868 297.654 228.208 294.034 231.718Z" fill="#FFAB4A"/>
<path d="M237.58 144.565C233.615 153.394 231.891 163.128 226.763 171.721C226.418 170.709 227.021 170.149 227.323 169.546C229.348 165.583 230.361 161.255 231.956 157.142C233.119 154.105 234.261 151.069 235.446 148.054C235.942 146.805 236.481 145.556 237.58 144.565Z" fill="#FFAB4A"/>
<path d="M227.344 60.3407C230.964 52.5234 235.769 45.6752 242.772 40.5498C243.44 41.1959 242.923 41.5189 242.643 41.7558C236.545 46.7735 232.063 53.1264 227.861 59.7162C227.71 59.9315 227.516 60.1469 227.344 60.3407Z" fill="#FFAB4A"/>
<path d="M166.838 33.3354C165.135 43.78 163.519 54.2892 162.313 64.8415C162.269 62.5157 162.14 60.1899 162.55 57.8425C163.131 54.4615 163.347 51.0374 163.842 47.6348C164.532 42.811 165.351 38.0301 166.859 33.3354H166.838Z" fill="#FFAB4A"/>
<path d="M163.131 202.624C164.962 201.655 167.009 201.095 168.475 199.566C171.966 195.926 174.702 191.813 175.736 186.817C176.017 185.503 176.749 184.276 176.469 182.854C176.943 185.266 176.275 187.549 175.672 189.81C174.659 193.536 172.655 196.745 170.069 199.587C168.238 201.59 165.975 202.796 163.131 202.645V202.624Z" fill="#FFAB4A"/>
<path d="M153.585 167.414C152.659 158.993 151.301 150.681 148.198 142.734C152.572 150.401 153.542 158.8 153.585 167.414Z" fill="#FFAB4A"/>
<path d="M173.841 198.187C175.263 195.022 177.245 192.136 178.474 188.863C179.702 185.568 180.478 182.144 181.469 178.806C181.77 186.386 178.689 192.631 173.841 198.209V198.187Z" fill="#FFAB4A"/>
<path d="M108.959 198.704C101.612 194.806 95.3195 189.724 90.9453 182.51C93.1001 184.039 94.5438 186.257 96.3323 188.152C98.2716 190.198 100.362 192.093 102.56 193.837C104.671 195.496 106.826 197.089 108.959 198.704Z" fill="#FFAB4A"/>
<path d="M137.359 109.57C138.76 108.192 140.441 107.093 142.552 107.18C143.35 107.201 144.362 107.481 144.643 108.945C141.69 107.912 139.6 109.01 138.027 111.142C136.411 111.551 135.312 109.871 133.739 110.518C132.317 111.099 131.498 112.262 130.507 113.425C129.839 110.194 132.834 108.558 137.359 109.592V109.57Z" fill="#FFAB4A"/>
<path d="M199.655 153.933C195.302 161.298 185.433 163.107 177.849 160.565C180.37 160.436 182.848 161.319 185.369 160.91C188.019 160.458 190.713 160.178 193.148 158.821C195.41 157.551 197.371 155.871 199.655 153.933Z" fill="#FFAB4A"/>
<path d="M174.939 178.634C175.801 180.27 175.672 181.326 175.5 182.402C174.853 186.666 173.366 190.629 170.932 194.204C170.113 195.388 169.509 196.745 168.303 197.671C169.553 194.656 171.535 191.986 172.612 188.885C173.711 185.719 174.401 182.467 174.939 178.634Z" fill="#FFAB4A"/>
<path d="M163.756 136.64C165.868 136.424 167.634 137.523 169.595 137.587C171.685 137.63 173.754 137.609 175.823 137.587C177.805 137.587 179.744 137.221 182.201 136.834C177.482 139.461 166.406 139.612 163.756 136.64Z" fill="#FFAB4A"/>
<path d="M195.927 179.28C197.004 180.96 197.134 182.769 196.789 184.642C195.841 189.574 193.363 193.73 190.26 197.585C190.518 196.206 191.294 195.065 191.962 193.881C193.707 190.78 195.043 187.571 195.754 184.061C196.078 182.467 195.776 180.895 195.948 179.28H195.927Z" fill="#FFAB4A"/>
<path d="M152.12 133.151C150.095 131.816 147.94 131.393 145.656 131.881C144.535 131.299 143.393 130.61 141.928 130.89C140.7 131.127 139.946 132.419 138.545 132.397C139.278 130.136 141.885 128.758 144.04 129.641C145.505 130.265 146.949 130.395 148.479 130.438C150.655 130.481 151.495 131.17 152.12 133.13V133.151Z" fill="#FFAB4A"/>
<path d="M157.378 182.553C152.767 196.465 154.663 194.225 154.792 199.393C153.844 198.898 153.672 198.08 153.456 197.261C152.918 195.302 153.047 193.299 153.5 191.382C154.254 188.217 155.396 185.202 157.378 182.531V182.553Z" fill="#FFAB4A"/>
<path d="M240.811 86.5703C237.558 92.2341 235.575 98.4793 232.602 104.272C234.584 98.0271 236.372 91.6957 240.811 86.5703Z" fill="#FFAB4A"/>
<path d="M162.894 127.939C160.416 126.41 158.347 127.681 156.278 128.779C154.986 128.262 154.49 126.949 153.348 126.346C152.141 125.7 150.913 126.109 149.62 126.109C151.387 123.998 153.197 124.3 156.472 127.164C158.67 126.432 161.062 124.989 162.894 127.939Z" fill="#FFAB4A"/>
<path d="M248.224 80.8419C247.879 81.165 247.534 81.5095 247.19 81.8326C245.466 82.091 244.776 83.9215 243.16 84.4598C245.272 81.488 255.442 73.0031 259.687 70.6558C259.903 71.4741 259.127 71.5602 258.739 71.8833C255.507 74.5321 252.253 77.1379 249.021 79.7652C248.676 80.0451 248.31 80.3251 248.245 80.8419H248.224Z" fill="#FFAB4A"/>
<path d="M190.153 167.155C186.015 170.773 176.556 170.515 172.85 166.66C178.387 168.275 179.055 169.89 190.153 167.155Z" fill="#FFAB4A"/>
<path d="M172.375 161.104C178.689 164.119 185.088 166.359 192.048 163.171C186.403 167.242 176.469 165.239 172.375 161.104Z" fill="#FFAB4A"/>
<path d="M215.751 183.953C218.337 178.677 219.996 173.185 220.685 167.392C221.784 173.745 218.897 178.935 215.751 183.953Z" fill="#FFAB4A"/>
<path d="M192.35 25.0444C192.781 31.3973 191.122 38.827 188.45 41.7127C189.269 38.7408 190.088 36.1351 190.713 33.4862C191.338 30.7728 191.79 28.0163 192.35 25.0444Z" fill="#FFAB4A"/>
<path d="M163.476 179.236C164.618 183.802 162.442 190.542 159.037 194.354C159.77 191.813 161.149 189.509 161.903 186.946C162.636 184.426 162.679 181.799 163.476 179.236Z" fill="#FFAB4A"/>
<path d="M165.803 119.907C167.16 118.356 168.518 117.301 170.953 118.313C168.755 118.938 167.074 119.713 166.578 121.867C164.187 121.285 163.066 118.787 160.545 119.304C162.57 118.033 163.023 118.098 165.781 119.907H165.803Z" fill="#FFAB4A"/>
<path d="M224.026 165.045C225.146 168.038 223.487 175.317 220.621 180.098C221.957 175.123 223.81 170.256 224.026 165.045Z" fill="#FFAB4A"/>
<path d="M134.02 184.383C132.77 178.547 131.93 172.647 130.615 166.832C132.641 172.517 133.912 178.353 134.02 184.383Z" fill="#FFAB4A"/>
<path d="M175.586 2.06641C176.319 4.67217 176.146 7.19179 175.823 9.77602C175.522 12.3602 175.285 14.966 174.832 18.1748C174.38 12.3387 175.737 7.21333 175.586 2.06641Z" fill="#FFAB4A"/>
<path d="M218.057 76.4059C218.552 71.2374 220.772 65.5737 224.112 61.0513C223.034 63.5278 221.871 65.9828 220.879 68.5025C219.845 71.1082 219.005 73.7786 218.057 76.4274V76.4059Z" fill="#FFAB4A"/>
<path d="M156.666 113.812C154.411 112.391 151.947 112.011 149.275 112.671C149.922 111.164 151.107 110.324 152.615 110.324C154.382 110.324 155.761 111.422 156.666 113.834V113.812Z" fill="#FFAB4A"/>
<path d="M131.046 129.62C131.455 127.531 132.791 126.583 134.472 126.131C136.282 125.657 137.359 126.195 138.415 127.811C136.002 127.495 133.545 128.098 131.046 129.62Z" fill="#FFAB4A"/>
<path d="M258.179 134.25C260.635 130.502 263.867 127.487 267.466 123.913C266.625 126.002 261.152 132.01 258.179 134.25Z" fill="#FFAB4A"/>
<path d="M155.611 181.821C154.943 183.35 153.866 184.383 153.456 185.74C153.068 187.097 152.659 188.454 152.142 190.176C151.495 186.063 152.616 183.328 155.589 181.842L155.611 181.821Z" fill="#FFAB4A"/>
</g>
</svg>
